STARTFONT 2.1
FONT -Misc-Fixed-Medium-R-Normal--9-90-75-75-C-60-ISO10646-1
SIZE 9 75 75
FONTBOUNDINGBOX 6 9 0 -2
COMMENT "Generated by fontforge, http://fontforge.sourceforge.net"
STARTPROPERTIES 24
FONTNAME_REGISTRY ""
FOUNDRY "Misc"
FAMILY_NAME "Fixed"
WEIGHT_NAME "Medium"
SLANT "R"
SETWIDTH_NAME "Normal"
ADD_STYLE_NAME ""
PIXEL_SIZE 9
POINT_SIZE 90
RESOLUTION_X 75
RESOLUTION_Y 75
SPACING "C"
AVERAGE_WIDTH 60
CHARSET_REGISTRY "ISO10646"
CHARSET_ENCODING "1"
COPYRIGHT "Public domain font.  Share and enjoy."
_XMBDFED_INFO "Edited with xmbdfed 4.5."
CAP_HEIGHT 6
X_HEIGHT 4
WEIGHT 10
QUAD_WIDTH 6
DEFAULT_CHAR 0
FONT_DESCENT 2
FONT_ASCENT 7
ENDPROPERTIES
CHARS 1305
STARTCHAR char0
ENCODING 0
SWIDTH 640 0
DWIDTH 6 0
BBX 4 6 1 0
BITMAP
50
80
10
80
10
A0
ENDCHAR
STARTCHAR uni0001
ENCODING 1
SWIDTH 1000 0
DWIDTH 0 0
BBX 5 7 0 0
BITMAP
40
F0
C8
88
98
78
10
ENDCHAR
STARTCHAR uni0002
ENCODING 2
SWIDTH 1000 0
DWIDTH 0 0
BBX 5 7 0 0
BITMAP
C0
F8
88
88
88
88
F8
ENDCHAR
STARTCHAR uni0003
ENCODING 3
SWIDTH 1000 0
DWIDTH 0 0
BBX 5 5 0 1
BITMAP
20
30
F8
30
20
ENDCHAR
STARTCHAR uni0004
ENCODING 4
SWIDTH 1000 0
DWIDTH 0 0
BBX 5 7 0 0
BITMAP
20
70
F8
20
20
20
E0
ENDCHAR
STARTCHAR uni0005
ENCODING 5
SWIDTH 1000 0
DWIDTH 0 0
BBX 5 7 0 0
BITMAP
20
70
A8
B8
88
70
20
ENDCHAR
STARTCHAR uni0006
ENCODING 6
SWIDTH 1000 0
DWIDTH 0 0
BBX 6 5 0 0
BITMAP
B0
D8
6C
D8
B0
ENDCHAR
STARTCHAR uni0007
ENCODING 7
SWIDTH 1000 0
DWIDTH 0 0
BBX 5 8 0 -1
BITMAP
F8
A8
88
88
88
88
A8
F8
ENDCHAR
STARTCHAR uni0008
ENCODING 8
SWIDTH 1000 0
DWIDTH 0 0
BBX 5 9 0 -2
BITMAP
20
50
50
50
50
88
A8
88
70
ENDCHAR
STARTCHAR uni0009
ENCODING 9
SWIDTH 1000 0
DWIDTH 0 0
BBX 3 3 0 3
BITMAP
40
A0
40
ENDCHAR
STARTCHAR space
ENCODING 32
SWIDTH 640 0
DWIDTH 6 0
BBX 1 1 5 -2
BITMAP
00
ENDCHAR
STARTCHAR exclam
ENCODING 33
SWIDTH 640 0
DWIDTH 6 0
BBX 1 6 2 0
BITMAP
80
80
80
80
00
80
ENDCHAR
STARTCHAR quotedbl
ENCODING 34
SWIDTH 640 0
DWIDTH 6 0
BBX 3 3 1 3
BITMAP
A0
A0
A0
ENDCHAR
STARTCHAR numbersign
ENCODING 35
SWIDTH 640 0
DWIDTH 6 0
BBX 5 7 0 -1
BITMAP
50
50
F8
50
F8
50
50
ENDCHAR
STARTCHAR dollar
ENCODING 36
SWIDTH 640 0
DWIDTH 6 0
BBX 5 9 0 -2
BITMAP
20
70
A8
A0
70
28
A8
70
20
ENDCHAR
STARTCHAR percent
ENCODING 37
SWIDTH 640 0
DWIDTH 6 0
BBX 6 8 0 -1
BITMAP
40
A8
48
10
20
48
54
08
ENDCHAR
STARTCHAR ampersand
ENCODING 38
SWIDTH 640 0
DWIDTH 6 0
BBX 5 7 0 -1
BITMAP
60
90
90
60
98
90
68
ENDCHAR
STARTCHAR quotesingle
ENCODING 39
SWIDTH 640 0
DWIDTH 6 0
BBX 1 3 2 3
BITMAP
80
80
80
ENDCHAR
STARTCHAR parenleft
ENCODING 40
SWIDTH 640 0
DWIDTH 6 0
BBX 2 7 2 -1
BITMAP
40
80
80
80
80
80
40
ENDCHAR
STARTCHAR parenright
ENCODING 41
SWIDTH 640 0
DWIDTH 6 0
BBX 2 7 2 -1
BITMAP
80
40
40
40
40
40
80
ENDCHAR
STARTCHAR asterisk
ENCODING 42
SWIDTH 640 0
DWIDTH 6 0
BBX 5 5 0 0
BITMAP
88
50
F8
50
88
ENDCHAR
STARTCHAR plus
ENCODING 43
SWIDTH 640 0
DWIDTH 6 0
BBX 5 5 0 0
BITMAP
20
20
F8
20
20
ENDCHAR
STARTCHAR comma
ENCODING 44
SWIDTH 640 0
DWIDTH 6 0
BBX 2 4 2 -2
BITMAP
C0
40
40
80
ENDCHAR
STARTCHAR hyphen
ENCODING 45
SWIDTH 640 0
DWIDTH 6 0
BBX 5 1 0 2
BITMAP
F8
ENDCHAR
STARTCHAR period
ENCODING 46
SWIDTH 640 0
DWIDTH 6 0
BBX 2 2 2 0
BITMAP
C0
C0
ENDCHAR
STARTCHAR slash
ENCODING 47
SWIDTH 640 0
DWIDTH 6 0
BBX 4 6 1 0
BITMAP
10
10
20
40
80
80
ENDCHAR
STARTCHAR zero
ENCODING 48
SWIDTH 640 0
DWIDTH 6 0
BBX 4 6 1 0
BITMAP
60
90
90
90
90
60
ENDCHAR
STARTCHAR one
ENCODING 49
SWIDTH 640 0
DWIDTH 6 0
BBX 3 6 1 0
BITMAP
40
C0
40
40
40
E0
ENDCHAR
STARTCHAR two
ENCODING 50
SWIDTH 640 0
DWIDTH 6 0
BBX 4 6 1 0
BITMAP
60
90
10
20
40
F0
ENDCHAR
STARTCHAR three
ENCODING 51
SWIDTH 640 0
DWIDTH 6 0
BBX 4 6 1 0
BITMAP
F0
20
60
10
10
E0
ENDCHAR
STARTCHAR four
ENCODING 52
SWIDTH 640 0
DWIDTH 6 0
BBX 5 6 0 0
BITMAP
10
30
50
90
F8
10
ENDCHAR
STARTCHAR five
ENCODING 53
SWIDTH 640 0
DWIDTH 6 0
BBX 4 6 1 0
BITMAP
F0
80
E0
10
10
E0
ENDCHAR
STARTCHAR six
ENCODING 54
SWIDTH 640 0
DWIDTH 6 0
BBX 4 6 1 0
BITMAP
60
80
E0
90
90
60
ENDCHAR
STARTCHAR seven
ENCODING 55
SWIDTH 640 0
DWIDTH 6 0
BBX 4 6 1 0
BITMAP
F0
10
10
20
40
40
ENDCHAR
STARTCHAR eight
ENCODING 56
SWIDTH 640 0
DWIDTH 6 0
BBX 4 6 1 0
BITMAP
60
90
60
90
90
60
ENDCHAR
STARTCHAR nine
ENCODING 57
SWIDTH 640 0
DWIDTH 6 0
BBX 4 6 1 0
BITMAP
60
90
90
70
10
60
ENDCHAR
STARTCHAR colon
ENCODING 58
SWIDTH 640 0
DWIDTH 6 0
BBX 2 5 2 0
BITMAP
C0
C0
00
C0
C0
ENDCHAR
STARTCHAR semicolon
ENCODING 59
SWIDTH 640 0
DWIDTH 6 0
BBX 2 7 2 -2
BITMAP
C0
C0
00
C0
40
40
80
ENDCHAR
STARTCHAR less
ENCODING 60
SWIDTH 640 0
DWIDTH 6 0
BBX 5 5 0 0
BITMAP
18
60
80
60
18
ENDCHAR
STARTCHAR equal
ENCODING 61
SWIDTH 640 0
DWIDTH 6 0
BBX 5 3 0 1
BITMAP
F8
00
F8
ENDCHAR
STARTCHAR greater
ENCODING 62
SWIDTH 640 0
DWIDTH 6 0
BBX 5 5 0 0
BITMAP
C0
30
08
30
C0
ENDCHAR
STARTCHAR question
ENCODING 63
SWIDTH 640 0
DWIDTH 6 0
BBX 4 7 1 0
BITMAP
60
90
10
60
40
00
40
ENDCHAR
STARTCHAR at
ENCODING 64
SWIDTH 640 0
DWIDTH 6 0
BBX 5 6 0 0
BITMAP
70
90
A8
B0
80
70
ENDCHAR
STARTCHAR A
ENCODING 65
SWIDTH 640 0
DWIDTH 6 0
BBX 5 6 0 0
BITMAP
20
50
88
F8
88
88
ENDCHAR
STARTCHAR B
ENCODING 66
SWIDTH 640 0
DWIDTH 6 0
BBX 5 6 0 0
BITMAP
F0
88
F0
88
88
F0
ENDCHAR
STARTCHAR C
ENCODING 67
SWIDTH 640 0
DWIDTH 6 0
BBX 4 6 1 0
BITMAP
60
90
80
80
90
60
ENDCHAR
STARTCHAR D
ENCODING 68
SWIDTH 640 0
DWIDTH 6 0
BBX 4 6 1 0
BITMAP
E0
90
90
90
90
E0
ENDCHAR
STARTCHAR E
ENCODING 69
SWIDTH 640 0
DWIDTH 6 0
BBX 4 6 1 0
BITMAP
F0
80
E0
80
80
F0
ENDCHAR
STARTCHAR F
ENCODING 70
SWIDTH 640 0
DWIDTH 6 0
BBX 4 6 1 0
BITMAP
F0
80
E0
80
80
80
ENDCHAR
STARTCHAR G
ENCODING 71
SWIDTH 640 0
DWIDTH 6 0
BBX 4 6 1 0
BITMAP
60
90
80
B0
90
60
ENDCHAR
STARTCHAR H
ENCODING 72
SWIDTH 640 0
DWIDTH 6 0
BBX 4 6 1 0
BITMAP
90
90
F0
90
90
90
ENDCHAR
STARTCHAR I
ENCODING 73
SWIDTH 640 0
DWIDTH 6 0
BBX 3 6 1 0
BITMAP
E0
40
40
40
40
E0
ENDCHAR
STARTCHAR J
ENCODING 74
SWIDTH 640 0
DWIDTH 6 0
BBX 5 6 0 0
BITMAP
38
10
10
10
90
60
ENDCHAR
STARTCHAR K
ENCODING 75
SWIDTH 640 0
DWIDTH 6 0
BBX 4 6 1 0
BITMAP
90
A0
C0
A0
90
90
ENDCHAR
STARTCHAR L
ENCODING 76
SWIDTH 640 0
DWIDTH 6 0
BBX 4 6 1 0
BITMAP
80
80
80
80
80
F0
ENDCHAR
STARTCHAR M
ENCODING 77
SWIDTH 640 0
DWIDTH 6 0
BBX 5 6 0 0
BITMAP
88
D8
A8
A8
88
88
ENDCHAR
STARTCHAR N
ENCODING 78
SWIDTH 640 0
DWIDTH 6 0
BBX 4 6 1 0
BITMAP
90
D0
B0
90
90
90
ENDCHAR
STARTCHAR O
ENCODING 79
SWIDTH 640 0
DWIDTH 6 0
BBX 5 6 0 0
BITMAP
70
88
88
88
88
70
ENDCHAR
STARTCHAR P
ENCODING 80
SWIDTH 640 0
DWIDTH 6 0
BBX 4 6 1 0
BITMAP
E0
90
90
E0
80
80
ENDCHAR
STARTCHAR Q
ENCODING 81
SWIDTH 640 0
DWIDTH 6 0
BBX 4 7 1 -1
BITMAP
60
90
90
D0
B0
60
10
ENDCHAR
STARTCHAR R
ENCODING 82
SWIDTH 640 0
DWIDTH 6 0
BBX 4 6 1 0
BITMAP
E0
90
90
E0
90
90
ENDCHAR
STARTCHAR S
ENCODING 83
SWIDTH 640 0
DWIDTH 6 0
BBX 4 6 1 0
BITMAP
60
90
40
20
90
60
ENDCHAR
STARTCHAR T
ENCODING 84
SWIDTH 640 0
DWIDTH 6 0
BBX 5 6 0 0
BITMAP
F8
20
20
20
20
20
ENDCHAR
STARTCHAR U
ENCODING 85
SWIDTH 640 0
DWIDTH 6 0
BBX 4 6 1 0
BITMAP
90
90
90
90
90
60
ENDCHAR
STARTCHAR V
ENCODING 86
SWIDTH 640 0
DWIDTH 6 0
BBX 4 6 1 0
BITMAP
90
90
90
F0
60
60
ENDCHAR
STARTCHAR W
ENCODING 87
SWIDTH 640 0
DWIDTH 6 0
BBX 5 6 0 0
BITMAP
88
88
A8
A8
D8
88
ENDCHAR
STARTCHAR X
ENCODING 88
SWIDTH 640 0
DWIDTH 6 0
BBX 5 6 0 0
BITMAP
88
50
20
20
50
88
ENDCHAR
STARTCHAR Y
ENCODING 89
SWIDTH 640 0
DWIDTH 6 0
BBX 5 6 0 0
BITMAP
88
88
50
20
20
20
ENDCHAR
STARTCHAR Z
ENCODING 90
SWIDTH 640 0
DWIDTH 6 0
BBX 4 6 1 0
BITMAP
F0
10
20
40
80
F0
ENDCHAR
STARTCHAR bracketleft
ENCODING 91
SWIDTH 640 0
DWIDTH 6 0
BBX 3 6 1 0
BITMAP
E0
80
80
80
80
E0
ENDCHAR
STARTCHAR backslash
ENCODING 92
SWIDTH 640 0
DWIDTH 6 0
BBX 4 6 1 0
BITMAP
80
80
40
20
10
10
ENDCHAR
STARTCHAR bracketright
ENCODING 93
SWIDTH 640 0
DWIDTH 6 0
BBX 3 6 1 0
BITMAP
E0
20
20
20
20
E0
ENDCHAR
STARTCHAR asciicircum
ENCODING 94
SWIDTH 640 0
DWIDTH 6 0
BBX 5 3 0 3
BITMAP
20
50
88
ENDCHAR
STARTCHAR underscore
ENCODING 95
SWIDTH 640 0
DWIDTH 6 0
BBX 5 1 0 -2
BITMAP
F8
ENDCHAR
STARTCHAR grave
ENCODING 96
SWIDTH 640 0
DWIDTH 6 0
BBX 2 2 2 4
BITMAP
80
40
ENDCHAR
STARTCHAR a
ENCODING 97
SWIDTH 640 0
DWIDTH 6 0
BBX 4 4 1 0
BITMAP
70
90
90
70
ENDCHAR
STARTCHAR b
ENCODING 98
SWIDTH 640 0
DWIDTH 6 0
BBX 4 6 1 0
BITMAP
80
80
E0
90
90
E0
ENDCHAR
STARTCHAR c
ENCODING 99
SWIDTH 640 0
DWIDTH 6 0
BBX 4 4 1 0
BITMAP
70
80
80
70
ENDCHAR
STARTCHAR d
ENCODING 100
SWIDTH 640 0
DWIDTH 6 0
BBX 4 6 1 0
BITMAP
10
10
70
90
90
70
ENDCHAR
STARTCHAR e
ENCODING 101
SWIDTH 640 0
DWIDTH 6 0
BBX 4 4 1 0
BITMAP
60
B0
C0
70
ENDCHAR
STARTCHAR f
ENCODING 102
SWIDTH 640 0
DWIDTH 6 0
BBX 4 6 1 0
BITMAP
20
50
40
E0
40
40
ENDCHAR
STARTCHAR g
ENCODING 103
SWIDTH 640 0
DWIDTH 6 0
BBX 4 6 1 -2
BITMAP
60
90
90
70
10
60
ENDCHAR
STARTCHAR h
ENCODING 104
SWIDTH 640 0
DWIDTH 6 0
BBX 4 6 1 0
BITMAP
80
80
E0
90
90
90
ENDCHAR
STARTCHAR i
ENCODING 105
SWIDTH 640 0
DWIDTH 6 0
BBX 3 6 1 0
BITMAP
40
00
C0
40
40
E0
ENDCHAR
STARTCHAR j
ENCODING 106
SWIDTH 640 0
DWIDTH 6 0
BBX 3 8 1 -2
BITMAP
20
00
60
20
20
20
A0
40
ENDCHAR
STARTCHAR k
ENCODING 107
SWIDTH 640 0
DWIDTH 6 0
BBX 4 6 1 0
BITMAP
80
80
A0
C0
A0
90
ENDCHAR
STARTCHAR l
ENCODING 108
SWIDTH 640 0
DWIDTH 6 0
BBX 3 6 1 0
BITMAP
C0
40
40
40
40
E0
ENDCHAR
STARTCHAR m
ENCODING 109
SWIDTH 640 0
DWIDTH 6 0
BBX 5 4 0 0
BITMAP
D0
A8
A8
88
ENDCHAR
STARTCHAR n
ENCODING 110
SWIDTH 640 0
DWIDTH 6 0
BBX 4 4 1 0
BITMAP
E0
90
90
90
ENDCHAR
STARTCHAR o
ENCODING 111
SWIDTH 640 0
DWIDTH 6 0
BBX 4 4 1 0
BITMAP
60
90
90
60
ENDCHAR
STARTCHAR p
ENCODING 112
SWIDTH 640 0
DWIDTH 6 0
BBX 4 6 1 -2
BITMAP
E0
90
90
E0
80
80
ENDCHAR
STARTCHAR q
ENCODING 113
SWIDTH 640 0
DWIDTH 6 0
BBX 4 6 1 -2
BITMAP
70
90
90
70
10
10
ENDCHAR
STARTCHAR r
ENCODING 114
SWIDTH 640 0
DWIDTH 6 0
BBX 4 4 1 0
BITMAP
A0
D0
80
80
ENDCHAR
STARTCHAR s
ENCODING 115
SWIDTH 640 0
DWIDTH 6 0
BBX 4 4 1 0
BITMAP
70
C0
30
E0
ENDCHAR
STARTCHAR t
ENCODING 116
SWIDTH 640 0
DWIDTH 6 0
BBX 4 6 1 0
BITMAP
40
40
E0
40
50
20
ENDCHAR
STARTCHAR u
ENCODING 117
SWIDTH 640 0
DWIDTH 6 0
BBX 4 4 1 0
BITMAP
90
90
90
70
ENDCHAR
STARTCHAR v
ENCODING 118
SWIDTH 640 0
DWIDTH 6 0
BBX 4 4 1 0
BITMAP
90
90
60
60
ENDCHAR
STARTCHAR w
ENCODING 119
SWIDTH 640 0
DWIDTH 6 0
BBX 5 4 0 0
BITMAP
88
A8
A8
50
ENDCHAR
STARTCHAR x
ENCODING 120
SWIDTH 640 0
DWIDTH 6 0
BBX 4 4 1 0
BITMAP
90
60
60
90
ENDCHAR
STARTCHAR y
ENCODING 121
SWIDTH 640 0
DWIDTH 6 0
BBX 4 6 1 -2
BITMAP
90
90
90
70
90
60
ENDCHAR
STARTCHAR z
ENCODING 122
SWIDTH 640 0
DWIDTH 6 0
BBX 4 4 1 0
BITMAP
F0
20
40
F0
ENDCHAR
STARTCHAR braceleft
ENCODING 123
SWIDTH 640 0
DWIDTH 6 0
BBX 3 7 1 0
BITMAP
20
40
40
80
40
40
20
ENDCHAR
STARTCHAR bar
ENCODING 124
SWIDTH 640 0
DWIDTH 6 0
BBX 1 7 2 -1
BITMAP
80
80
80
80
80
80
80
ENDCHAR
STARTCHAR braceright
ENCODING 125
SWIDTH 640 0
DWIDTH 6 0
BBX 3 7 1 0
BITMAP
80
40
40
20
40
40
80
ENDCHAR
STARTCHAR asciitilde
ENCODING 126
SWIDTH 640 0
DWIDTH 6 0
BBX 4 2 1 3
BITMAP
50
A0
ENDCHAR
STARTCHAR space
ENCODING 160
SWIDTH 640 0
DWIDTH 6 0
BBX 1 1 5 -2
BITMAP
00
ENDCHAR
STARTCHAR exclamdown
ENCODING 161
SWIDTH 640 0
DWIDTH 6 0
BBX 1 6 2 0
BITMAP
80
00
80
80
80
80
ENDCHAR
STARTCHAR cent
ENCODING 162
SWIDTH 640 0
DWIDTH 6 0
BBX 4 6 1 -1
BITMAP
20
70
A0
A0
70
20
ENDCHAR
STARTCHAR sterling
ENCODING 163
SWIDTH 640 0
DWIDTH 6 0
BBX 5 7 0 -1
BITMAP
30
48
40
F0
40
40
F8
ENDCHAR
STARTCHAR currency
ENCODING 164
SWIDTH 640 0
DWIDTH 6 0
BBX 5 5 0 0
BITMAP
A8
50
88
50
A8
ENDCHAR
STARTCHAR yen
ENCODING 165
SWIDTH 640 0
DWIDTH 6 0
BBX 5 6 0 0
BITMAP
88
50
F8
20
F8
20
ENDCHAR
STARTCHAR brokenbar
ENCODING 166
SWIDTH 640 0
DWIDTH 6 0
BBX 1 7 2 -1
BITMAP
80
80
80
00
80
80
80
ENDCHAR
STARTCHAR section
ENCODING 167
SWIDTH 640 0
DWIDTH 6 0
BBX 4 7 1 -1
BITMAP
70
80
60
90
60
10
E0
ENDCHAR
STARTCHAR dieresis
ENCODING 168
SWIDTH 640 0
DWIDTH 6 0
BBX 3 1 1 5
BITMAP
A0
ENDCHAR
STARTCHAR copyright
ENCODING 169
SWIDTH 640 0
DWIDTH 6 0
BBX 6 7 0 0
BITMAP
78
84
94
A4
94
84
78
ENDCHAR
STARTCHAR ordfeminine
ENCODING 170
SWIDTH 640 0
DWIDTH 6 0
BBX 3 5 1 1
BITMAP
60
A0
60
00
E0
ENDCHAR
STARTCHAR guillemotleft
ENCODING 171
SWIDTH 640 0
DWIDTH 6 0
BBX 5 5 0 0
BITMAP
28
50
A0
50
28
ENDCHAR
STARTCHAR logicalnot
ENCODING 172
SWIDTH 640 0
DWIDTH 6 0
BBX 4 3 1 0
BITMAP
F0
10
10
ENDCHAR
STARTCHAR hyphen
ENCODING 173
SWIDTH 640 0
DWIDTH 6 0
BBX 4 1 1 2
BITMAP
F0
ENDCHAR
STARTCHAR registered
ENCODING 174
SWIDTH 640 0
DWIDTH 6 0
BBX 6 7 0 0
BITMAP
78
84
B4
A4
A4
84
78
ENDCHAR
STARTCHAR macron
ENCODING 175
SWIDTH 640 0
DWIDTH 6 0
BBX 4 1 1 5
BITMAP
F0
ENDCHAR
STARTCHAR degree
ENCODING 176
SWIDTH 640 0
DWIDTH 6 0
BBX 4 3 1 2
BITMAP
60
90
60
ENDCHAR
STARTCHAR plusminus
ENCODING 177
SWIDTH 640 0
DWIDTH 6 0
BBX 5 7 0 -1
BITMAP
20
20
F8
20
20
00
F8
ENDCHAR
STARTCHAR twosuperior
ENCODING 178
SWIDTH 640 0
DWIDTH 6 0
BBX 3 5 1 1
BITMAP
40
A0
20
40
E0
ENDCHAR
STARTCHAR threesuperior
ENCODING 179
SWIDTH 640 0
DWIDTH 6 0
BBX 3 5 1 1
BITMAP
C0
20
40
20
C0
ENDCHAR
STARTCHAR acute
ENCODING 180
SWIDTH 640 0
DWIDTH 6 0
BBX 2 2 2 4
BITMAP
40
80
ENDCHAR
STARTCHAR mu
ENCODING 181
SWIDTH 640 0
DWIDTH 6 0
BBX 4 5 1 -1
BITMAP
90
90
B0
D0
80
ENDCHAR
STARTCHAR paragraph
ENCODING 182
SWIDTH 640 0
DWIDTH 6 0
BBX 5 6 0 0
BITMAP
78
E8
E8
68
28
28
ENDCHAR
STARTCHAR periodcentered
ENCODING 183
SWIDTH 640 0
DWIDTH 6 0
BBX 1 1 2 2
BITMAP
80
ENDCHAR
STARTCHAR cedilla
ENCODING 184
SWIDTH 640 0
DWIDTH 6 0
BBX 2 2 2 -2
BITMAP
40
80
ENDCHAR
STARTCHAR onesuperior
ENCODING 185
SWIDTH 640 0
DWIDTH 6 0
BBX 3 5 1 1
BITMAP
40
C0
40
40
E0
ENDCHAR
STARTCHAR ordmasculine
ENCODING 186
SWIDTH 640 0
DWIDTH 6 0
BBX 3 5 1 1
BITMAP
40
A0
40
00
E0
ENDCHAR
STARTCHAR guillemotright
ENCODING 187
SWIDTH 640 0
DWIDTH 6 0
BBX 5 5 0 0
BITMAP
A0
50
28
50
A0
ENDCHAR
STARTCHAR onequarter
ENCODING 188
SWIDTH 640 0
DWIDTH 6 0
BBX 5 8 0 -1
BITMAP
40
C0
40
50
70
30
78
10
ENDCHAR
STARTCHAR onehalf
ENCODING 189
SWIDTH 640 0
DWIDTH 6 0
BBX 5 8 0 -1
BITMAP
40
C0
40
50
68
08
10
38
ENDCHAR
STARTCHAR threequarters
ENCODING 190
SWIDTH 640 0
DWIDTH 6 0
BBX 5 8 0 -1
BITMAP
C0
20
40
30
F0
30
78
10
ENDCHAR
STARTCHAR questiondown
ENCODING 191
SWIDTH 640 0
DWIDTH 6 0
BBX 4 7 1 0
BITMAP
20
00
20
60
80
90
60
ENDCHAR
STARTCHAR Agrave
ENCODING 192
SWIDTH 640 0
DWIDTH 6 0
BBX 5 7 0 0
BITMAP
40
20
20
50
70
88
88
ENDCHAR
STARTCHAR Aacute
ENCODING 193
SWIDTH 640 0
DWIDTH 6 0
BBX 5 7 0 0
BITMAP
10
20
20
50
70
88
88
ENDCHAR
STARTCHAR Acircumflex
ENCODING 194
SWIDTH 640 0
DWIDTH 6 0
BBX 5 7 0 0
BITMAP
20
50
20
50
70
88
88
ENDCHAR
STARTCHAR Atilde
ENCODING 195
SWIDTH 640 0
DWIDTH 6 0
BBX 5 7 0 0
BITMAP
28
50
20
50
70
88
88
ENDCHAR
STARTCHAR Adieresis
ENCODING 196
SWIDTH 640 0
DWIDTH 6 0
BBX 5 7 0 0
BITMAP
50
00
20
50
70
88
88
ENDCHAR
STARTCHAR Aring
ENCODING 197
SWIDTH 640 0
DWIDTH 6 0
BBX 5 7 0 0
BITMAP
20
50
20
50
70
88
88
ENDCHAR
STARTCHAR AE
ENCODING 198
SWIDTH 640 0
DWIDTH 6 0
BBX 5 6 0 0
BITMAP
78
A0
F0
A0
A0
B8
ENDCHAR
STARTCHAR Ccedilla
ENCODING 199
SWIDTH 640 0
DWIDTH 6 0
BBX 4 8 1 -2
BITMAP
60
90
80
80
90
60
20
40
ENDCHAR
STARTCHAR Egrave
ENCODING 200
SWIDTH 640 0
DWIDTH 6 0
BBX 4 7 1 0
BITMAP
40
20
F0
80
E0
80
F0
ENDCHAR
STARTCHAR Eacute
ENCODING 201
SWIDTH 640 0
DWIDTH 6 0
BBX 4 7 1 0
BITMAP
20
40
F0
80
E0
80
F0
ENDCHAR
STARTCHAR Ecircumflex
ENCODING 202
SWIDTH 640 0
DWIDTH 6 0
BBX 4 7 1 0
BITMAP
20
50
F0
80
E0
80
F0
ENDCHAR
STARTCHAR Edieresis
ENCODING 203
SWIDTH 640 0
DWIDTH 6 0
BBX 4 7 1 0
BITMAP
50
00
F0
80
E0
80
F0
ENDCHAR
STARTCHAR Igrave
ENCODING 204
SWIDTH 640 0
DWIDTH 6 0
BBX 3 7 1 0
BITMAP
80
40
E0
40
40
40
E0
ENDCHAR
STARTCHAR Iacute
ENCODING 205
SWIDTH 640 0
DWIDTH 6 0
BBX 3 7 1 0
BITMAP
20
40
E0
40
40
40
E0
ENDCHAR
STARTCHAR Icircumflex
ENCODING 206
SWIDTH 640 0
DWIDTH 6 0
BBX 3 7 1 0
BITMAP
40
A0
E0
40
40
40
E0
ENDCHAR
STARTCHAR Idieresis
ENCODING 207
SWIDTH 640 0
DWIDTH 6 0
BBX 3 7 1 0
BITMAP
A0
00
E0
40
40
40
E0
ENDCHAR
STARTCHAR Eth
ENCODING 208
SWIDTH 640 0
DWIDTH 6 0
BBX 5 6 0 0
BITMAP
70
48
E8
48
48
70
ENDCHAR
STARTCHAR Ntilde
ENCODING 209
SWIDTH 640 0
DWIDTH 6 0
BBX 4 7 1 0
BITMAP
50
A0
90
D0
B0
90
90
ENDCHAR
STARTCHAR Ograve
ENCODING 210
SWIDTH 640 0
DWIDTH 6 0
BBX 4 7 1 0
BITMAP
40
20
60
90
90
90
60
ENDCHAR
STARTCHAR Oacute
ENCODING 211
SWIDTH 640 0
DWIDTH 6 0
BBX 4 7 1 0
BITMAP
20
40
60
90
90
90
60
ENDCHAR
STARTCHAR Ocircumflex
ENCODING 212
SWIDTH 640 0
DWIDTH 6 0
BBX 4 7 1 0
BITMAP
20
50
60
90
90
90
60
ENDCHAR
STARTCHAR Otilde
ENCODING 213
SWIDTH 640 0
DWIDTH 6 0
BBX 4 7 1 0
BITMAP
50
A0
60
90
90
90
60
ENDCHAR
STARTCHAR Odieresis
ENCODING 214
SWIDTH 640 0
DWIDTH 6 0
BBX 4 7 1 0
BITMAP
50
00
60
90
90
90
60
ENDCHAR
STARTCHAR multiply
ENCODING 215
SWIDTH 640 0
DWIDTH 6 0
BBX 5 5 0 0
BITMAP
88
50
20
50
88
ENDCHAR
STARTCHAR Oslash
ENCODING 216
SWIDTH 640 0
DWIDTH 6 0
BBX 4 8 1 -1
BITMAP
10
70
B0
B0
D0
D0
E0
80
ENDCHAR
STARTCHAR Ugrave
ENCODING 217
SWIDTH 640 0
DWIDTH 6 0
BBX 4 7 1 0
BITMAP
40
20
90
90
90
90
60
ENDCHAR
STARTCHAR Uacute
ENCODING 218
SWIDTH 640 0
DWIDTH 6 0
BBX 4 7 1 0
BITMAP
20
40
90
90
90
90
60
ENDCHAR
STARTCHAR Ucircumflex
ENCODING 219
SWIDTH 640 0
DWIDTH 6 0
BBX 4 7 1 0
BITMAP
20
50
90
90
90
90
60
ENDCHAR
STARTCHAR Udieresis
ENCODING 220
SWIDTH 640 0
DWIDTH 6 0
BBX 4 7 1 0
BITMAP
50
00
90
90
90
90
60
ENDCHAR
STARTCHAR Yacute
ENCODING 221
SWIDTH 640 0
DWIDTH 6 0
BBX 5 7 0 0
BITMAP
10
20
88
50
20
20
20
ENDCHAR
STARTCHAR Thorn
ENCODING 222
SWIDTH 640 0
DWIDTH 6 0
BBX 4 6 1 0
BITMAP
80
E0
90
90
E0
80
ENDCHAR
STARTCHAR germandbls
ENCODING 223
SWIDTH 640 0
DWIDTH 6 0
BBX 4 6 1 0
BITMAP
60
90
A0
A0
90
A0
ENDCHAR
STARTCHAR agrave
ENCODING 224
SWIDTH 640 0
DWIDTH 6 0
BBX 4 7 1 0
BITMAP
40
20
00
70
90
90
70
ENDCHAR
STARTCHAR aacute
ENCODING 225
SWIDTH 640 0
DWIDTH 6 0
BBX 4 7 1 0
BITMAP
20
40
00
70
90
90
70
ENDCHAR
STARTCHAR acircumflex
ENCODING 226
SWIDTH 640 0
DWIDTH 6 0
BBX 4 7 1 0
BITMAP
20
50
00
70
90
90
70
ENDCHAR
STARTCHAR atilde
ENCODING 227
SWIDTH 640 0
DWIDTH 6 0
BBX 4 7 1 0
BITMAP
50
A0
00
70
90
90
70
ENDCHAR
STARTCHAR adieresis
ENCODING 228
SWIDTH 640 0
DWIDTH 6 0
BBX 4 6 1 0
BITMAP
50
00
70
90
90
70
ENDCHAR
STARTCHAR aring
ENCODING 229
SWIDTH 640 0
DWIDTH 6 0
BBX 4 7 1 0
BITMAP
20
50
20
70
90
90
70
ENDCHAR
STARTCHAR ae
ENCODING 230
SWIDTH 640 0
DWIDTH 6 0
BBX 5 4 0 0
BITMAP
70
A8
B0
78
ENDCHAR
STARTCHAR ccedilla
ENCODING 231
SWIDTH 640 0
DWIDTH 6 0
BBX 4 6 1 -2
BITMAP
70
80
80
70
20
40
ENDCHAR
STARTCHAR egrave
ENCODING 232
SWIDTH 640 0
DWIDTH 6 0
BBX 4 7 1 0
BITMAP
40
20
00
60
B0
C0
70
ENDCHAR
STARTCHAR eacute
ENCODING 233
SWIDTH 640 0
DWIDTH 6 0
BBX 4 7 1 0
BITMAP
20
40
00
60
B0
C0
70
ENDCHAR
STARTCHAR ecircumflex
ENCODING 234
SWIDTH 640 0
DWIDTH 6 0
BBX 4 7 1 0
BITMAP
20
50
00
60
B0
C0
70
ENDCHAR
STARTCHAR edieresis
ENCODING 235
SWIDTH 640 0
DWIDTH 6 0
BBX 4 6 1 0
BITMAP
50
00
60
B0
C0
70
ENDCHAR
STARTCHAR igrave
ENCODING 236
SWIDTH 640 0
DWIDTH 6 0
BBX 3 7 1 0
BITMAP
80
40
00
C0
40
40
E0
ENDCHAR
STARTCHAR iacute
ENCODING 237
SWIDTH 640 0
DWIDTH 6 0
BBX 3 7 1 0
BITMAP
20
40
00
C0
40
40
E0
ENDCHAR
STARTCHAR icircumflex
ENCODING 238
SWIDTH 640 0
DWIDTH 6 0
BBX 3 7 1 0
BITMAP
40
A0
00
C0
40
40
E0
ENDCHAR
STARTCHAR idieresis
ENCODING 239
SWIDTH 640 0
DWIDTH 6 0
BBX 3 6 1 0
BITMAP
A0
00
C0
40
40
E0
ENDCHAR
STARTCHAR eth
ENCODING 240
SWIDTH 640 0
DWIDTH 6 0
BBX 4 7 1 0
BITMAP
30
60
10
70
90
90
60
ENDCHAR
STARTCHAR ntilde
ENCODING 241
SWIDTH 640 0
DWIDTH 6 0
BBX 4 7 1 0
BITMAP
50
A0
00
E0
90
90
90
ENDCHAR
STARTCHAR ograve
ENCODING 242
SWIDTH 640 0
DWIDTH 6 0
BBX 4 7 1 0
BITMAP
40
20
00
60
90
90
60
ENDCHAR
STARTCHAR oacute
ENCODING 243
SWIDTH 640 0
DWIDTH 6 0
BBX 4 7 1 0
BITMAP
20
40
00
60
90
90
60
ENDCHAR
STARTCHAR ocircumflex
ENCODING 244
SWIDTH 640 0
DWIDTH 6 0
BBX 4 7 1 0
BITMAP
20
50
00
60
90
90
60
ENDCHAR
STARTCHAR otilde
ENCODING 245
SWIDTH 640 0
DWIDTH 6 0
BBX 4 7 1 0
BITMAP
50
A0
00
60
90
90
60
ENDCHAR
STARTCHAR odieresis
ENCODING 246
SWIDTH 640 0
DWIDTH 6 0
BBX 4 6 1 0
BITMAP
50
00
60
90
90
60
ENDCHAR
STARTCHAR divide
ENCODING 247
SWIDTH 640 0
DWIDTH 6 0
BBX 5 5 0 0
BITMAP
20
00
F8
00
20
ENDCHAR
STARTCHAR oslash
ENCODING 248
SWIDTH 640 0
DWIDTH 6 0
BBX 4 4 1 0
BITMAP
70
B0
D0
E0
ENDCHAR
STARTCHAR ugrave
ENCODING 249
SWIDTH 640 0
DWIDTH 6 0
BBX 4 7 1 0
BITMAP
40
20
00
90
90
90
70
ENDCHAR
STARTCHAR uacute
ENCODING 250
SWIDTH 640 0
DWIDTH 6 0
BBX 4 7 1 0
BITMAP
20
40
00
90
90
90
70
ENDCHAR
STARTCHAR ucircumflex
ENCODING 251
SWIDTH 640 0
DWIDTH 6 0
BBX 4 7 1 0
BITMAP
20
50
00
90
90
90
70
ENDCHAR
STARTCHAR udieresis
ENCODING 252
SWIDTH 640 0
DWIDTH 6 0
BBX 4 6 1 0
BITMAP
50
00
90
90
90
70
ENDCHAR
STARTCHAR yacute
ENCODING 253
SWIDTH 640 0
DWIDTH 6 0
BBX 4 9 1 -2
BITMAP
20
40
00
90
90
90
70
90
60
ENDCHAR
STARTCHAR thorn
ENCODING 254
SWIDTH 640 0
DWIDTH 6 0
BBX 4 8 1 -2
BITMAP
80
80
E0
90
90
E0
80
80
ENDCHAR
STARTCHAR ydieresis
ENCODING 255
SWIDTH 640 0
DWIDTH 6 0
BBX 4 8 1 -2
BITMAP
50
00
90
90
90
70
90
60
ENDCHAR
STARTCHAR Amacron
ENCODING 256
SWIDTH 640 0
DWIDTH 6 0
BBX 5 7 0 0
BITMAP
70
00
20
50
70
88
88
ENDCHAR
STARTCHAR amacron
ENCODING 257
SWIDTH 640 0
DWIDTH 6 0
BBX 4 6 1 0
BITMAP
70
00
70
90
90
70
ENDCHAR
STARTCHAR Abreve
ENCODING 258
SWIDTH 640 0
DWIDTH 6 0
BBX 5 7 0 0
BITMAP
90
60
20
50
70
88
88
ENDCHAR
STARTCHAR abreve
ENCODING 259
SWIDTH 640 0
DWIDTH 6 0
BBX 4 7 1 0
BITMAP
90
60
00
70
90
90
70
ENDCHAR
STARTCHAR Aogonek
ENCODING 260
SWIDTH 640 0
DWIDTH 6 0
BBX 5 8 0 -2
BITMAP
20
50
88
F8
88
88
10
08
ENDCHAR
STARTCHAR aogonek
ENCODING 261
SWIDTH 640 0
DWIDTH 6 0
BBX 4 6 1 -2
BITMAP
70
90
90
70
20
10
ENDCHAR
STARTCHAR Cacute
ENCODING 262
SWIDTH 640 0
DWIDTH 6 0
BBX 4 7 1 0
BITMAP
20
40
60
90
80
90
60
ENDCHAR
STARTCHAR cacute
ENCODING 263
SWIDTH 640 0
DWIDTH 6 0
BBX 4 7 1 0
BITMAP
20
40
00
70
80
80
70
ENDCHAR
STARTCHAR Ccircumflex
ENCODING 264
SWIDTH 640 0
DWIDTH 6 0
BBX 4 7 1 0
BITMAP
20
50
60
90
80
90
60
ENDCHAR
STARTCHAR ccircumflex
ENCODING 265
SWIDTH 640 0
DWIDTH 6 0
BBX 4 7 1 0
BITMAP
20
50
00
70
80
80
70
ENDCHAR
STARTCHAR Cdotaccent
ENCODING 266
SWIDTH 640 0
DWIDTH 6 0
BBX 4 7 1 0
BITMAP
20
00
60
90
80
90
60
ENDCHAR
STARTCHAR cdotaccent
ENCODING 267
SWIDTH 640 0
DWIDTH 6 0
BBX 4 6 1 0
BITMAP
20
00
70
80
80
70
ENDCHAR
STARTCHAR Ccaron
ENCODING 268
SWIDTH 640 0
DWIDTH 6 0
BBX 4 7 1 0
BITMAP
50
20
60
90
80
90
60
ENDCHAR
STARTCHAR ccaron
ENCODING 269
SWIDTH 640 0
DWIDTH 6 0
BBX 4 7 1 0
BITMAP
50
20
00
70
80
80
70
ENDCHAR
STARTCHAR Dcaron
ENCODING 270
SWIDTH 640 0
DWIDTH 6 0
BBX 4 7 1 0
BITMAP
50
20
E0
90
90
90
E0
ENDCHAR
STARTCHAR dcaron
ENCODING 271
SWIDTH 640 0
DWIDTH 6 0
BBX 4 7 1 0
BITMAP
A0
50
10
70
90
90
70
ENDCHAR
STARTCHAR Dcroat
ENCODING 272
SWIDTH 640 0
DWIDTH 6 0
BBX 5 6 0 0
BITMAP
70
48
E8
48
48
70
ENDCHAR
STARTCHAR dcroat
ENCODING 273
SWIDTH 640 0
DWIDTH 6 0
BBX 5 6 0 0
BITMAP
10
38
70
90
90
70
ENDCHAR
STARTCHAR Emacron
ENCODING 274
SWIDTH 640 0
DWIDTH 6 0
BBX 4 7 1 0
BITMAP
F0
00
F0
80
E0
80
F0
ENDCHAR
STARTCHAR emacron
ENCODING 275
SWIDTH 640 0
DWIDTH 6 0
BBX 4 6 1 0
BITMAP
F0
00
60
B0
C0
70
ENDCHAR
STARTCHAR Ebreve
ENCODING 276
SWIDTH 640 0
DWIDTH 6 0
BBX 4 7 1 0
BITMAP
90
60
F0
80
E0
80
F0
ENDCHAR
STARTCHAR ebreve
ENCODING 277
SWIDTH 640 0
DWIDTH 6 0
BBX 4 7 1 0
BITMAP
90
60
00
60
B0
C0
70
ENDCHAR
STARTCHAR Edotaccent
ENCODING 278
SWIDTH 640 0
DWIDTH 6 0
BBX 4 7 1 0
BITMAP
40
00
F0
80
E0
80
F0
ENDCHAR
STARTCHAR edotaccent
ENCODING 279
SWIDTH 640 0
DWIDTH 6 0
BBX 4 6 1 0
BITMAP
40
00
60
B0
C0
70
ENDCHAR
STARTCHAR Eogonek
ENCODING 280
SWIDTH 640 0
DWIDTH 6 0
BBX 4 8 1 -2
BITMAP
F0
80
E0
80
80
F0
40
20
ENDCHAR
STARTCHAR eogonek
ENCODING 281
SWIDTH 640 0
DWIDTH 6 0
BBX 4 6 1 -2
BITMAP
60
B0
C0
70
40
20
ENDCHAR
STARTCHAR Ecaron
ENCODING 282
SWIDTH 640 0
DWIDTH 6 0
BBX 4 7 1 0
BITMAP
50
20
F0
80
E0
80
F0
ENDCHAR
STARTCHAR ecaron
ENCODING 283
SWIDTH 640 0
DWIDTH 6 0
BBX 4 7 1 0
BITMAP
50
20
00
60
B0
C0
70
ENDCHAR
STARTCHAR Gcircumflex
ENCODING 284
SWIDTH 640 0
DWIDTH 6 0
BBX 4 7 1 0
BITMAP
20
50
70
80
B0
90
60
ENDCHAR
STARTCHAR gcircumflex
ENCODING 285
SWIDTH 640 0
DWIDTH 6 0
BBX 4 9 1 -2
BITMAP
20
50
00
60
90
90
70
10
60
ENDCHAR
STARTCHAR Gbreve
ENCODING 286
SWIDTH 640 0
DWIDTH 6 0
BBX 4 7 1 0
BITMAP
90
60
70
80
B0
90
60
ENDCHAR
STARTCHAR gbreve
ENCODING 287
SWIDTH 640 0
DWIDTH 6 0
BBX 4 9 1 -2
BITMAP
90
60
00
60
90
90
70
10
60
ENDCHAR
STARTCHAR Gdotaccent
ENCODING 288
SWIDTH 640 0
DWIDTH 6 0
BBX 4 7 1 0
BITMAP
20
00
70
80
B0
90
60
ENDCHAR
STARTCHAR gdotaccent
ENCODING 289
SWIDTH 640 0
DWIDTH 6 0
BBX 4 8 1 -2
BITMAP
20
00
60
90
90
70
10
60
ENDCHAR
STARTCHAR Gcommaaccent
ENCODING 290
SWIDTH 640 0
DWIDTH 6 0
BBX 4 8 1 -2
BITMAP
60
90
80
B0
90
60
20
40
ENDCHAR
STARTCHAR gcommaaccent
ENCODING 291
SWIDTH 640 0
DWIDTH 6 0
BBX 4 8 1 -2
BITMAP
20
40
60
90
90
70
10
60
ENDCHAR
STARTCHAR Hcircumflex
ENCODING 292
SWIDTH 640 0
DWIDTH 6 0
BBX 4 7 1 0
BITMAP
20
50
00
90
F0
90
90
ENDCHAR
STARTCHAR hcircumflex
ENCODING 293
SWIDTH 640 0
DWIDTH 6 0
BBX 5 7 0 0
BITMAP
10
A8
80
E0
90
90
90
ENDCHAR
STARTCHAR Hbar
ENCODING 294
SWIDTH 640 0
DWIDTH 6 0
BBX 5 6 0 0
BITMAP
50
F8
50
70
50
50
ENDCHAR
STARTCHAR hbar
ENCODING 295
SWIDTH 640 0
DWIDTH 6 0
BBX 5 6 0 0
BITMAP
40
E0
70
48
48
48
ENDCHAR
STARTCHAR Itilde
ENCODING 296
SWIDTH 640 0
DWIDTH 6 0
BBX 4 7 1 0
BITMAP
50
A0
70
20
20
20
70
ENDCHAR
STARTCHAR itilde
ENCODING 297
SWIDTH 640 0
DWIDTH 6 0
BBX 4 7 1 0
BITMAP
50
A0
00
60
20
20
70
ENDCHAR
STARTCHAR Imacron
ENCODING 298
SWIDTH 640 0
DWIDTH 6 0
BBX 3 7 1 0
BITMAP
E0
00
E0
40
40
40
E0
ENDCHAR
STARTCHAR imacron
ENCODING 299
SWIDTH 640 0
DWIDTH 6 0
BBX 3 6 1 0
BITMAP
E0
00
C0
40
40
E0
ENDCHAR
STARTCHAR Ibreve
ENCODING 300
SWIDTH 640 0
DWIDTH 6 0
BBX 4 7 1 0
BITMAP
90
60
00
70
20
20
70
ENDCHAR
STARTCHAR ibreve
ENCODING 301
SWIDTH 640 0
DWIDTH 6 0
BBX 4 7 1 0
BITMAP
90
60
00
60
20
20
70
ENDCHAR
STARTCHAR Iogonek
ENCODING 302
SWIDTH 640 0
DWIDTH 6 0
BBX 3 8 1 -2
BITMAP
E0
40
40
40
40
E0
40
20
ENDCHAR
STARTCHAR iogonek
ENCODING 303
SWIDTH 640 0
DWIDTH 6 0
BBX 3 8 1 -2
BITMAP
40
00
C0
40
40
E0
40
20
ENDCHAR
STARTCHAR Idotaccent
ENCODING 304
SWIDTH 640 0
DWIDTH 6 0
BBX 3 7 1 0
BITMAP
40
00
E0
40
40
40
E0
ENDCHAR
STARTCHAR dotlessi
ENCODING 305
SWIDTH 640 0
DWIDTH 6 0
BBX 3 4 1 0
BITMAP
C0
40
40
E0
ENDCHAR
STARTCHAR IJ
ENCODING 306
SWIDTH 640 0
DWIDTH 6 0
BBX 5 6 0 0
BITMAP
B8
88
88
88
A8
90
ENDCHAR
STARTCHAR ij
ENCODING 307
SWIDTH 640 0
DWIDTH 6 0
BBX 5 8 0 -2
BITMAP
88
00
98
88
88
88
28
10
ENDCHAR
STARTCHAR Jcircumflex
ENCODING 308
SWIDTH 640 0
DWIDTH 6 0
BBX 5 7 0 0
BITMAP
10
28
38
10
10
90
60
ENDCHAR
STARTCHAR jcircumflex
ENCODING 309
SWIDTH 640 0
DWIDTH 6 0
BBX 4 9 1 -2
BITMAP
20
50
00
60
20
20
20
A0
40
ENDCHAR
STARTCHAR Kcommaaccent
ENCODING 310
SWIDTH 640 0
DWIDTH 6 0
BBX 4 8 1 -2
BITMAP
90
A0
C0
A0
90
90
40
80
ENDCHAR
STARTCHAR kcommaaccent
ENCODING 311
SWIDTH 640 0
DWIDTH 6 0
BBX 4 8 1 -2
BITMAP
80
80
A0
C0
A0
90
40
80
ENDCHAR
STARTCHAR kgreenlandic
ENCODING 312
SWIDTH 640 0
DWIDTH 6 0
BBX 4 4 1 0
BITMAP
B0
C0
A0
90
ENDCHAR
STARTCHAR Lacute
ENCODING 313
SWIDTH 640 0
DWIDTH 6 0
BBX 4 7 1 0
BITMAP
10
20
80
80
80
80
F0
ENDCHAR
STARTCHAR lacute
ENCODING 314
SWIDTH 640 0
DWIDTH 6 0
BBX 3 7 1 0
BITMAP
40
80
C0
40
40
40
E0
ENDCHAR
STARTCHAR Lcommaaccent
ENCODING 315
SWIDTH 640 0
DWIDTH 6 0
BBX 4 8 1 -2
BITMAP
80
80
80
80
80
F0
20
40
ENDCHAR
STARTCHAR lcommaaccent
ENCODING 316
SWIDTH 640 0
DWIDTH 6 0
BBX 3 8 1 -2
BITMAP
C0
40
40
40
40
E0
40
80
ENDCHAR
STARTCHAR Lcaron
ENCODING 317
SWIDTH 640 0
DWIDTH 6 0
BBX 4 7 1 0
BITMAP
50
20
80
80
80
80
F0
ENDCHAR
STARTCHAR lcaron
ENCODING 318
SWIDTH 640 0
DWIDTH 6 0
BBX 3 7 1 0
BITMAP
A0
40
C0
40
40
40
E0
ENDCHAR
STARTCHAR Ldot
ENCODING 319
SWIDTH 640 0
DWIDTH 6 0
BBX 4 6 1 0
BITMAP
80
80
A0
80
80
F0
ENDCHAR
STARTCHAR ldot
ENCODING 320
SWIDTH 640 0
DWIDTH 6 0
BBX 4 6 1 0
BITMAP
C0
40
50
40
40
E0
ENDCHAR
STARTCHAR Lslash
ENCODING 321
SWIDTH 640 0
DWIDTH 6 0
BBX 5 6 0 0
BITMAP
40
40
60
C0
40
78
ENDCHAR
STARTCHAR lslash
ENCODING 322
SWIDTH 640 0
DWIDTH 6 0
BBX 3 6 1 0
BITMAP
C0
40
60
C0
40
E0
ENDCHAR
STARTCHAR Nacute
ENCODING 323
SWIDTH 640 0
DWIDTH 6 0
BBX 4 7 1 0
BITMAP
20
40
90
D0
B0
90
90
ENDCHAR
STARTCHAR nacute
ENCODING 324
SWIDTH 640 0
DWIDTH 6 0
BBX 4 7 1 0
BITMAP
20
40
00
E0
90
90
90
ENDCHAR
STARTCHAR Ncommaaccent
ENCODING 325
SWIDTH 640 0
DWIDTH 6 0
BBX 4 8 1 -2
BITMAP
90
D0
B0
90
90
90
40
80
ENDCHAR
STARTCHAR ncommaaccent
ENCODING 326
SWIDTH 640 0
DWIDTH 6 0
BBX 4 6 1 -2
BITMAP
E0
90
90
90
40
80
ENDCHAR
STARTCHAR Ncaron
ENCODING 327
SWIDTH 640 0
DWIDTH 6 0
BBX 4 7 1 0
BITMAP
50
20
90
D0
B0
90
90
ENDCHAR
STARTCHAR ncaron
ENCODING 328
SWIDTH 640 0
DWIDTH 6 0
BBX 4 7 1 0
BITMAP
A0
40
00
E0
90
90
90
ENDCHAR
STARTCHAR napostrophe
ENCODING 329
SWIDTH 640 0
DWIDTH 6 0
BBX 5 6 0 0
BITMAP
C0
40
B0
28
28
28
ENDCHAR
STARTCHAR Eng
ENCODING 330
SWIDTH 640 0
DWIDTH 6 0
BBX 4 8 1 -2
BITMAP
90
D0
B0
90
90
90
10
20
ENDCHAR
STARTCHAR eng
ENCODING 331
SWIDTH 640 0
DWIDTH 6 0
BBX 4 6 1 -2
BITMAP
E0
90
90
90
10
20
ENDCHAR
STARTCHAR Omacron
ENCODING 332
SWIDTH 640 0
DWIDTH 6 0
BBX 5 7 0 0
BITMAP
F8
00
70
88
88
88
70
ENDCHAR
STARTCHAR omacron
ENCODING 333
SWIDTH 640 0
DWIDTH 6 0
BBX 4 6 1 0
BITMAP
F0
00
60
90
90
60
ENDCHAR
STARTCHAR Obreve
ENCODING 334
SWIDTH 640 0
DWIDTH 6 0
BBX 5 7 0 0
BITMAP
88
70
70
88
88
88
70
ENDCHAR
STARTCHAR obreve
ENCODING 335
SWIDTH 640 0
DWIDTH 6 0
BBX 4 7 1 0
BITMAP
90
60
00
60
90
90
60
ENDCHAR
STARTCHAR Ohungarumlaut
ENCODING 336
SWIDTH 640 0
DWIDTH 6 0
BBX 5 7 0 0
BITMAP
48
90
70
88
88
88
70
ENDCHAR
STARTCHAR ohungarumlaut
ENCODING 337
SWIDTH 640 0
DWIDTH 6 0
BBX 5 7 0 0
BITMAP
48
90
00
60
90
90
60
ENDCHAR
STARTCHAR OE
ENCODING 338
SWIDTH 640 0
DWIDTH 6 0
BBX 5 6 0 0
BITMAP
78
A0
B0
A0
A0
78
ENDCHAR
STARTCHAR oe
ENCODING 339
SWIDTH 640 0
DWIDTH 6 0
BBX 5 4 0 0
BITMAP
50
A8
B0
58
ENDCHAR
STARTCHAR Racute
ENCODING 340
SWIDTH 640 0
DWIDTH 6 0
BBX 4 7 1 0
BITMAP
20
40
E0
90
E0
A0
90
ENDCHAR
STARTCHAR racute
ENCODING 341
SWIDTH 640 0
DWIDTH 6 0
BBX 4 7 1 0
BITMAP
20
40
00
A0
D0
80
80
ENDCHAR
STARTCHAR Rcommaaccent
ENCODING 342
SWIDTH 640 0
DWIDTH 6 0
BBX 4 8 1 -2
BITMAP
E0
90
90
E0
90
90
40
80
ENDCHAR
STARTCHAR rcommaaccent
ENCODING 343
SWIDTH 640 0
DWIDTH 6 0
BBX 4 6 1 -2
BITMAP
A0
D0
80
80
40
80
ENDCHAR
STARTCHAR Rcaron
ENCODING 344
SWIDTH 640 0
DWIDTH 6 0
BBX 4 7 1 0
BITMAP
A0
40
E0
90
E0
A0
90
ENDCHAR
STARTCHAR rcaron
ENCODING 345
SWIDTH 640 0
DWIDTH 6 0
BBX 4 7 1 0
BITMAP
A0
40
00
A0
D0
80
80
ENDCHAR
STARTCHAR Sacute
ENCODING 346
SWIDTH 640 0
DWIDTH 6 0
BBX 4 7 1 0
BITMAP
20
40
70
80
60
10
E0
ENDCHAR
STARTCHAR sacute
ENCODING 347
SWIDTH 640 0
DWIDTH 6 0
BBX 4 7 1 0
BITMAP
20
40
00
70
C0
30
E0
ENDCHAR
STARTCHAR Scircumflex
ENCODING 348
SWIDTH 640 0
DWIDTH 6 0
BBX 4 7 1 0
BITMAP
20
50
70
80
60
10
E0
ENDCHAR
STARTCHAR scircumflex
ENCODING 349
SWIDTH 640 0
DWIDTH 6 0
BBX 4 7 1 0
BITMAP
20
50
00
70
C0
30
E0
ENDCHAR
STARTCHAR Scedilla
ENCODING 350
SWIDTH 640 0
DWIDTH 6 0
BBX 4 8 1 -2
BITMAP
60
90
40
20
90
60
20
40
ENDCHAR
STARTCHAR scedilla
ENCODING 351
SWIDTH 640 0
DWIDTH 6 0
BBX 4 6 1 -2
BITMAP
70
C0
30
E0
20
40
ENDCHAR
STARTCHAR Scaron
ENCODING 352
SWIDTH 640 0
DWIDTH 6 0
BBX 4 7 1 0
BITMAP
50
20
70
80
60
10
E0
ENDCHAR
STARTCHAR scaron
ENCODING 353
SWIDTH 640 0
DWIDTH 6 0
BBX 4 7 1 0
BITMAP
50
20
00
70
C0
30
E0
ENDCHAR
STARTCHAR Tcommaaccent
ENCODING 354
SWIDTH 640 0
DWIDTH 6 0
BBX 5 8 0 -2
BITMAP
F8
20
20
20
20
20
10
20
ENDCHAR
STARTCHAR tcommaaccent
ENCODING 355
SWIDTH 640 0
DWIDTH 6 0
BBX 4 8 1 -2
BITMAP
40
40
E0
40
50
20
20
40
ENDCHAR
STARTCHAR Tcaron
ENCODING 356
SWIDTH 640 0
DWIDTH 6 0
BBX 5 7 0 0
BITMAP
50
20
F8
20
20
20
20
ENDCHAR
STARTCHAR tcaron
ENCODING 357
SWIDTH 640 0
DWIDTH 6 0
BBX 4 7 1 0
BITMAP
50
20
40
E0
40
50
20
ENDCHAR
STARTCHAR Tbar
ENCODING 358
SWIDTH 640 0
DWIDTH 6 0
BBX 5 6 0 0
BITMAP
F8
20
20
70
20
20
ENDCHAR
STARTCHAR tbar
ENCODING 359
SWIDTH 640 0
DWIDTH 6 0
BBX 4 6 1 0
BITMAP
40
40
E0
E0
50
20
ENDCHAR
STARTCHAR Utilde
ENCODING 360
SWIDTH 640 0
DWIDTH 6 0
BBX 4 7 1 0
BITMAP
50
A0
00
90
90
90
60
ENDCHAR
STARTCHAR utilde
ENCODING 361
SWIDTH 640 0
DWIDTH 6 0
BBX 4 7 1 0
BITMAP
50
A0
00
90
90
90
70
ENDCHAR
STARTCHAR Umacron
ENCODING 362
SWIDTH 640 0
DWIDTH 6 0
BBX 4 7 1 0
BITMAP
F0
00
90
90
90
90
60
ENDCHAR
STARTCHAR umacron
ENCODING 363
SWIDTH 640 0
DWIDTH 6 0
BBX 4 6 1 0
BITMAP
F0
00
90
90
90
70
ENDCHAR
STARTCHAR Ubreve
ENCODING 364
SWIDTH 640 0
DWIDTH 6 0
BBX 4 7 1 0
BITMAP
90
60
00
90
90
90
60
ENDCHAR
STARTCHAR ubreve
ENCODING 365
SWIDTH 640 0
DWIDTH 6 0
BBX 4 7 1 0
BITMAP
90
60
00
90
90
90
70
ENDCHAR
STARTCHAR Uring
ENCODING 366
SWIDTH 640 0
DWIDTH 6 0
BBX 4 7 1 0
BITMAP
60
90
60
90
90
90
60
ENDCHAR
STARTCHAR uring
ENCODING 367
SWIDTH 640 0
DWIDTH 6 0
BBX 4 7 1 0
BITMAP
60
90
60
90
90
90
70
ENDCHAR
STARTCHAR Uhungarumlaut
ENCODING 368
SWIDTH 640 0
DWIDTH 6 0
BBX 5 7 0 0
BITMAP
48
90
00
90
90
90
60
ENDCHAR
STARTCHAR uhungarumlaut
ENCODING 369
SWIDTH 640 0
DWIDTH 6 0
BBX 5 7 0 0
BITMAP
48
90
00
90
90
90
70
ENDCHAR
STARTCHAR Uogonek
ENCODING 370
SWIDTH 640 0
DWIDTH 6 0
BBX 4 8 1 -2
BITMAP
90
90
90
90
90
60
40
20
ENDCHAR
STARTCHAR uogonek
ENCODING 371
SWIDTH 640 0
DWIDTH 6 0
BBX 4 6 1 -2
BITMAP
90
90
90
70
40
20
ENDCHAR
STARTCHAR Wcircumflex
ENCODING 372
SWIDTH 640 0
DWIDTH 6 0
BBX 5 7 0 0
BITMAP
20
50
00
88
A8
D8
88
ENDCHAR
STARTCHAR wcircumflex
ENCODING 373
SWIDTH 640 0
DWIDTH 6 0
BBX 5 7 0 0
BITMAP
20
50
00
88
A8
A8
50
ENDCHAR
STARTCHAR Ycircumflex
ENCODING 374
SWIDTH 640 0
DWIDTH 6 0
BBX 5 7 0 0
BITMAP
20
50
00
88
50
20
20
ENDCHAR
STARTCHAR ycircumflex
ENCODING 375
SWIDTH 640 0
DWIDTH 6 0
BBX 4 9 1 -2
BITMAP
20
50
00
90
90
90
70
90
60
ENDCHAR
STARTCHAR Ydieresis
ENCODING 376
SWIDTH 640 0
DWIDTH 6 0
BBX 5 7 0 0
BITMAP
50
00
88
50
20
20
20
ENDCHAR
STARTCHAR Zacute
ENCODING 377
SWIDTH 640 0
DWIDTH 6 0
BBX 4 7 1 0
BITMAP
20
40
F0
20
40
80
F0
ENDCHAR
STARTCHAR zacute
ENCODING 378
SWIDTH 640 0
DWIDTH 6 0
BBX 4 7 1 0
BITMAP
20
40
00
F0
20
40
F0
ENDCHAR
STARTCHAR Zdotaccent
ENCODING 379
SWIDTH 640 0
DWIDTH 6 0
BBX 4 7 1 0
BITMAP
20
00
F0
20
40
80
F0
ENDCHAR
STARTCHAR zdotaccent
ENCODING 380
SWIDTH 640 0
DWIDTH 6 0
BBX 4 6 1 0
BITMAP
20
00
F0
20
40
F0
ENDCHAR
STARTCHAR Zcaron
ENCODING 381
SWIDTH 640 0
DWIDTH 6 0
BBX 4 7 1 0
BITMAP
50
20
F0
20
40
80
F0
ENDCHAR
STARTCHAR zcaron
ENCODING 382
SWIDTH 640 0
DWIDTH 6 0
BBX 4 7 1 0
BITMAP
50
20
00
F0
20
40
F0
ENDCHAR
STARTCHAR longs
ENCODING 383
SWIDTH 640 0
DWIDTH 6 0
BBX 4 6 1 0
BITMAP
20
50
C0
40
40
40
ENDCHAR
STARTCHAR uni018F
ENCODING 399
SWIDTH 640 0
DWIDTH 6 0
BBX 4 6 1 0
BITMAP
60
90
10
F0
90
60
ENDCHAR
STARTCHAR florin
ENCODING 402
SWIDTH 640 0
DWIDTH 6 0
BBX 4 8 1 -2
BITMAP
20
50
40
E0
40
40
40
80
ENDCHAR
STARTCHAR Ohorn
ENCODING 416
SWIDTH 640 0
DWIDTH 6 0
BBX 6 6 0 0
BITMAP
64
94
98
90
90
60
ENDCHAR
STARTCHAR ohorn
ENCODING 417
SWIDTH 640 0
DWIDTH 6 0
BBX 5 4 1 0
BITMAP
68
90
90
60
ENDCHAR
STARTCHAR Uhorn
ENCODING 431
SWIDTH 640 0
DWIDTH 6 0
BBX 5 6 1 0
BITMAP
A8
A8
B0
A0
A0
40
ENDCHAR
STARTCHAR uhorn
ENCODING 432
SWIDTH 640 0
DWIDTH 6 0
BBX 5 4 1 0
BITMAP
A8
B0
A0
60
ENDCHAR
STARTCHAR uni01B5
ENCODING 437
SWIDTH 640 0
DWIDTH 6 0
BBX 4 6 1 0
BITMAP
F0
10
F0
40
80
F0
ENDCHAR
STARTCHAR uni01B6
ENCODING 438
SWIDTH 640 0
DWIDTH 6 0
BBX 4 4 1 0
BITMAP
F0
F0
40
F0
ENDCHAR
STARTCHAR uni01D1
ENCODING 465
SWIDTH 640 0
DWIDTH 6 0
BBX 4 7 1 0
BITMAP
50
20
60
90
90
90
60
ENDCHAR
STARTCHAR uni01D2
ENCODING 466
SWIDTH 640 0
DWIDTH 6 0
BBX 4 7 1 0
BITMAP
50
20
00
60
90
90
60
ENDCHAR
STARTCHAR Gcaron
ENCODING 486
SWIDTH 640 0
DWIDTH 6 0
BBX 4 7 1 0
BITMAP
50
20
70
80
B0
90
60
ENDCHAR
STARTCHAR gcaron
ENCODING 487
SWIDTH 640 0
DWIDTH 6 0
BBX 4 9 1 -2
BITMAP
50
20
00
60
90
90
70
10
60
ENDCHAR
STARTCHAR Aringacute
ENCODING 506
SWIDTH 640 0
DWIDTH 6 0
BBX 3 7 1 0
BITMAP
20
40
A0
40
A0
E0
A0
ENDCHAR
STARTCHAR aringacute
ENCODING 507
SWIDTH 640 0
DWIDTH 6 0
BBX 4 7 1 0
BITMAP
10
20
50
70
90
90
70
ENDCHAR
STARTCHAR AEacute
ENCODING 508
SWIDTH 640 0
DWIDTH 6 0
BBX 5 7 0 0
BITMAP
10
20
78
A0
F0
A0
B8
ENDCHAR
STARTCHAR aeacute
ENCODING 509
SWIDTH 640 0
DWIDTH 6 0
BBX 5 7 0 0
BITMAP
10
20
00
70
A8
B0
78
ENDCHAR
STARTCHAR Oslashacute
ENCODING 510
SWIDTH 640 0
DWIDTH 6 0
BBX 4 7 1 0
BITMAP
10
20
70
B0
D0
D0
E0
ENDCHAR
STARTCHAR oslashacute
ENCODING 511
SWIDTH 640 0
DWIDTH 6 0
BBX 4 7 1 0
BITMAP
20
40
00
70
B0
D0
E0
ENDCHAR
STARTCHAR Scommaaccent
ENCODING 536
SWIDTH 640 0
DWIDTH 6 0
BBX 4 8 1 -2
BITMAP
60
90
40
20
90
60
20
40
ENDCHAR
STARTCHAR scommaaccent
ENCODING 537
SWIDTH 640 0
DWIDTH 6 0
BBX 4 6 1 -2
BITMAP
70
C0
30
E0
20
40
ENDCHAR
STARTCHAR Tcommaaccent
ENCODING 538
SWIDTH 640 0
DWIDTH 6 0
BBX 5 8 0 -2
BITMAP
F8
20
20
20
20
20
10
20
ENDCHAR
STARTCHAR tcommaaccent
ENCODING 539
SWIDTH 640 0
DWIDTH 6 0
BBX 4 8 1 -2
BITMAP
40
40
E0
40
50
20
20
40
ENDCHAR
STARTCHAR uni0258
ENCODING 600
SWIDTH 640 0
DWIDTH 6 0
BBX 4 4 1 0
BITMAP
60
D0
30
E0
ENDCHAR
STARTCHAR uni0259
ENCODING 601
SWIDTH 640 0
DWIDTH 6 0
BBX 4 4 1 0
BITMAP
E0
30
D0
60
ENDCHAR
STARTCHAR uni02BB
ENCODING 699
SWIDTH 640 0
DWIDTH 6 0
BBX 2 3 2 3
BITMAP
40
80
C0
ENDCHAR
STARTCHAR afii57929
ENCODING 700
SWIDTH 640 0
DWIDTH 6 0
BBX 2 3 2 3
BITMAP
C0
40
80
ENDCHAR
STARTCHAR afii64937
ENCODING 701
SWIDTH 640 0
DWIDTH 6 0
BBX 2 3 2 3
BITMAP
C0
80
40
ENDCHAR
STARTCHAR circumflex
ENCODING 710
SWIDTH 640 0
DWIDTH 6 0
BBX 3 2 1 5
BITMAP
40
A0
ENDCHAR
STARTCHAR caron
ENCODING 711
SWIDTH 640 0
DWIDTH 6 0
BBX 3 2 1 5
BITMAP
A0
40
ENDCHAR
STARTCHAR macron
ENCODING 713
SWIDTH 640 0
DWIDTH 6 0
BBX 3 1 1 5
BITMAP
E0
ENDCHAR
STARTCHAR breve
ENCODING 728
SWIDTH 640 0
DWIDTH 6 0
BBX 4 2 1 5
BITMAP
90
60
ENDCHAR
STARTCHAR dotaccent
ENCODING 729
SWIDTH 640 0
DWIDTH 6 0
BBX 1 1 2 5
BITMAP
80
ENDCHAR
STARTCHAR ring
ENCODING 730
SWIDTH 640 0
DWIDTH 6 0
BBX 3 3 1 4
BITMAP
40
A0
40
ENDCHAR
STARTCHAR ogonek
ENCODING 731
SWIDTH 640 0
DWIDTH 6 0
BBX 2 2 2 -2
BITMAP
80
40
ENDCHAR
STARTCHAR tilde
ENCODING 732
SWIDTH 640 0
DWIDTH 6 0
BBX 4 2 1 5
BITMAP
50
A0
ENDCHAR
STARTCHAR hungarumlaut
ENCODING 733
SWIDTH 640 0
DWIDTH 6 0
BBX 5 2 0 5
BITMAP
48
90
ENDCHAR
STARTCHAR gravecomb
ENCODING 768
SWIDTH 640 0
DWIDTH 6 0
BBX 2 2 1 5
BITMAP
80
40
ENDCHAR
STARTCHAR acutecomb
ENCODING 769
SWIDTH 640 0
DWIDTH 6 0
BBX 2 2 2 5
BITMAP
40
80
ENDCHAR
STARTCHAR uni0302
ENCODING 770
SWIDTH 640 0
DWIDTH 6 0
BBX 3 2 1 5
BITMAP
40
A0
ENDCHAR
STARTCHAR tildecomb
ENCODING 771
SWIDTH 640 0
DWIDTH 6 0
BBX 4 2 1 5
BITMAP
50
A0
ENDCHAR
STARTCHAR uni0304
ENCODING 772
SWIDTH 640 0
DWIDTH 6 0
BBX 3 1 1 6
BITMAP
E0
ENDCHAR
STARTCHAR uni0305
ENCODING 773
SWIDTH 640 0
DWIDTH 6 0
BBX 5 1 0 6
BITMAP
F8
ENDCHAR
STARTCHAR uni0306
ENCODING 774
SWIDTH 640 0
DWIDTH 6 0
BBX 5 2 0 5
BITMAP
88
70
ENDCHAR
STARTCHAR uni0307
ENCODING 775
SWIDTH 640 0
DWIDTH 6 0
BBX 1 1 2 6
BITMAP
80
ENDCHAR
STARTCHAR uni0308
ENCODING 776
SWIDTH 640 0
DWIDTH 6 0
BBX 3 1 1 6
BITMAP
A0
ENDCHAR
STARTCHAR hookabovecomb
ENCODING 777
SWIDTH 640 0
DWIDTH 6 0
BBX 3 3 1 4
BITMAP
C0
20
40
ENDCHAR
STARTCHAR uni030A
ENCODING 778
SWIDTH 640 0
DWIDTH 6 0
BBX 3 3 1 4
BITMAP
40
A0
40
ENDCHAR
STARTCHAR uni030B
ENCODING 779
SWIDTH 640 0
DWIDTH 6 0
BBX 5 2 0 5
BITMAP
48
90
ENDCHAR
STARTCHAR uni030C
ENCODING 780
SWIDTH 640 0
DWIDTH 6 0
BBX 3 2 1 5
BITMAP
A0
40
ENDCHAR
STARTCHAR uni030D
ENCODING 781
SWIDTH 640 0
DWIDTH 6 0
BBX 1 2 2 5
BITMAP
80
80
ENDCHAR
STARTCHAR uni030E
ENCODING 782
SWIDTH 640 0
DWIDTH 6 0
BBX 3 2 1 5
BITMAP
A0
A0
ENDCHAR
STARTCHAR uni030F
ENCODING 783
SWIDTH 640 0
DWIDTH 6 0
BBX 5 2 0 5
BITMAP
90
48
ENDCHAR
STARTCHAR uni0310
ENCODING 784
SWIDTH 640 0
DWIDTH 6 0
BBX 5 2 0 5
BITMAP
A8
70
ENDCHAR
STARTCHAR uni0311
ENCODING 785
SWIDTH 640 0
DWIDTH 6 0
BBX 5 2 0 5
BITMAP
70
88
ENDCHAR
STARTCHAR uni0312
ENCODING 786
SWIDTH 640 0
DWIDTH 6 0
BBX 2 3 2 4
BITMAP
40
80
C0
ENDCHAR
STARTCHAR uni0313
ENCODING 787
SWIDTH 640 0
DWIDTH 6 0
BBX 2 3 2 4
BITMAP
C0
40
80
ENDCHAR
STARTCHAR uni0314
ENCODING 788
SWIDTH 640 0
DWIDTH 6 0
BBX 2 3 2 4
BITMAP
C0
80
40
ENDCHAR
STARTCHAR dotbelowcomb
ENCODING 803
SWIDTH 640 0
DWIDTH 6 0
BBX 1 1 2 -2
BITMAP
80
ENDCHAR
STARTCHAR uni0324
ENCODING 804
SWIDTH 640 0
DWIDTH 6 0
BBX 3 1 1 -2
BITMAP
A0
ENDCHAR
STARTCHAR uni0374
ENCODING 884
SWIDTH 640 0
DWIDTH 6 0
BBX 2 2 2 5
BITMAP
40
80
ENDCHAR
STARTCHAR uni0375
ENCODING 885
SWIDTH 640 0
DWIDTH 6 0
BBX 2 2 2 -2
BITMAP
40
80
ENDCHAR
STARTCHAR uni037A
ENCODING 890
SWIDTH 640 0
DWIDTH 6 0
BBX 2 2 2 -2
BITMAP
80
C0
ENDCHAR
STARTCHAR uni037E
ENCODING 894
SWIDTH 640 0
DWIDTH 6 0
BBX 2 7 2 -2
BITMAP
C0
C0
00
C0
40
40
80
ENDCHAR
STARTCHAR tonos
ENCODING 900
SWIDTH 640 0
DWIDTH 6 0
BBX 1 2 2 5
BITMAP
80
80
ENDCHAR
STARTCHAR dieresistonos
ENCODING 901
SWIDTH 640 0
DWIDTH 6 0
BBX 5 2 0 5
BITMAP
20
A8
ENDCHAR
STARTCHAR Alphatonos
ENCODING 902
SWIDTH 640 0
DWIDTH 6 0
BBX 5 7 0 0
BITMAP
80
B0
48
48
78
48
48
ENDCHAR
STARTCHAR anoteleia
ENCODING 903
SWIDTH 640 0
DWIDTH 6 0
BBX 1 1 2 2
BITMAP
80
ENDCHAR
STARTCHAR Epsilontonos
ENCODING 904
SWIDTH 640 0
DWIDTH 6 0
BBX 5 7 0 0
BITMAP
80
B8
20
30
20
20
38
ENDCHAR
STARTCHAR Etatonos
ENCODING 905
SWIDTH 640 0
DWIDTH 6 0
BBX 5 7 0 0
BITMAP
80
A8
28
38
28
28
28
ENDCHAR
STARTCHAR Iotatonos
ENCODING 906
SWIDTH 640 0
DWIDTH 6 0
BBX 5 7 0 0
BITMAP
80
B8
10
10
10
10
38
ENDCHAR
STARTCHAR Omicrontonos
ENCODING 908
SWIDTH 640 0
DWIDTH 6 0
BBX 5 7 0 0
BITMAP
80
B0
48
48
48
48
30
ENDCHAR
STARTCHAR Upsilontonos
ENCODING 910
SWIDTH 640 0
DWIDTH 6 0
BBX 5 7 0 0
BITMAP
80
A8
28
28
10
10
10
ENDCHAR
STARTCHAR Omegatonos
ENCODING 911
SWIDTH 640 0
DWIDTH 6 0
BBX 5 7 0 0
BITMAP
80
B0
48
48
48
30
78
ENDCHAR
STARTCHAR iotadieresistonos
ENCODING 912
SWIDTH 640 0
DWIDTH 6 0
BBX 5 7 0 0
BITMAP
20
A8
00
20
20
20
10
ENDCHAR
STARTCHAR Alpha
ENCODING 913
SWIDTH 640 0
DWIDTH 6 0
BBX 5 6 0 0
BITMAP
20
50
88
F8
88
88
ENDCHAR
STARTCHAR Beta
ENCODING 914
SWIDTH 640 0
DWIDTH 6 0
BBX 5 6 0 0
BITMAP
F0
88
F0
88
88
F0
ENDCHAR
STARTCHAR Gamma
ENCODING 915
SWIDTH 640 0
DWIDTH 6 0
BBX 4 6 1 0
BITMAP
F0
80
80
80
80
80
ENDCHAR
STARTCHAR Delta
ENCODING 916
SWIDTH 640 0
DWIDTH 6 0
BBX 5 6 0 0
BITMAP
20
20
50
50
88
F8
ENDCHAR
STARTCHAR Epsilon
ENCODING 917
SWIDTH 640 0
DWIDTH 6 0
BBX 4 6 1 0
BITMAP
F0
80
E0
80
80
F0
ENDCHAR
STARTCHAR Zeta
ENCODING 918
SWIDTH 640 0
DWIDTH 6 0
BBX 4 6 1 0
BITMAP
F0
10
20
40
80
F0
ENDCHAR
STARTCHAR Eta
ENCODING 919
SWIDTH 640 0
DWIDTH 6 0
BBX 4 6 1 0
BITMAP
90
90
F0
90
90
90
ENDCHAR
STARTCHAR Theta
ENCODING 920
SWIDTH 640 0
DWIDTH 6 0
BBX 5 6 0 0
BITMAP
70
88
F8
88
88
70
ENDCHAR
STARTCHAR Iota
ENCODING 921
SWIDTH 640 0
DWIDTH 6 0
BBX 3 6 1 0
BITMAP
E0
40
40
40
40
E0
ENDCHAR
STARTCHAR Kappa
ENCODING 922
SWIDTH 640 0
DWIDTH 6 0
BBX 4 6 1 0
BITMAP
90
A0
C0
A0
90
90
ENDCHAR
STARTCHAR Lambda
ENCODING 923
SWIDTH 640 0
DWIDTH 6 0
BBX 5 6 0 0
BITMAP
20
20
50
50
88
88
ENDCHAR
STARTCHAR Mu
ENCODING 924
SWIDTH 640 0
DWIDTH 6 0
BBX 5 6 0 0
BITMAP
88
D8
A8
A8
88
88
ENDCHAR
STARTCHAR Nu
ENCODING 925
SWIDTH 640 0
DWIDTH 6 0
BBX 4 6 1 0
BITMAP
90
D0
B0
90
90
90
ENDCHAR
STARTCHAR Xi
ENCODING 926
SWIDTH 640 0
DWIDTH 6 0
BBX 4 6 1 0
BITMAP
F0
00
60
00
00
F0
ENDCHAR
STARTCHAR Omicron
ENCODING 927
SWIDTH 640 0
DWIDTH 6 0
BBX 5 6 0 0
BITMAP
70
88
88
88
88
70
ENDCHAR
STARTCHAR Pi
ENCODING 928
SWIDTH 640 0
DWIDTH 6 0
BBX 4 6 1 0
BITMAP
F0
90
90
90
90
90
ENDCHAR
STARTCHAR Rho
ENCODING 929
SWIDTH 640 0
DWIDTH 6 0
BBX 4 6 1 0
BITMAP
E0
90
90
E0
80
80
ENDCHAR
STARTCHAR Sigma
ENCODING 931
SWIDTH 640 0
DWIDTH 6 0
BBX 4 6 1 0
BITMAP
F0
80
40
40
80
F0
ENDCHAR
STARTCHAR Tau
ENCODING 932
SWIDTH 640 0
DWIDTH 6 0
BBX 5 6 0 0
BITMAP
F8
20
20
20
20
20
ENDCHAR
STARTCHAR Upsilon
ENCODING 933
SWIDTH 640 0
DWIDTH 6 0
BBX 5 6 0 0
BITMAP
88
88
50
20
20
20
ENDCHAR
STARTCHAR Phi
ENCODING 934
SWIDTH 640 0
DWIDTH 6 0
BBX 5 6 0 0
BITMAP
20
70
A8
A8
70
20
ENDCHAR
STARTCHAR Chi
ENCODING 935
SWIDTH 640 0
DWIDTH 6 0
BBX 5 6 0 0
BITMAP
88
50
20
20
50
88
ENDCHAR
STARTCHAR Psi
ENCODING 936
SWIDTH 640 0
DWIDTH 6 0
BBX 5 6 0 0
BITMAP
A8
A8
A8
70
20
20
ENDCHAR
STARTCHAR Omega
ENCODING 937
SWIDTH 640 0
DWIDTH 6 0
BBX 5 6 0 0
BITMAP
70
88
88
88
50
D8
ENDCHAR
STARTCHAR Iotadieresis
ENCODING 938
SWIDTH 640 0
DWIDTH 6 0
BBX 3 7 1 0
BITMAP
A0
00
E0
40
40
40
E0
ENDCHAR
STARTCHAR Upsilondieresis
ENCODING 939
SWIDTH 640 0
DWIDTH 6 0
BBX 5 7 0 0
BITMAP
50
00
88
50
20
20
20
ENDCHAR
STARTCHAR alphatonos
ENCODING 940
SWIDTH 640 0
DWIDTH 6 0
BBX 4 7 1 0
BITMAP
10
20
00
70
90
90
70
ENDCHAR
STARTCHAR epsilontonos
ENCODING 941
SWIDTH 640 0
DWIDTH 6 0
BBX 4 7 1 0
BITMAP
10
20
00
60
B0
C0
70
ENDCHAR
STARTCHAR etatonos
ENCODING 942
SWIDTH 640 0
DWIDTH 6 0
BBX 5 9 0 -2
BITMAP
10
20
00
B0
C8
88
88
08
08
ENDCHAR
STARTCHAR iotatonos
ENCODING 943
SWIDTH 640 0
DWIDTH 6 0
BBX 3 7 1 0
BITMAP
40
80
00
80
80
A0
40
ENDCHAR
STARTCHAR upsilondieresistonos
ENCODING 944
SWIDTH 640 0
DWIDTH 6 0
BBX 5 7 0 0
BITMAP
20
A8
00
88
88
88
70
ENDCHAR
STARTCHAR alpha
ENCODING 945
SWIDTH 640 0
DWIDTH 6 0
BBX 4 4 1 0
BITMAP
70
90
90
70
ENDCHAR
STARTCHAR beta
ENCODING 946
SWIDTH 640 0
DWIDTH 6 0
BBX 4 8 1 -2
BITMAP
60
90
E0
90
90
E0
80
80
ENDCHAR
STARTCHAR gamma
ENCODING 947
SWIDTH 640 0
DWIDTH 6 0
BBX 5 6 0 -2
BITMAP
88
88
50
50
20
20
ENDCHAR
STARTCHAR delta
ENCODING 948
SWIDTH 640 0
DWIDTH 6 0
BBX 5 6 0 0
BITMAP
70
80
70
88
88
70
ENDCHAR
STARTCHAR epsilon
ENCODING 949
SWIDTH 640 0
DWIDTH 6 0
BBX 4 4 1 0
BITMAP
60
B0
C0
70
ENDCHAR
STARTCHAR zeta
ENCODING 950
SWIDTH 640 0
DWIDTH 6 0
BBX 5 7 0 -1
BITMAP
F8
20
40
40
30
08
30
ENDCHAR
STARTCHAR eta
ENCODING 951
SWIDTH 640 0
DWIDTH 6 0
BBX 5 6 0 -2
BITMAP
B0
C8
88
88
08
08
ENDCHAR
STARTCHAR theta
ENCODING 952
SWIDTH 640 0
DWIDTH 6 0
BBX 4 6 1 0
BITMAP
60
90
F0
90
90
60
ENDCHAR
STARTCHAR iota
ENCODING 953
SWIDTH 640 0
DWIDTH 6 0
BBX 3 4 1 0
BITMAP
80
80
A0
40
ENDCHAR
STARTCHAR kappa
ENCODING 954
SWIDTH 640 0
DWIDTH 6 0
BBX 4 4 1 0
BITMAP
90
A0
C0
B0
ENDCHAR
STARTCHAR lambda
ENCODING 955
SWIDTH 640 0
DWIDTH 6 0
BBX 5 6 0 0
BITMAP
70
88
08
68
98
88
ENDCHAR
STARTCHAR mu
ENCODING 956
SWIDTH 640 0
DWIDTH 6 0
BBX 5 6 0 -2
BITMAP
88
88
98
E8
80
80
ENDCHAR
STARTCHAR nu
ENCODING 957
SWIDTH 640 0
DWIDTH 6 0
BBX 5 4 0 0
BITMAP
88
88
50
20
ENDCHAR
STARTCHAR xi
ENCODING 958
SWIDTH 640 0
DWIDTH 6 0
BBX 5 8 0 -2
BITMAP
F8
20
40
70
80
70
08
10
ENDCHAR
STARTCHAR omicron
ENCODING 959
SWIDTH 640 0
DWIDTH 6 0
BBX 4 4 1 0
BITMAP
60
90
90
60
ENDCHAR
STARTCHAR pi
ENCODING 960
SWIDTH 640 0
DWIDTH 6 0
BBX 5 4 0 0
BITMAP
F8
50
50
50
ENDCHAR
STARTCHAR rho
ENCODING 961
SWIDTH 640 0
DWIDTH 6 0
BBX 5 6 0 -2
BITMAP
70
88
88
F0
80
80
ENDCHAR
STARTCHAR sigma1
ENCODING 962
SWIDTH 640 0
DWIDTH 6 0
BBX 5 6 0 -2
BITMAP
70
88
80
70
08
30
ENDCHAR
STARTCHAR sigma
ENCODING 963
SWIDTH 640 0
DWIDTH 6 0
BBX 5 4 0 0
BITMAP
78
90
88
70
ENDCHAR
STARTCHAR tau
ENCODING 964
SWIDTH 640 0
DWIDTH 6 0
BBX 4 4 1 0
BITMAP
F0
40
50
20
ENDCHAR
STARTCHAR upsilon
ENCODING 965
SWIDTH 640 0
DWIDTH 6 0
BBX 5 4 0 0
BITMAP
88
88
88
70
ENDCHAR
STARTCHAR phi
ENCODING 966
SWIDTH 640 0
DWIDTH 6 0
BBX 5 6 0 -2
BITMAP
90
A8
A8
70
20
20
ENDCHAR
STARTCHAR chi
ENCODING 967
SWIDTH 640 0
DWIDTH 6 0
BBX 5 6 0 -2
BITMAP
88
50
20
50
88
88
ENDCHAR
STARTCHAR psi
ENCODING 968
SWIDTH 640 0
DWIDTH 6 0
BBX 5 6 0 -2
BITMAP
A8
A8
A8
70
20
20
ENDCHAR
STARTCHAR omega
ENCODING 969
SWIDTH 640 0
DWIDTH 6 0
BBX 5 4 0 0
BITMAP
50
88
A8
50
ENDCHAR
STARTCHAR iotadieresis
ENCODING 970
SWIDTH 640 0
DWIDTH 6 0
BBX 4 6 1 0
BITMAP
A0
00
40
40
50
20
ENDCHAR
STARTCHAR upsilondieresis
ENCODING 971
SWIDTH 640 0
DWIDTH 6 0
BBX 5 6 0 0
BITMAP
50
00
88
88
88
70
ENDCHAR
STARTCHAR omicrontonos
ENCODING 972
SWIDTH 640 0
DWIDTH 6 0
BBX 5 7 0 0
BITMAP
10
20
00
70
88
88
70
ENDCHAR
STARTCHAR upsilontonos
ENCODING 973
SWIDTH 640 0
DWIDTH 6 0
BBX 5 7 0 0
BITMAP
10
20
00
88
88
88
70
ENDCHAR
STARTCHAR omegatonos
ENCODING 974
SWIDTH 640 0
DWIDTH 6 0
BBX 5 7 0 0
BITMAP
10
20
00
50
88
A8
50
ENDCHAR
STARTCHAR uni03D0
ENCODING 976
SWIDTH 640 0
DWIDTH 6 0
BBX 5 6 0 0
BITMAP
60
90
90
F0
88
70
ENDCHAR
STARTCHAR theta1
ENCODING 977
SWIDTH 640 0
DWIDTH 6 0
BBX 5 6 0 0
BITMAP
20
50
38
D0
50
20
ENDCHAR
STARTCHAR Upsilon1
ENCODING 978
SWIDTH 640 0
DWIDTH 6 0
BBX 5 6 0 0
BITMAP
90
A8
40
40
40
40
ENDCHAR
STARTCHAR uni03D3
ENCODING 979
SWIDTH 640 0
DWIDTH 6 0
BBX 5 6 0 0
BITMAP
D0
28
60
A0
20
20
ENDCHAR
STARTCHAR uni03D4
ENCODING 980
SWIDTH 640 0
DWIDTH 6 0
BBX 5 7 0 0
BITMAP
A0
00
90
A8
40
40
40
ENDCHAR
STARTCHAR phi1
ENCODING 981
SWIDTH 640 0
DWIDTH 6 0
BBX 5 8 0 -2
BITMAP
20
20
70
A8
A8
70
20
20
ENDCHAR
STARTCHAR omega1
ENCODING 982
SWIDTH 640 0
DWIDTH 6 0
BBX 5 4 0 0
BITMAP
F8
88
A8
50
ENDCHAR
STARTCHAR uni03D7
ENCODING 983
SWIDTH 640 0
DWIDTH 6 0
BBX 5 9 0 -2
BITMAP
10
20
00
88
48
70
88
08
30
ENDCHAR
STARTCHAR uni03DA
ENCODING 986
SWIDTH 640 0
DWIDTH 6 0
BBX 5 8 0 -2
BITMAP
30
48
80
80
80
70
08
10
ENDCHAR
STARTCHAR uni03DB
ENCODING 987
SWIDTH 640 0
DWIDTH 6 0
BBX 5 7 0 -2
BITMAP
08
70
80
80
70
08
30
ENDCHAR
STARTCHAR uni03DC
ENCODING 988
SWIDTH 640 0
DWIDTH 6 0
BBX 5 6 0 0
BITMAP
F8
80
80
E0
80
80
ENDCHAR
STARTCHAR uni03DD
ENCODING 989
SWIDTH 640 0
DWIDTH 6 0
BBX 4 6 1 -2
BITMAP
F0
80
80
E0
80
80
ENDCHAR
STARTCHAR uni03DE
ENCODING 990
SWIDTH 640 0
DWIDTH 6 0
BBX 5 6 0 0
BITMAP
80
88
98
A8
C8
08
ENDCHAR
STARTCHAR uni03DF
ENCODING 991
SWIDTH 640 0
DWIDTH 6 0
BBX 5 8 0 -2
BITMAP
20
40
80
F8
08
10
20
20
ENDCHAR
STARTCHAR uni03E0
ENCODING 992
SWIDTH 640 0
DWIDTH 6 0
BBX 5 6 0 0
BITMAP
20
50
50
98
A8
A8
ENDCHAR
STARTCHAR uni03E1
ENCODING 993
SWIDTH 640 0
DWIDTH 6 0
BBX 5 8 0 -2
BITMAP
E0
10
30
48
18
28
08
08
ENDCHAR
STARTCHAR uni03E2
ENCODING 994
SWIDTH 640 0
DWIDTH 6 0
BBX 5 7 0 -1
BITMAP
A8
A8
A8
A8
78
08
F0
ENDCHAR
STARTCHAR uni03E3
ENCODING 995
SWIDTH 640 0
DWIDTH 6 0
BBX 5 5 0 -1
BITMAP
A8
A8
78
08
F0
ENDCHAR
STARTCHAR uni03E4
ENCODING 996
SWIDTH 640 0
DWIDTH 6 0
BBX 5 6 0 0
BITMAP
48
A8
88
78
08
08
ENDCHAR
STARTCHAR uni03E5
ENCODING 997
SWIDTH 640 0
DWIDTH 6 0
BBX 4 4 1 0
BITMAP
50
90
70
10
ENDCHAR
STARTCHAR uni03E6
ENCODING 998
SWIDTH 640 0
DWIDTH 6 0
BBX 5 7 0 -1
BITMAP
80
80
B0
C8
88
08
F0
ENDCHAR
STARTCHAR uni03E7
ENCODING 999
SWIDTH 640 0
DWIDTH 6 0
BBX 5 6 0 0
BITMAP
20
70
A8
48
08
F0
ENDCHAR
STARTCHAR uni03E8
ENCODING 1000
SWIDTH 640 0
DWIDTH 6 0
BBX 5 6 0 0
BITMAP
70
88
08
70
80
78
ENDCHAR
STARTCHAR uni03E9
ENCODING 1001
SWIDTH 640 0
DWIDTH 6 0
BBX 5 5 0 0
BITMAP
70
88
70
80
78
ENDCHAR
STARTCHAR uni03EA
ENCODING 1002
SWIDTH 640 0
DWIDTH 6 0
BBX 5 6 0 0
BITMAP
50
A8
20
50
88
F8
ENDCHAR
STARTCHAR uni03EB
ENCODING 1003
SWIDTH 640 0
DWIDTH 6 0
BBX 5 5 0 0
BITMAP
50
A8
20
50
70
ENDCHAR
STARTCHAR uni03EC
ENCODING 1004
SWIDTH 640 0
DWIDTH 6 0
BBX 5 6 0 0
BITMAP
08
70
80
F0
88
70
ENDCHAR
STARTCHAR uni03ED
ENCODING 1005
SWIDTH 640 0
DWIDTH 6 0
BBX 5 5 0 0
BITMAP
08
70
80
D8
70
ENDCHAR
STARTCHAR uni03EE
ENCODING 1006
SWIDTH 640 0
DWIDTH 6 0
BBX 5 6 0 0
BITMAP
70
20
F8
A8
20
70
ENDCHAR
STARTCHAR uni03EF
ENCODING 1007
SWIDTH 640 0
DWIDTH 6 0
BBX 5 8 0 -2
BITMAP
20
30
20
F8
A0
20
60
20
ENDCHAR
STARTCHAR uni03F0
ENCODING 1008
SWIDTH 640 0
DWIDTH 6 0
BBX 5 4 0 0
BITMAP
88
48
70
88
ENDCHAR
STARTCHAR uni03F1
ENCODING 1009
SWIDTH 640 0
DWIDTH 6 0
BBX 5 6 0 -2
BITMAP
70
88
88
F0
80
78
ENDCHAR
STARTCHAR uni03F2
ENCODING 1010
SWIDTH 640 0
DWIDTH 6 0
BBX 5 4 0 0
BITMAP
70
88
80
78
ENDCHAR
STARTCHAR uni03F3
ENCODING 1011
SWIDTH 640 0
DWIDTH 6 0
BBX 4 8 1 -2
BITMAP
10
00
30
10
10
90
90
60
ENDCHAR
STARTCHAR uni03F4
ENCODING 1012
SWIDTH 640 0
DWIDTH 6 0
BBX 5 6 0 0
BITMAP
70
88
F8
88
88
70
ENDCHAR
STARTCHAR uni03F5
ENCODING 1013
SWIDTH 640 0
DWIDTH 6 0
BBX 4 4 1 0
BITMAP
70
E0
80
70
ENDCHAR
STARTCHAR uni0400
ENCODING 1024
SWIDTH 640 0
DWIDTH 6 0
BBX 4 7 1 0
BITMAP
40
20
F0
80
E0
80
F0
ENDCHAR
STARTCHAR afii10023
ENCODING 1025
SWIDTH 640 0
DWIDTH 6 0
BBX 4 7 1 0
BITMAP
50
00
F0
80
E0
80
F0
ENDCHAR
STARTCHAR afii10051
ENCODING 1026
SWIDTH 640 0
DWIDTH 6 0
BBX 5 8 0 -2
BITMAP
F8
20
30
28
28
28
08
10
ENDCHAR
STARTCHAR afii10052
ENCODING 1027
SWIDTH 640 0
DWIDTH 6 0
BBX 4 7 1 0
BITMAP
20
40
F0
80
80
80
80
ENDCHAR
STARTCHAR afii10053
ENCODING 1028
SWIDTH 640 0
DWIDTH 6 0
BBX 5 6 0 0
BITMAP
70
88
E0
80
88
70
ENDCHAR
STARTCHAR afii10054
ENCODING 1029
SWIDTH 640 0
DWIDTH 6 0
BBX 4 6 1 0
BITMAP
60
90
40
20
90
60
ENDCHAR
STARTCHAR afii10055
ENCODING 1030
SWIDTH 640 0
DWIDTH 6 0
BBX 3 6 1 0
BITMAP
E0
40
40
40
40
E0
ENDCHAR
STARTCHAR afii10056
ENCODING 1031
SWIDTH 640 0
DWIDTH 6 0
BBX 3 7 1 0
BITMAP
A0
00
E0
40
40
40
E0
ENDCHAR
STARTCHAR afii10057
ENCODING 1032
SWIDTH 640 0
DWIDTH 6 0
BBX 5 6 0 0
BITMAP
38
10
10
10
90
60
ENDCHAR
STARTCHAR afii10058
ENCODING 1033
SWIDTH 640 0
DWIDTH 6 0
BBX 5 6 0 0
BITMAP
60
A0
B0
A8
A8
B0
ENDCHAR
STARTCHAR afii10059
ENCODING 1034
SWIDTH 640 0
DWIDTH 6 0
BBX 5 6 0 0
BITMAP
A0
A0
F0
A8
A8
B0
ENDCHAR
STARTCHAR afii10060
ENCODING 1035
SWIDTH 640 0
DWIDTH 6 0
BBX 5 6 0 0
BITMAP
F8
20
30
28
28
28
ENDCHAR
STARTCHAR afii10061
ENCODING 1036
SWIDTH 640 0
DWIDTH 6 0
BBX 4 7 1 0
BITMAP
10
20
90
A0
C0
A0
90
ENDCHAR
STARTCHAR uni040D
ENCODING 1037
SWIDTH 640 0
DWIDTH 6 0
BBX 5 7 0 0
BITMAP
40
20
88
98
A8
C8
88
ENDCHAR
STARTCHAR afii10062
ENCODING 1038
SWIDTH 640 0
DWIDTH 6 0
BBX 5 7 0 0
BITMAP
48
30
88
88
78
08
70
ENDCHAR
STARTCHAR afii10145
ENCODING 1039
SWIDTH 640 0
DWIDTH 6 0
BBX 5 8 0 -2
BITMAP
88
88
88
88
88
F8
20
20
ENDCHAR
STARTCHAR afii10017
ENCODING 1040
SWIDTH 640 0
DWIDTH 6 0
BBX 5 6 0 0
BITMAP
20
50
88
F8
88
88
ENDCHAR
STARTCHAR afii10018
ENCODING 1041
SWIDTH 640 0
DWIDTH 6 0
BBX 5 6 0 0
BITMAP
F0
80
F0
88
88
F0
ENDCHAR
STARTCHAR afii10019
ENCODING 1042
SWIDTH 640 0
DWIDTH 6 0
BBX 5 6 0 0
BITMAP
F0
88
F0
88
88
F0
ENDCHAR
STARTCHAR afii10020
ENCODING 1043
SWIDTH 640 0
DWIDTH 6 0
BBX 4 6 1 0
BITMAP
F0
80
80
80
80
80
ENDCHAR
STARTCHAR afii10021
ENCODING 1044
SWIDTH 640 0
DWIDTH 6 0
BBX 5 7 0 -1
BITMAP
30
50
50
50
50
F8
88
ENDCHAR
STARTCHAR afii10022
ENCODING 1045
SWIDTH 640 0
DWIDTH 6 0
BBX 4 6 1 0
BITMAP
F0
80
E0
80
80
F0
ENDCHAR
STARTCHAR afii10024
ENCODING 1046
SWIDTH 640 0
DWIDTH 6 0
BBX 5 6 0 0
BITMAP
A8
A8
70
A8
A8
A8
ENDCHAR
STARTCHAR afii10025
ENCODING 1047
SWIDTH 640 0
DWIDTH 6 0
BBX 5 6 0 0
BITMAP
70
88
30
08
88
70
ENDCHAR
STARTCHAR afii10026
ENCODING 1048
SWIDTH 640 0
DWIDTH 6 0
BBX 4 6 1 0
BITMAP
90
B0
D0
90
90
90
ENDCHAR
STARTCHAR afii10027
ENCODING 1049
SWIDTH 640 0
DWIDTH 6 0
BBX 4 7 1 0
BITMAP
90
60
90
B0
D0
90
90
ENDCHAR
STARTCHAR afii10028
ENCODING 1050
SWIDTH 640 0
DWIDTH 6 0
BBX 4 6 1 0
BITMAP
90
A0
C0
A0
90
90
ENDCHAR
STARTCHAR afii10029
ENCODING 1051
SWIDTH 640 0
DWIDTH 6 0
BBX 5 6 0 0
BITMAP
38
48
48
48
48
88
ENDCHAR
STARTCHAR afii10030
ENCODING 1052
SWIDTH 640 0
DWIDTH 6 0
BBX 5 6 0 0
BITMAP
88
D8
A8
A8
88
88
ENDCHAR
STARTCHAR afii10031
ENCODING 1053
SWIDTH 640 0
DWIDTH 6 0
BBX 4 6 1 0
BITMAP
90
90
F0
90
90
90
ENDCHAR
STARTCHAR afii10032
ENCODING 1054
SWIDTH 640 0
DWIDTH 6 0
BBX 5 6 0 0
BITMAP
70
88
88
88
88
70
ENDCHAR
STARTCHAR afii10033
ENCODING 1055
SWIDTH 640 0
DWIDTH 6 0
BBX 5 6 0 0
BITMAP
F8
88
88
88
88
88
ENDCHAR
STARTCHAR afii10034
ENCODING 1056
SWIDTH 640 0
DWIDTH 6 0
BBX 4 6 1 0
BITMAP
E0
90
90
E0
80
80
ENDCHAR
STARTCHAR afii10035
ENCODING 1057
SWIDTH 640 0
DWIDTH 6 0
BBX 4 6 1 0
BITMAP
60
90
80
80
90
60
ENDCHAR
STARTCHAR afii10036
ENCODING 1058
SWIDTH 640 0
DWIDTH 6 0
BBX 5 6 0 0
BITMAP
F8
20
20
20
20
20
ENDCHAR
STARTCHAR afii10037
ENCODING 1059
SWIDTH 640 0
DWIDTH 6 0
BBX 5 6 0 0
BITMAP
88
88
88
78
08
70
ENDCHAR
STARTCHAR afii10038
ENCODING 1060
SWIDTH 640 0
DWIDTH 6 0
BBX 5 6 0 0
BITMAP
20
70
A8
A8
70
20
ENDCHAR
STARTCHAR afii10039
ENCODING 1061
SWIDTH 640 0
DWIDTH 6 0
BBX 5 6 0 0
BITMAP
88
50
20
20
50
88
ENDCHAR
STARTCHAR afii10040
ENCODING 1062
SWIDTH 640 0
DWIDTH 6 0
BBX 5 8 0 -2
BITMAP
90
90
90
90
90
F8
08
10
ENDCHAR
STARTCHAR afii10041
ENCODING 1063
SWIDTH 640 0
DWIDTH 6 0
BBX 5 6 0 0
BITMAP
88
88
88
78
08
08
ENDCHAR
STARTCHAR afii10042
ENCODING 1064
SWIDTH 640 0
DWIDTH 6 0
BBX 5 6 0 0
BITMAP
A8
A8
A8
A8
A8
F8
ENDCHAR
STARTCHAR afii10043
ENCODING 1065
SWIDTH 640 0
DWIDTH 6 0
BBX 5 8 0 -2
BITMAP
A8
A8
A8
A8
A8
F8
08
10
ENDCHAR
STARTCHAR afii10044
ENCODING 1066
SWIDTH 640 0
DWIDTH 6 0
BBX 5 6 0 0
BITMAP
C0
40
70
48
48
70
ENDCHAR
STARTCHAR afii10045
ENCODING 1067
SWIDTH 640 0
DWIDTH 6 0
BBX 5 6 0 0
BITMAP
88
88
E8
98
98
E8
ENDCHAR
STARTCHAR afii10046
ENCODING 1068
SWIDTH 640 0
DWIDTH 6 0
BBX 4 6 1 0
BITMAP
80
80
E0
90
90
E0
ENDCHAR
STARTCHAR afii10047
ENCODING 1069
SWIDTH 640 0
DWIDTH 6 0
BBX 5 6 0 0
BITMAP
70
88
38
08
88
70
ENDCHAR
STARTCHAR afii10048
ENCODING 1070
SWIDTH 640 0
DWIDTH 6 0
BBX 5 6 0 0
BITMAP
90
A8
E8
E8
A8
90
ENDCHAR
STARTCHAR afii10049
ENCODING 1071
SWIDTH 640 0
DWIDTH 6 0
BBX 4 6 1 0
BITMAP
70
90
90
70
90
90
ENDCHAR
STARTCHAR afii10065
ENCODING 1072
SWIDTH 640 0
DWIDTH 6 0
BBX 5 4 0 0
BITMAP
70
90
90
78
ENDCHAR
STARTCHAR afii10066
ENCODING 1073
SWIDTH 640 0
DWIDTH 6 0
BBX 4 7 1 0
BITMAP
10
60
80
E0
90
90
60
ENDCHAR
STARTCHAR afii10067
ENCODING 1074
SWIDTH 640 0
DWIDTH 6 0
BBX 4 4 1 0
BITMAP
C0
A0
D0
E0
ENDCHAR
STARTCHAR afii10068
ENCODING 1075
SWIDTH 640 0
DWIDTH 6 0
BBX 4 4 1 0
BITMAP
F0
80
80
80
ENDCHAR
STARTCHAR afii10069
ENCODING 1076
SWIDTH 640 0
DWIDTH 6 0
BBX 5 5 0 -1
BITMAP
30
50
50
F8
88
ENDCHAR
STARTCHAR afii10070
ENCODING 1077
SWIDTH 640 0
DWIDTH 6 0
BBX 4 4 0 0
BITMAP
60
90
E0
70
ENDCHAR
STARTCHAR afii10072
ENCODING 1078
SWIDTH 640 0
DWIDTH 6 0
BBX 5 4 0 0
BITMAP
A8
70
70
A8
ENDCHAR
STARTCHAR afii10073
ENCODING 1079
SWIDTH 640 0
DWIDTH 6 0
BBX 4 4 1 0
BITMAP
60
50
30
E0
ENDCHAR
STARTCHAR afii10074
ENCODING 1080
SWIDTH 640 0
DWIDTH 6 0
BBX 5 4 0 0
BITMAP
88
98
A8
C8
ENDCHAR
STARTCHAR afii10075
ENCODING 1081
SWIDTH 640 0
DWIDTH 6 0
BBX 5 7 0 0
BITMAP
88
70
00
88
98
A8
C8
ENDCHAR
STARTCHAR afii10076
ENCODING 1082
SWIDTH 640 0
DWIDTH 6 0
BBX 4 4 1 0
BITMAP
90
A0
E0
90
ENDCHAR
STARTCHAR afii10077
ENCODING 1083
SWIDTH 640 0
DWIDTH 6 0
BBX 5 4 0 0
BITMAP
38
48
48
88
ENDCHAR
STARTCHAR afii10078
ENCODING 1084
SWIDTH 640 0
DWIDTH 6 0
BBX 5 4 0 0
BITMAP
88
D8
A8
88
ENDCHAR
STARTCHAR afii10079
ENCODING 1085
SWIDTH 640 0
DWIDTH 6 0
BBX 5 4 0 0
BITMAP
88
F8
88
88
ENDCHAR
STARTCHAR afii10080
ENCODING 1086
SWIDTH 640 0
DWIDTH 6 0
BBX 5 4 0 0
BITMAP
70
88
88
70
ENDCHAR
STARTCHAR afii10081
ENCODING 1087
SWIDTH 640 0
DWIDTH 6 0
BBX 5 4 0 0
BITMAP
F8
88
88
88
ENDCHAR
STARTCHAR afii10082
ENCODING 1088
SWIDTH 640 0
DWIDTH 6 0
BBX 5 6 0 -2
BITMAP
F0
88
88
F0
80
80
ENDCHAR
STARTCHAR afii10083
ENCODING 1089
SWIDTH 640 0
DWIDTH 6 0
BBX 5 4 0 0
BITMAP
70
88
80
78
ENDCHAR
STARTCHAR afii10084
ENCODING 1090
SWIDTH 640 0
DWIDTH 6 0
BBX 5 4 0 0
BITMAP
F8
20
20
20
ENDCHAR
STARTCHAR afii10085
ENCODING 1091
SWIDTH 640 0
DWIDTH 6 0
BBX 5 6 0 -2
BITMAP
88
88
88
78
08
70
ENDCHAR
STARTCHAR afii10086
ENCODING 1092
SWIDTH 640 0
DWIDTH 6 0
BBX 5 8 0 -2
BITMAP
20
20
70
A8
A8
70
20
20
ENDCHAR
STARTCHAR afii10087
ENCODING 1093
SWIDTH 640 0
DWIDTH 6 0
BBX 4 4 1 0
BITMAP
90
60
60
90
ENDCHAR
STARTCHAR afii10088
ENCODING 1094
SWIDTH 640 0
DWIDTH 6 0
BBX 5 6 0 -2
BITMAP
90
90
90
F8
08
10
ENDCHAR
STARTCHAR afii10089
ENCODING 1095
SWIDTH 640 0
DWIDTH 6 0
BBX 5 4 0 0
BITMAP
88
88
78
08
ENDCHAR
STARTCHAR afii10090
ENCODING 1096
SWIDTH 640 0
DWIDTH 6 0
BBX 5 4 0 0
BITMAP
A8
A8
A8
F8
ENDCHAR
STARTCHAR afii10091
ENCODING 1097
SWIDTH 640 0
DWIDTH 6 0
BBX 5 6 0 -2
BITMAP
A8
A8
A8
F8
08
10
ENDCHAR
STARTCHAR afii10092
ENCODING 1098
SWIDTH 640 0
DWIDTH 6 0
BBX 5 4 0 0
BITMAP
C0
70
48
70
ENDCHAR
STARTCHAR afii10093
ENCODING 1099
SWIDTH 640 0
DWIDTH 6 0
BBX 5 4 0 0
BITMAP
88
E8
98
E8
ENDCHAR
STARTCHAR afii10094
ENCODING 1100
SWIDTH 640 0
DWIDTH 6 0
BBX 4 4 1 0
BITMAP
80
E0
90
E0
ENDCHAR
STARTCHAR afii10095
ENCODING 1101
SWIDTH 640 0
DWIDTH 6 0
BBX 4 4 0 0
BITMAP
E0
50
30
E0
ENDCHAR
STARTCHAR afii10096
ENCODING 1102
SWIDTH 640 0
DWIDTH 6 0
BBX 5 4 0 0
BITMAP
90
E8
E8
90
ENDCHAR
STARTCHAR afii10097
ENCODING 1103
SWIDTH 640 0
DWIDTH 6 0
BBX 4 4 0 0
BITMAP
70
90
70
90
ENDCHAR
STARTCHAR uni0450
ENCODING 1104
SWIDTH 640 0
DWIDTH 6 0
BBX 4 7 1 0
BITMAP
40
20
00
60
90
E0
70
ENDCHAR
STARTCHAR afii10071
ENCODING 1105
SWIDTH 640 0
DWIDTH 6 0
BBX 4 6 1 0
BITMAP
A0
00
60
90
E0
70
ENDCHAR
STARTCHAR afii10099
ENCODING 1106
SWIDTH 640 0
DWIDTH 6 0
BBX 5 8 0 -2
BITMAP
40
E0
40
70
48
48
08
10
ENDCHAR
STARTCHAR afii10100
ENCODING 1107
SWIDTH 640 0
DWIDTH 6 0
BBX 4 7 1 0
BITMAP
20
40
00
F0
80
80
80
ENDCHAR
STARTCHAR afii10101
ENCODING 1108
SWIDTH 640 0
DWIDTH 6 0
BBX 4 4 1 0
BITMAP
70
A0
C0
70
ENDCHAR
STARTCHAR afii10102
ENCODING 1109
SWIDTH 640 0
DWIDTH 6 0
BBX 4 4 1 0
BITMAP
70
C0
30
E0
ENDCHAR
STARTCHAR afii10103
ENCODING 1110
SWIDTH 640 0
DWIDTH 6 0
BBX 3 6 1 0
BITMAP
40
00
C0
40
40
E0
ENDCHAR
STARTCHAR afii10104
ENCODING 1111
SWIDTH 640 0
DWIDTH 6 0
BBX 3 6 1 0
BITMAP
A0
00
C0
40
40
E0
ENDCHAR
STARTCHAR afii10105
ENCODING 1112
SWIDTH 640 0
DWIDTH 6 0
BBX 4 8 1 -2
BITMAP
10
00
30
10
10
10
90
60
ENDCHAR
STARTCHAR afii10106
ENCODING 1113
SWIDTH 640 0
DWIDTH 6 0
BBX 5 4 0 0
BITMAP
60
B0
A8
B0
ENDCHAR
STARTCHAR afii10107
ENCODING 1114
SWIDTH 640 0
DWIDTH 6 0
BBX 5 4 0 0
BITMAP
A0
F0
A8
B0
ENDCHAR
STARTCHAR afii10108
ENCODING 1115
SWIDTH 640 0
DWIDTH 6 0
BBX 5 6 0 0
BITMAP
40
E0
40
70
48
48
ENDCHAR
STARTCHAR afii10109
ENCODING 1116
SWIDTH 640 0
DWIDTH 6 0
BBX 4 7 1 0
BITMAP
20
40
00
90
A0
E0
90
ENDCHAR
STARTCHAR uni045D
ENCODING 1117
SWIDTH 640 0
DWIDTH 6 0
BBX 5 7 0 0
BITMAP
40
20
00
88
98
A8
C8
ENDCHAR
STARTCHAR afii10110
ENCODING 1118
SWIDTH 640 0
DWIDTH 6 0
BBX 5 8 0 -2
BITMAP
48
30
00
88
88
78
08
70
ENDCHAR
STARTCHAR afii10193
ENCODING 1119
SWIDTH 640 0
DWIDTH 6 0
BBX 5 6 0 -2
BITMAP
88
88
88
F8
20
20
ENDCHAR
STARTCHAR afii10146
ENCODING 1122
SWIDTH 640 0
DWIDTH 6 0
BBX 5 7 0 0
BITMAP
40
E0
40
70
48
48
70
ENDCHAR
STARTCHAR afii10194
ENCODING 1123
SWIDTH 640 0
DWIDTH 6 0
BBX 5 6 0 0
BITMAP
40
40
E0
70
48
70
ENDCHAR
STARTCHAR uni0470
ENCODING 1136
SWIDTH 640 0
DWIDTH 6 0
BBX 5 6 0 0
BITMAP
A8
A8
A8
70
20
20
ENDCHAR
STARTCHAR uni0471
ENCODING 1137
SWIDTH 640 0
DWIDTH 6 0
BBX 5 4 0 0
BITMAP
A8
A8
70
20
ENDCHAR
STARTCHAR afii10147
ENCODING 1138
SWIDTH 640 0
DWIDTH 6 0
BBX 5 6 0 0
BITMAP
70
88
F8
88
88
70
ENDCHAR
STARTCHAR afii10195
ENCODING 1139
SWIDTH 640 0
DWIDTH 6 0
BBX 5 4 0 0
BITMAP
70
A8
D8
70
ENDCHAR
STARTCHAR afii10148
ENCODING 1140
SWIDTH 640 0
DWIDTH 6 0
BBX 4 6 1 0
BITMAP
80
90
B0
E0
40
40
ENDCHAR
STARTCHAR afii10196
ENCODING 1141
SWIDTH 640 0
DWIDTH 6 0
BBX 4 4 1 0
BITMAP
80
B0
60
40
ENDCHAR
STARTCHAR afii10050
ENCODING 1168
SWIDTH 640 0
DWIDTH 6 0
BBX 4 7 1 0
BITMAP
10
F0
80
80
80
80
80
ENDCHAR
STARTCHAR afii10098
ENCODING 1169
SWIDTH 640 0
DWIDTH 6 0
BBX 4 5 1 0
BITMAP
10
F0
80
80
80
ENDCHAR
STARTCHAR uni0492
ENCODING 1170
SWIDTH 640 0
DWIDTH 6 0
BBX 5 6 0 0
BITMAP
78
40
F0
40
40
40
ENDCHAR
STARTCHAR uni0493
ENCODING 1171
SWIDTH 640 0
DWIDTH 6 0
BBX 5 4 0 0
BITMAP
78
40
E0
40
ENDCHAR
STARTCHAR uni0496
ENCODING 1174
SWIDTH 640 0
DWIDTH 6 0
BBX 6 8 0 -2
BITMAP
A8
A8
70
A8
A8
AC
04
04
ENDCHAR
STARTCHAR uni0497
ENCODING 1175
SWIDTH 640 0
DWIDTH 6 0
BBX 6 6 0 -2
BITMAP
A8
70
70
A8
04
04
ENDCHAR
STARTCHAR uni049A
ENCODING 1178
SWIDTH 640 0
DWIDTH 6 0
BBX 5 8 1 -2
BITMAP
90
A0
C0
A0
90
90
08
08
ENDCHAR
STARTCHAR uni049B
ENCODING 1179
SWIDTH 640 0
DWIDTH 6 0
BBX 5 6 1 -2
BITMAP
90
A0
E0
90
08
08
ENDCHAR
STARTCHAR uni04AE
ENCODING 1198
SWIDTH 640 0
DWIDTH 6 0
BBX 5 6 0 0
BITMAP
88
88
50
20
20
20
ENDCHAR
STARTCHAR uni04AF
ENCODING 1199
SWIDTH 640 0
DWIDTH 6 0
BBX 5 6 0 -2
BITMAP
88
88
50
20
20
20
ENDCHAR
STARTCHAR uni04B0
ENCODING 1200
SWIDTH 640 0
DWIDTH 6 0
BBX 5 6 0 0
BITMAP
88
88
50
F8
20
20
ENDCHAR
STARTCHAR uni04B1
ENCODING 1201
SWIDTH 640 0
DWIDTH 6 0
BBX 5 6 0 -2
BITMAP
88
88
50
F8
20
20
ENDCHAR
STARTCHAR uni04B2
ENCODING 1202
SWIDTH 640 0
DWIDTH 6 0
BBX 6 8 0 -2
BITMAP
88
50
20
20
50
88
04
04
ENDCHAR
STARTCHAR uni04B3
ENCODING 1203
SWIDTH 640 0
DWIDTH 6 0
BBX 5 6 1 -2
BITMAP
90
60
60
90
08
08
ENDCHAR
STARTCHAR uni04BA
ENCODING 1210
SWIDTH 640 0
DWIDTH 6 0
BBX 5 6 0 0
BITMAP
80
80
F0
88
88
88
ENDCHAR
STARTCHAR uni04BB
ENCODING 1211
SWIDTH 640 0
DWIDTH 6 0
BBX 4 6 1 0
BITMAP
80
80
E0
90
90
90
ENDCHAR
STARTCHAR uni04D8
ENCODING 1240
SWIDTH 640 0
DWIDTH 6 0
BBX 4 6 1 0
BITMAP
60
90
10
F0
90
60
ENDCHAR
STARTCHAR afii10846
ENCODING 1241
SWIDTH 640 0
DWIDTH 6 0
BBX 4 4 1 0
BITMAP
E0
30
D0
60
ENDCHAR
STARTCHAR uni04E2
ENCODING 1250
SWIDTH 640 0
DWIDTH 6 0
BBX 3 7 1 0
BITMAP
E0
00
E0
40
40
40
E0
ENDCHAR
STARTCHAR uni04E3
ENCODING 1251
SWIDTH 640 0
DWIDTH 6 0
BBX 3 6 1 0
BITMAP
E0
00
C0
40
40
E0
ENDCHAR
STARTCHAR uni04E8
ENCODING 1256
SWIDTH 640 0
DWIDTH 6 0
BBX 5 6 0 0
BITMAP
70
88
F8
88
88
70
ENDCHAR
STARTCHAR uni04E9
ENCODING 1257
SWIDTH 640 0
DWIDTH 6 0
BBX 4 4 1 0
BITMAP
60
F0
90
60
ENDCHAR
STARTCHAR uni04EE
ENCODING 1262
SWIDTH 640 0
DWIDTH 6 0
BBX 4 7 1 0
BITMAP
F0
00
90
90
90
90
60
ENDCHAR
STARTCHAR uni04EF
ENCODING 1263
SWIDTH 640 0
DWIDTH 6 0
BBX 4 6 1 0
BITMAP
F0
00
90
90
90
70
ENDCHAR
STARTCHAR afii57664
ENCODING 1488
SWIDTH 640 0
DWIDTH 6 0
BBX 5 4 0 0
BITMAP
90
48
B0
88
ENDCHAR
STARTCHAR afii57665
ENCODING 1489
SWIDTH 640 0
DWIDTH 6 0
BBX 5 4 0 0
BITMAP
F0
10
10
F8
ENDCHAR
STARTCHAR afii57666
ENCODING 1490
SWIDTH 640 0
DWIDTH 6 0
BBX 3 4 1 0
BITMAP
80
40
60
A0
ENDCHAR
STARTCHAR afii57667
ENCODING 1491
SWIDTH 640 0
DWIDTH 6 0
BBX 5 4 0 0
BITMAP
F8
10
10
10
ENDCHAR
STARTCHAR afii57668
ENCODING 1492
SWIDTH 640 0
DWIDTH 6 0
BBX 5 4 0 0
BITMAP
F8
08
88
88
ENDCHAR
STARTCHAR afii57669
ENCODING 1493
SWIDTH 640 0
DWIDTH 6 0
BBX 2 4 2 0
BITMAP
C0
40
40
40
ENDCHAR
STARTCHAR afii57670
ENCODING 1494
SWIDTH 640 0
DWIDTH 6 0
BBX 5 4 0 0
BITMAP
F8
20
10
10
ENDCHAR
STARTCHAR afii57671
ENCODING 1495
SWIDTH 640 0
DWIDTH 6 0
BBX 5 4 0 0
BITMAP
F8
48
48
48
ENDCHAR
STARTCHAR afii57672
ENCODING 1496
SWIDTH 640 0
DWIDTH 6 0
BBX 5 4 0 0
BITMAP
98
A8
88
F8
ENDCHAR
STARTCHAR afii57673
ENCODING 1497
SWIDTH 640 0
DWIDTH 6 0
BBX 2 2 2 2
BITMAP
C0
40
ENDCHAR
STARTCHAR afii57674
ENCODING 1498
SWIDTH 640 0
DWIDTH 6 0
BBX 5 6 0 -2
BITMAP
F8
08
08
08
08
08
ENDCHAR
STARTCHAR afii57675
ENCODING 1499
SWIDTH 640 0
DWIDTH 6 0
BBX 5 4 0 0
BITMAP
F8
08
08
F0
ENDCHAR
STARTCHAR afii57676
ENCODING 1500
SWIDTH 640 0
DWIDTH 6 0
BBX 5 6 0 0
BITMAP
80
80
F8
08
10
60
ENDCHAR
STARTCHAR afii57677
ENCODING 1501
SWIDTH 640 0
DWIDTH 6 0
BBX 5 4 0 0
BITMAP
F8
48
48
78
ENDCHAR
STARTCHAR afii57678
ENCODING 1502
SWIDTH 640 0
DWIDTH 6 0
BBX 5 4 0 0
BITMAP
90
A8
48
98
ENDCHAR
STARTCHAR afii57679
ENCODING 1503
SWIDTH 640 0
DWIDTH 6 0
BBX 2 6 2 -2
BITMAP
C0
40
40
40
40
40
ENDCHAR
STARTCHAR afii57680
ENCODING 1504
SWIDTH 640 0
DWIDTH 6 0
BBX 4 4 1 0
BITMAP
30
10
10
F0
ENDCHAR
STARTCHAR afii57681
ENCODING 1505
SWIDTH 640 0
DWIDTH 6 0
BBX 4 4 1 0
BITMAP
F0
50
50
60
ENDCHAR
STARTCHAR afii57682
ENCODING 1506
SWIDTH 640 0
DWIDTH 6 0
BBX 5 4 0 0
BITMAP
D8
48
50
E0
ENDCHAR
STARTCHAR afii57683
ENCODING 1507
SWIDTH 640 0
DWIDTH 6 0
BBX 5 6 0 -2
BITMAP
F8
48
48
08
08
08
ENDCHAR
STARTCHAR afii57684
ENCODING 1508
SWIDTH 640 0
DWIDTH 6 0
BBX 5 4 0 0
BITMAP
F8
48
08
F0
ENDCHAR
STARTCHAR afii57685
ENCODING 1509
SWIDTH 640 0
DWIDTH 6 0
BBX 5 6 0 -2
BITMAP
90
48
50
60
40
40
ENDCHAR
STARTCHAR afii57686
ENCODING 1510
SWIDTH 640 0
DWIDTH 6 0
BBX 5 4 0 0
BITMAP
90
48
30
F8
ENDCHAR
STARTCHAR afii57687
ENCODING 1511
SWIDTH 640 0
DWIDTH 6 0
BBX 5 6 0 -2
BITMAP
F8
08
88
B0
80
80
ENDCHAR
STARTCHAR afii57688
ENCODING 1512
SWIDTH 640 0
DWIDTH 6 0
BBX 5 4 0 0
BITMAP
F0
08
08
08
ENDCHAR
STARTCHAR afii57689
ENCODING 1513
SWIDTH 640 0
DWIDTH 6 0
BBX 5 4 0 0
BITMAP
A8
E8
88
F0
ENDCHAR
STARTCHAR afii57690
ENCODING 1514
SWIDTH 640 0
DWIDTH 6 0
BBX 5 4 0 0
BITMAP
F8
48
48
C8
ENDCHAR
STARTCHAR afii57716
ENCODING 1520
SWIDTH 640 0
DWIDTH 6 0
BBX 5 4 0 0
BITMAP
D8
48
48
48
ENDCHAR
STARTCHAR afii57717
ENCODING 1521
SWIDTH 640 0
DWIDTH 6 0
BBX 5 4 0 0
BITMAP
D8
48
08
08
ENDCHAR
STARTCHAR afii57718
ENCODING 1522
SWIDTH 640 0
DWIDTH 6 0
BBX 5 2 0 2
BITMAP
D8
48
ENDCHAR
STARTCHAR uni05F3
ENCODING 1523
SWIDTH 640 0
DWIDTH 6 0
BBX 2 2 2 2
BITMAP
40
80
ENDCHAR
STARTCHAR uni05F4
ENCODING 1524
SWIDTH 640 0
DWIDTH 6 0
BBX 5 2 0 2
BITMAP
48
90
ENDCHAR
STARTCHAR uni1E02
ENCODING 7682
SWIDTH 640 0
DWIDTH 6 0
BBX 5 7 0 0
BITMAP
20
00
F0
88
F0
88
F0
ENDCHAR
STARTCHAR uni1E03
ENCODING 7683
SWIDTH 640 0
DWIDTH 6 0
BBX 4 7 1 0
BITMAP
20
80
80
E0
90
90
E0
ENDCHAR
STARTCHAR uni1E0A
ENCODING 7690
SWIDTH 640 0
DWIDTH 6 0
BBX 4 7 1 0
BITMAP
40
00
E0
90
90
90
E0
ENDCHAR
STARTCHAR uni1E0B
ENCODING 7691
SWIDTH 640 0
DWIDTH 6 0
BBX 4 7 1 0
BITMAP
40
10
10
70
90
90
70
ENDCHAR
STARTCHAR uni1E1E
ENCODING 7710
SWIDTH 640 0
DWIDTH 6 0
BBX 4 7 1 0
BITMAP
40
00
F0
80
E0
80
80
ENDCHAR
STARTCHAR uni1E1F
ENCODING 7711
SWIDTH 640 0
DWIDTH 6 0
BBX 4 7 1 0
BITMAP
40
00
20
50
E0
40
40
ENDCHAR
STARTCHAR uni1E40
ENCODING 7744
SWIDTH 640 0
DWIDTH 6 0
BBX 5 7 0 0
BITMAP
20
88
D8
A8
A8
88
88
ENDCHAR
STARTCHAR uni1E41
ENCODING 7745
SWIDTH 640 0
DWIDTH 6 0
BBX 5 6 0 0
BITMAP
20
00
D0
A8
A8
88
ENDCHAR
STARTCHAR uni1E56
ENCODING 7766
SWIDTH 640 0
DWIDTH 6 0
BBX 4 7 1 0
BITMAP
40
00
E0
90
E0
80
80
ENDCHAR
STARTCHAR uni1E57
ENCODING 7767
SWIDTH 640 0
DWIDTH 6 0
BBX 4 8 1 -2
BITMAP
40
00
E0
90
90
E0
80
80
ENDCHAR
STARTCHAR uni1E60
ENCODING 7776
SWIDTH 640 0
DWIDTH 6 0
BBX 4 7 1 0
BITMAP
20
00
70
80
60
10
E0
ENDCHAR
STARTCHAR uni1E61
ENCODING 7777
SWIDTH 640 0
DWIDTH 6 0
BBX 4 6 1 0
BITMAP
20
00
70
C0
30
E0
ENDCHAR
STARTCHAR uni1E6A
ENCODING 7786
SWIDTH 640 0
DWIDTH 6 0
BBX 5 7 0 0
BITMAP
20
00
F8
20
20
20
20
ENDCHAR
STARTCHAR uni1E6B
ENCODING 7787
SWIDTH 640 0
DWIDTH 6 0
BBX 4 7 1 0
BITMAP
40
00
40
E0
40
50
20
ENDCHAR
STARTCHAR Wgrave
ENCODING 7808
SWIDTH 640 0
DWIDTH 6 0
BBX 5 7 0 0
BITMAP
40
20
88
88
A8
D8
88
ENDCHAR
STARTCHAR wgrave
ENCODING 7809
SWIDTH 640 0
DWIDTH 6 0
BBX 5 7 0 0
BITMAP
40
20
00
88
A8
A8
50
ENDCHAR
STARTCHAR Wacute
ENCODING 7810
SWIDTH 640 0
DWIDTH 6 0
BBX 5 7 0 0
BITMAP
10
20
88
88
A8
D8
88
ENDCHAR
STARTCHAR wacute
ENCODING 7811
SWIDTH 640 0
DWIDTH 6 0
BBX 5 7 0 0
BITMAP
10
20
00
88
A8
A8
50
ENDCHAR
STARTCHAR Wdieresis
ENCODING 7812
SWIDTH 640 0
DWIDTH 6 0
BBX 5 7 0 0
BITMAP
50
00
88
88
A8
D8
88
ENDCHAR
STARTCHAR wdieresis
ENCODING 7813
SWIDTH 640 0
DWIDTH 6 0
BBX 5 6 0 0
BITMAP
50
00
88
A8
A8
50
ENDCHAR
STARTCHAR Ygrave
ENCODING 7922
SWIDTH 640 0
DWIDTH 6 0
BBX 5 7 0 0
BITMAP
40
20
88
50
20
20
20
ENDCHAR
STARTCHAR ygrave
ENCODING 7923
SWIDTH 640 0
DWIDTH 6 0
BBX 4 9 1 -2
BITMAP
40
20
00
90
90
90
70
90
60
ENDCHAR
STARTCHAR uni2010
ENCODING 8208
SWIDTH 640 0
DWIDTH 6 0
BBX 4 1 1 2
BITMAP
F0
ENDCHAR
STARTCHAR uni2011
ENCODING 8209
SWIDTH 640 0
DWIDTH 6 0
BBX 4 1 1 2
BITMAP
F0
ENDCHAR
STARTCHAR figuredash
ENCODING 8210
SWIDTH 640 0
DWIDTH 6 0
BBX 5 1 0 2
BITMAP
F8
ENDCHAR
STARTCHAR endash
ENCODING 8211
SWIDTH 640 0
DWIDTH 6 0
BBX 5 1 0 2
BITMAP
F8
ENDCHAR
STARTCHAR emdash
ENCODING 8212
SWIDTH 640 0
DWIDTH 6 0
BBX 6 1 0 2
BITMAP
FC
ENDCHAR
STARTCHAR afii00208
ENCODING 8213
SWIDTH 640 0
DWIDTH 6 0
BBX 6 1 0 2
BITMAP
FC
ENDCHAR
STARTCHAR uni2016
ENCODING 8214
SWIDTH 640 0
DWIDTH 6 0
BBX 3 6 1 0
BITMAP
A0
A0
A0
A0
A0
A0
ENDCHAR
STARTCHAR underscoredbl
ENCODING 8215
SWIDTH 640 0
DWIDTH 6 0
BBX 6 3 0 -2
BITMAP
FC
00
FC
ENDCHAR
STARTCHAR quoteleft
ENCODING 8216
SWIDTH 640 0
DWIDTH 6 0
BBX 2 3 2 3
BITMAP
40
80
C0
ENDCHAR
STARTCHAR quoteright
ENCODING 8217
SWIDTH 640 0
DWIDTH 6 0
BBX 2 3 2 3
BITMAP
C0
40
80
ENDCHAR
STARTCHAR quotesinglbase
ENCODING 8218
SWIDTH 640 0
DWIDTH 6 0
BBX 2 3 2 -2
BITMAP
C0
40
80
ENDCHAR
STARTCHAR quotereversed
ENCODING 8219
SWIDTH 640 0
DWIDTH 6 0
BBX 2 3 2 3
BITMAP
C0
80
40
ENDCHAR
STARTCHAR quotedblleft
ENCODING 8220
SWIDTH 640 0
DWIDTH 6 0
BBX 5 3 0 3
BITMAP
48
90
D8
ENDCHAR
STARTCHAR quotedblright
ENCODING 8221
SWIDTH 640 0
DWIDTH 6 0
BBX 5 3 0 3
BITMAP
D8
48
90
ENDCHAR
STARTCHAR quotedblbase
ENCODING 8222
SWIDTH 640 0
DWIDTH 6 0
BBX 5 3 0 -2
BITMAP
D8
48
90
ENDCHAR
STARTCHAR uni201F
ENCODING 8223
SWIDTH 640 0
DWIDTH 6 0
BBX 5 3 0 3
BITMAP
D8
90
48
ENDCHAR
STARTCHAR dagger
ENCODING 8224
SWIDTH 640 0
DWIDTH 6 0
BBX 5 7 0 -1
BITMAP
20
20
F8
20
20
20
20
ENDCHAR
STARTCHAR daggerdbl
ENCODING 8225
SWIDTH 640 0
DWIDTH 6 0
BBX 5 7 0 -1
BITMAP
20
20
F8
20
F8
20
20
ENDCHAR
STARTCHAR bullet
ENCODING 8226
SWIDTH 640 0
DWIDTH 6 0
BBX 4 4 1 1
BITMAP
60
F0
F0
60
ENDCHAR
STARTCHAR uni2023
ENCODING 8227
SWIDTH 640 0
DWIDTH 6 0
BBX 3 5 1 0
BITMAP
80
C0
E0
C0
80
ENDCHAR
STARTCHAR onedotenleader
ENCODING 8228
SWIDTH 640 0
DWIDTH 6 0
BBX 1 1 2 0
BITMAP
80
ENDCHAR
STARTCHAR twodotenleader
ENCODING 8229
SWIDTH 640 0
DWIDTH 6 0
BBX 3 1 1 0
BITMAP
A0
ENDCHAR
STARTCHAR ellipsis
ENCODING 8230
SWIDTH 640 0
DWIDTH 6 0
BBX 5 1 0 0
BITMAP
A8
ENDCHAR
STARTCHAR uni2027
ENCODING 8231
SWIDTH 640 0
DWIDTH 6 0
BBX 2 1 2 2
BITMAP
C0
ENDCHAR
STARTCHAR perthousand
ENCODING 8240
SWIDTH 640 0
DWIDTH 6 0
BBX 6 8 0 -1
BITMAP
40
A8
48
10
20
68
D4
28
ENDCHAR
STARTCHAR minute
ENCODING 8242
SWIDTH 640 0
DWIDTH 6 0
BBX 2 3 2 3
BITMAP
40
40
80
ENDCHAR
STARTCHAR second
ENCODING 8243
SWIDTH 640 0
DWIDTH 6 0
BBX 5 3 0 3
BITMAP
48
48
90
ENDCHAR
STARTCHAR uni2034
ENCODING 8244
SWIDTH 640 0
DWIDTH 6 0
BBX 6 3 0 3
BITMAP
54
54
A8
ENDCHAR
STARTCHAR uni2035
ENCODING 8245
SWIDTH 640 0
DWIDTH 6 0
BBX 2 3 2 3
BITMAP
80
80
40
ENDCHAR
STARTCHAR uni2036
ENCODING 8246
SWIDTH 640 0
DWIDTH 6 0
BBX 5 3 0 3
BITMAP
90
90
48
ENDCHAR
STARTCHAR uni2037
ENCODING 8247
SWIDTH 640 0
DWIDTH 6 0
BBX 6 3 0 3
BITMAP
A8
A8
54
ENDCHAR
STARTCHAR guilsinglleft
ENCODING 8249
SWIDTH 640 0
DWIDTH 6 0
BBX 3 5 1 0
BITMAP
20
40
80
40
20
ENDCHAR
STARTCHAR guilsinglright
ENCODING 8250
SWIDTH 640 0
DWIDTH 6 0
BBX 3 5 1 0
BITMAP
80
40
20
40
80
ENDCHAR
STARTCHAR exclamdbl
ENCODING 8252
SWIDTH 640 0
DWIDTH 6 0
BBX 3 6 1 0
BITMAP
A0
A0
A0
A0
00
A0
ENDCHAR
STARTCHAR uni203E
ENCODING 8254
SWIDTH 640 0
DWIDTH 6 0
BBX 6 1 0 5
BITMAP
FC
ENDCHAR
STARTCHAR fraction
ENCODING 8260
SWIDTH 640 0
DWIDTH 6 0
BBX 4 6 1 0
BITMAP
10
10
20
40
80
80
ENDCHAR
STARTCHAR zerosuperior
ENCODING 8304
SWIDTH 640 0
DWIDTH 6 0
BBX 3 5 1 1
BITMAP
40
A0
A0
A0
40
ENDCHAR
STARTCHAR uni2071
ENCODING 8305
SWIDTH 640 0
DWIDTH 6 0
BBX 3 5 1 1
BITMAP
40
00
C0
40
E0
ENDCHAR
STARTCHAR foursuperior
ENCODING 8308
SWIDTH 640 0
DWIDTH 6 0
BBX 3 5 1 1
BITMAP
A0
A0
E0
20
20
ENDCHAR
STARTCHAR fivesuperior
ENCODING 8309
SWIDTH 640 0
DWIDTH 6 0
BBX 3 5 1 1
BITMAP
E0
80
C0
20
C0
ENDCHAR
STARTCHAR sixsuperior
ENCODING 8310
SWIDTH 640 0
DWIDTH 6 0
BBX 3 5 1 1
BITMAP
40
80
C0
A0
40
ENDCHAR
STARTCHAR sevensuperior
ENCODING 8311
SWIDTH 640 0
DWIDTH 6 0
BBX 3 5 1 1
BITMAP
E0
20
40
40
40
ENDCHAR
STARTCHAR eightsuperior
ENCODING 8312
SWIDTH 640 0
DWIDTH 6 0
BBX 3 5 1 1
BITMAP
40
A0
40
A0
40
ENDCHAR
STARTCHAR ninesuperior
ENCODING 8313
SWIDTH 640 0
DWIDTH 6 0
BBX 3 5 1 1
BITMAP
40
A0
60
20
40
ENDCHAR
STARTCHAR uni207A
ENCODING 8314
SWIDTH 640 0
DWIDTH 6 0
BBX 3 3 1 1
BITMAP
40
E0
40
ENDCHAR
STARTCHAR uni207B
ENCODING 8315
SWIDTH 640 0
DWIDTH 6 0
BBX 3 1 1 2
BITMAP
E0
ENDCHAR
STARTCHAR uni207C
ENCODING 8316
SWIDTH 640 0
DWIDTH 6 0
BBX 3 3 1 1
BITMAP
E0
00
E0
ENDCHAR
STARTCHAR parenleftsuperior
ENCODING 8317
SWIDTH 640 0
DWIDTH 6 0
BBX 2 5 1 1
BITMAP
40
80
80
80
40
ENDCHAR
STARTCHAR parenrightsuperior
ENCODING 8318
SWIDTH 640 0
DWIDTH 6 0
BBX 2 5 2 1
BITMAP
80
40
40
40
80
ENDCHAR
STARTCHAR nsuperior
ENCODING 8319
SWIDTH 640 0
DWIDTH 6 0
BBX 3 4 1 1
BITMAP
C0
A0
A0
A0
ENDCHAR
STARTCHAR zeroinferior
ENCODING 8320
SWIDTH 640 0
DWIDTH 6 0
BBX 3 5 1 -2
BITMAP
40
A0
A0
A0
40
ENDCHAR
STARTCHAR oneinferior
ENCODING 8321
SWIDTH 640 0
DWIDTH 6 0
BBX 3 5 1 -2
BITMAP
40
C0
40
40
E0
ENDCHAR
STARTCHAR twoinferior
ENCODING 8322
SWIDTH 640 0
DWIDTH 6 0
BBX 3 5 1 -2
BITMAP
40
A0
20
40
E0
ENDCHAR
STARTCHAR threeinferior
ENCODING 8323
SWIDTH 640 0
DWIDTH 6 0
BBX 3 5 1 -2
BITMAP
C0
20
40
20
C0
ENDCHAR
STARTCHAR fourinferior
ENCODING 8324
SWIDTH 640 0
DWIDTH 6 0
BBX 3 5 1 -2
BITMAP
A0
A0
E0
20
20
ENDCHAR
STARTCHAR fiveinferior
ENCODING 8325
SWIDTH 640 0
DWIDTH 6 0
BBX 3 5 1 -2
BITMAP
E0
80
C0
20
C0
ENDCHAR
STARTCHAR sixinferior
ENCODING 8326
SWIDTH 640 0
DWIDTH 6 0
BBX 3 5 1 -2
BITMAP
40
80
C0
A0
40
ENDCHAR
STARTCHAR seveninferior
ENCODING 8327
SWIDTH 640 0
DWIDTH 6 0
BBX 3 5 1 -2
BITMAP
E0
20
40
40
40
ENDCHAR
STARTCHAR eightinferior
ENCODING 8328
SWIDTH 640 0
DWIDTH 6 0
BBX 3 5 1 -2
BITMAP
40
A0
40
A0
40
ENDCHAR
STARTCHAR nineinferior
ENCODING 8329
SWIDTH 640 0
DWIDTH 6 0
BBX 3 5 1 -2
BITMAP
40
A0
60
20
40
ENDCHAR
STARTCHAR uni208A
ENCODING 8330
SWIDTH 640 0
DWIDTH 6 0
BBX 3 3 1 -2
BITMAP
40
E0
40
ENDCHAR
STARTCHAR uni208B
ENCODING 8331
SWIDTH 640 0
DWIDTH 6 0
BBX 3 1 1 -1
BITMAP
E0
ENDCHAR
STARTCHAR uni208C
ENCODING 8332
SWIDTH 640 0
DWIDTH 6 0
BBX 3 3 1 -2
BITMAP
E0
00
E0
ENDCHAR
STARTCHAR parenleftinferior
ENCODING 8333
SWIDTH 640 0
DWIDTH 6 0
BBX 2 5 1 -2
BITMAP
40
80
80
80
40
ENDCHAR
STARTCHAR parenrightinferior
ENCODING 8334
SWIDTH 640 0
DWIDTH 6 0
BBX 2 5 2 -2
BITMAP
80
40
40
40
80
ENDCHAR
STARTCHAR franc
ENCODING 8355
SWIDTH 640 0
DWIDTH 6 0
BBX 5 6 0 0
BITMAP
F8
80
E8
B0
A0
A0
ENDCHAR
STARTCHAR lira
ENCODING 8356
SWIDTH 640 0
DWIDTH 6 0
BBX 5 7 0 -1
BITMAP
30
48
E0
40
E0
40
F8
ENDCHAR
STARTCHAR peseta
ENCODING 8359
SWIDTH 640 0
DWIDTH 6 0
BBX 5 6 0 0
BITMAP
60
50
F8
50
60
40
ENDCHAR
STARTCHAR dong
ENCODING 8363
SWIDTH 640 0
DWIDTH 6 0
BBX 5 8 1 -2
BITMAP
10
38
70
90
90
70
00
F0
ENDCHAR
STARTCHAR Euro
ENCODING 8364
SWIDTH 640 0
DWIDTH 6 0
BBX 5 6 0 0
BITMAP
38
40
F0
F0
40
38
ENDCHAR
STARTCHAR uni20AF
ENCODING 8367
SWIDTH 640 0
DWIDTH 6 0
BBX 5 7 0 0
BITMAP
40
E0
50
48
48
E8
D0
ENDCHAR
STARTCHAR uni20D0
ENCODING 8400
SWIDTH 640 0
DWIDTH 6 0
BBX 5 2 0 5
BITMAP
40
F8
ENDCHAR
STARTCHAR uni20D1
ENCODING 8401
SWIDTH 640 0
DWIDTH 6 0
BBX 5 2 0 5
BITMAP
10
F8
ENDCHAR
STARTCHAR uni20D2
ENCODING 8402
SWIDTH 640 0
DWIDTH 6 0
BBX 1 9 2 -2
BITMAP
80
80
80
80
80
80
80
80
80
ENDCHAR
STARTCHAR uni20D3
ENCODING 8403
SWIDTH 640 0
DWIDTH 6 0
BBX 1 6 2 -1
BITMAP
80
80
80
80
80
80
ENDCHAR
STARTCHAR uni20D4
ENCODING 8404
SWIDTH 640 0
DWIDTH 6 0
BBX 5 3 0 4
BITMAP
B0
C8
E0
ENDCHAR
STARTCHAR uni20D5
ENCODING 8405
SWIDTH 640 0
DWIDTH 6 0
BBX 5 3 0 4
BITMAP
68
98
38
ENDCHAR
STARTCHAR uni20D6
ENCODING 8406
SWIDTH 640 0
DWIDTH 6 0
BBX 5 3 0 4
BITMAP
40
F8
40
ENDCHAR
STARTCHAR uni20D7
ENCODING 8407
SWIDTH 640 0
DWIDTH 6 0
BBX 5 3 0 4
BITMAP
10
F8
10
ENDCHAR
STARTCHAR uni2102
ENCODING 8450
SWIDTH 640 0
DWIDTH 6 0
BBX 5 6 0 0
BITMAP
70
A8
A0
A0
A8
70
ENDCHAR
STARTCHAR afii61248
ENCODING 8453
SWIDTH 640 0
DWIDTH 6 0
BBX 5 6 0 0
BITMAP
40
80
40
10
28
10
ENDCHAR
STARTCHAR afii61289
ENCODING 8467
SWIDTH 640 0
DWIDTH 6 0
BBX 4 6 1 0
BITMAP
20
50
50
60
40
B0
ENDCHAR
STARTCHAR uni2115
ENCODING 8469
SWIDTH 640 0
DWIDTH 6 0
BBX 5 6 0 0
BITMAP
C8
E8
E8
D8
D8
C8
ENDCHAR
STARTCHAR afii61352
ENCODING 8470
SWIDTH 640 0
DWIDTH 6 0
BBX 6 6 0 0
BITMAP
90
D0
D0
B8
B4
98
ENDCHAR
STARTCHAR uni211A
ENCODING 8474
SWIDTH 640 0
DWIDTH 6 0
BBX 5 7 0 -1
BITMAP
70
A8
A8
A8
A8
70
18
ENDCHAR
STARTCHAR uni211D
ENCODING 8477
SWIDTH 640 0
DWIDTH 6 0
BBX 5 6 0 0
BITMAP
F0
A8
A8
B0
A8
A8
ENDCHAR
STARTCHAR trademark
ENCODING 8482
SWIDTH 640 0
DWIDTH 6 0
BBX 6 3 0 3
BITMAP
FC
5C
54
ENDCHAR
STARTCHAR uni2124
ENCODING 8484
SWIDTH 640 0
DWIDTH 6 0
BBX 5 6 0 0
BITMAP
F8
28
50
50
A0
F8
ENDCHAR
STARTCHAR Omega
ENCODING 8486
SWIDTH 640 0
DWIDTH 6 0
BBX 5 6 0 0
BITMAP
70
88
88
88
50
D8
ENDCHAR
STARTCHAR estimated
ENCODING 8494
SWIDTH 640 0
DWIDTH 6 0
BBX 5 5 0 0
BITMAP
70
D8
F8
C0
70
ENDCHAR
STARTCHAR oneeighth
ENCODING 8539
SWIDTH 640 0
DWIDTH 6 0
BBX 5 8 0 -1
BITMAP
40
C0
40
50
68
10
28
10
ENDCHAR
STARTCHAR threeeighths
ENCODING 8540
SWIDTH 640 0
DWIDTH 6 0
BBX 5 8 0 -1
BITMAP
C0
20
40
30
E8
10
28
10
ENDCHAR
STARTCHAR fiveeighths
ENCODING 8541
SWIDTH 640 0
DWIDTH 6 0
BBX 5 8 0 -1
BITMAP
E0
80
C0
30
E8
10
28
10
ENDCHAR
STARTCHAR seveneighths
ENCODING 8542
SWIDTH 640 0
DWIDTH 6 0
BBX 5 8 0 -1
BITMAP
E0
20
40
50
68
10
28
10
ENDCHAR
STARTCHAR arrowleft
ENCODING 8592
SWIDTH 640 0
DWIDTH 6 0
BBX 5 5 0 0
BITMAP
20
40
F8
40
20
ENDCHAR
STARTCHAR arrowup
ENCODING 8593
SWIDTH 640 0
DWIDTH 6 0
BBX 5 6 0 0
BITMAP
20
70
A8
20
20
20
ENDCHAR
STARTCHAR arrowright
ENCODING 8594
SWIDTH 640 0
DWIDTH 6 0
BBX 5 5 0 0
BITMAP
20
10
F8
10
20
ENDCHAR
STARTCHAR arrowdown
ENCODING 8595
SWIDTH 640 0
DWIDTH 6 0
BBX 5 6 0 0
BITMAP
20
20
20
A8
70
20
ENDCHAR
STARTCHAR arrowboth
ENCODING 8596
SWIDTH 640 0
DWIDTH 6 0
BBX 6 3 0 1
BITMAP
48
FC
48
ENDCHAR
STARTCHAR arrowupdn
ENCODING 8597
SWIDTH 640 0
DWIDTH 6 0
BBX 5 7 0 -1
BITMAP
20
70
A8
20
A8
70
20
ENDCHAR
STARTCHAR uni21A4
ENCODING 8612
SWIDTH 640 0
DWIDTH 6 0
BBX 5 5 0 0
BITMAP
20
48
F8
48
20
ENDCHAR
STARTCHAR uni21A5
ENCODING 8613
SWIDTH 640 0
DWIDTH 6 0
BBX 5 6 0 0
BITMAP
20
70
A8
20
20
70
ENDCHAR
STARTCHAR uni21A6
ENCODING 8614
SWIDTH 640 0
DWIDTH 6 0
BBX 5 5 0 0
BITMAP
20
90
F8
90
20
ENDCHAR
STARTCHAR uni21A7
ENCODING 8615
SWIDTH 640 0
DWIDTH 6 0
BBX 5 6 0 0
BITMAP
70
20
20
A8
70
20
ENDCHAR
STARTCHAR arrowupdnbse
ENCODING 8616
SWIDTH 640 0
DWIDTH 6 0
BBX 5 8 0 -1
BITMAP
20
70
A8
20
A8
70
20
F8
ENDCHAR
STARTCHAR arrowdblleft
ENCODING 8656
SWIDTH 640 0
DWIDTH 6 0
BBX 5 5 0 0
BITMAP
20
78
80
78
20
ENDCHAR
STARTCHAR arrowdblup
ENCODING 8657
SWIDTH 640 0
DWIDTH 6 0
BBX 5 6 0 0
BITMAP
20
50
D8
50
50
50
ENDCHAR
STARTCHAR arrowdblright
ENCODING 8658
SWIDTH 640 0
DWIDTH 6 0
BBX 5 5 0 0
BITMAP
20
F0
08
F0
20
ENDCHAR
STARTCHAR arrowdbldown
ENCODING 8659
SWIDTH 640 0
DWIDTH 6 0
BBX 5 6 0 0
BITMAP
50
50
50
D8
70
20
ENDCHAR
STARTCHAR arrowdblboth
ENCODING 8660
SWIDTH 640 0
DWIDTH 6 0
BBX 6 5 0 0
BITMAP
30
78
84
78
30
ENDCHAR
STARTCHAR uni21D5
ENCODING 8661
SWIDTH 640 0
DWIDTH 6 0
BBX 5 7 0 -1
BITMAP
20
70
D8
50
D8
70
20
ENDCHAR
STARTCHAR universal
ENCODING 8704
SWIDTH 640 0
DWIDTH 6 0
BBX 5 6 0 0
BITMAP
88
88
F8
88
50
20
ENDCHAR
STARTCHAR uni2201
ENCODING 8705
SWIDTH 640 0
DWIDTH 6 0
BBX 3 7 1 -1
BITMAP
40
A0
80
80
80
A0
40
ENDCHAR
STARTCHAR partialdiff
ENCODING 8706
SWIDTH 640 0
DWIDTH 6 0
BBX 4 6 1 0
BITMAP
60
10
70
90
90
60
ENDCHAR
STARTCHAR existential
ENCODING 8707
SWIDTH 640 0
DWIDTH 6 0
BBX 4 6 1 0
BITMAP
F0
10
70
10
10
F0
ENDCHAR
STARTCHAR uni2204
ENCODING 8708
SWIDTH 640 0
DWIDTH 6 0
BBX 4 8 1 -1
BITMAP
40
F0
50
70
50
50
F0
40
ENDCHAR
STARTCHAR emptyset
ENCODING 8709
SWIDTH 640 0
DWIDTH 6 0
BBX 5 6 0 0
BITMAP
78
98
A8
A8
C8
F0
ENDCHAR
STARTCHAR Delta
ENCODING 8710
SWIDTH 640 0
DWIDTH 6 0
BBX 5 6 0 0
BITMAP
20
20
50
50
88
F8
ENDCHAR
STARTCHAR gradient
ENCODING 8711
SWIDTH 640 0
DWIDTH 6 0
BBX 5 6 0 0
BITMAP
F8
88
50
50
20
20
ENDCHAR
STARTCHAR element
ENCODING 8712
SWIDTH 640 0
DWIDTH 6 0
BBX 4 5 1 0
BITMAP
70
80
F0
80
70
ENDCHAR
STARTCHAR notelement
ENCODING 8713
SWIDTH 640 0
DWIDTH 6 0
BBX 4 7 1 -1
BITMAP
20
70
A0
F0
A0
70
20
ENDCHAR
STARTCHAR suchthat
ENCODING 8715
SWIDTH 640 0
DWIDTH 6 0
BBX 4 5 1 0
BITMAP
E0
10
F0
10
E0
ENDCHAR
STARTCHAR uni220C
ENCODING 8716
SWIDTH 640 0
DWIDTH 6 0
BBX 4 7 1 -1
BITMAP
40
E0
50
F0
50
E0
40
ENDCHAR
STARTCHAR product
ENCODING 8719
SWIDTH 640 0
DWIDTH 6 0
BBX 5 8 0 -1
BITMAP
F8
50
50
50
50
50
50
50
ENDCHAR
STARTCHAR uni2210
ENCODING 8720
SWIDTH 640 0
DWIDTH 6 0
BBX 5 8 0 -1
BITMAP
50
50
50
50
50
50
50
F8
ENDCHAR
STARTCHAR summation
ENCODING 8721
SWIDTH 640 0
DWIDTH 6 0
BBX 5 6 0 0
BITMAP
F8
40
20
20
40
F8
ENDCHAR
STARTCHAR minus
ENCODING 8722
SWIDTH 640 0
DWIDTH 6 0
BBX 5 1 0 2
BITMAP
F8
ENDCHAR
STARTCHAR uni2213
ENCODING 8723
SWIDTH 640 0
DWIDTH 6 0
BBX 5 7 0 -1
BITMAP
F8
00
20
20
F8
20
20
ENDCHAR
STARTCHAR fraction
ENCODING 8725
SWIDTH 640 0
DWIDTH 6 0
BBX 4 6 1 0
BITMAP
10
10
20
40
80
80
ENDCHAR
STARTCHAR uni2218
ENCODING 8728
SWIDTH 640 0
DWIDTH 6 0
BBX 3 3 1 1
BITMAP
40
A0
40
ENDCHAR
STARTCHAR periodcentered
ENCODING 8729
SWIDTH 640 0
DWIDTH 6 0
BBX 3 3 1 1
BITMAP
40
E0
40
ENDCHAR
STARTCHAR radical
ENCODING 8730
SWIDTH 640 0
DWIDTH 6 0
BBX 6 9 0 -2
BITMAP
0C
08
08
08
10
D0
30
30
10
ENDCHAR
STARTCHAR proportional
ENCODING 8733
SWIDTH 640 0
DWIDTH 6 0
BBX 4 4 1 1
BITMAP
50
A0
A0
50
ENDCHAR
STARTCHAR infinity
ENCODING 8734
SWIDTH 640 0
DWIDTH 6 0
BBX 5 4 0 1
BITMAP
50
A8
A8
50
ENDCHAR
STARTCHAR orthogonal
ENCODING 8735
SWIDTH 640 0
DWIDTH 6 0
BBX 5 5 0 0
BITMAP
80
80
80
80
F8
ENDCHAR
STARTCHAR uni2221
ENCODING 8737
SWIDTH 640 0
DWIDTH 6 0
BBX 5 6 0 -1
BITMAP
50
20
50
90
F8
10
ENDCHAR
STARTCHAR uni2224
ENCODING 8740
SWIDTH 640 0
DWIDTH 6 0
BBX 3 6 1 0
BITMAP
40
40
60
C0
40
40
ENDCHAR
STARTCHAR uni2225
ENCODING 8741
SWIDTH 640 0
DWIDTH 6 0
BBX 3 6 1 0
BITMAP
A0
A0
A0
A0
A0
A0
ENDCHAR
STARTCHAR uni2226
ENCODING 8742
SWIDTH 640 0
DWIDTH 6 0
BBX 5 6 0 0
BITMAP
50
58
70
D0
50
50
ENDCHAR
STARTCHAR logicaland
ENCODING 8743
SWIDTH 640 0
DWIDTH 6 0
BBX 5 4 0 0
BITMAP
20
50
50
88
ENDCHAR
STARTCHAR logicalor
ENCODING 8744
SWIDTH 640 0
DWIDTH 6 0
BBX 5 4 0 0
BITMAP
88
50
50
20
ENDCHAR
STARTCHAR intersection
ENCODING 8745
SWIDTH 640 0
DWIDTH 6 0
BBX 5 4 0 0
BITMAP
70
88
88
88
ENDCHAR
STARTCHAR union
ENCODING 8746
SWIDTH 640 0
DWIDTH 6 0
BBX 5 4 0 0
BITMAP
88
88
88
70
ENDCHAR
STARTCHAR integral
ENCODING 8747
SWIDTH 640 0
DWIDTH 6 0
BBX 5 9 0 -2
BITMAP
10
28
20
20
20
20
20
A0
40
ENDCHAR
STARTCHAR uni222E
ENCODING 8750
SWIDTH 640 0
DWIDTH 6 0
BBX 5 9 0 -2
BITMAP
10
28
20
70
A8
70
20
A0
40
ENDCHAR
STARTCHAR therefore
ENCODING 8756
SWIDTH 640 0
DWIDTH 6 0
BBX 5 4 0 1
BITMAP
20
00
00
88
ENDCHAR
STARTCHAR uni2235
ENCODING 8757
SWIDTH 640 0
DWIDTH 6 0
BBX 5 4 0 1
BITMAP
88
00
00
20
ENDCHAR
STARTCHAR uni2236
ENCODING 8758
SWIDTH 640 0
DWIDTH 6 0
BBX 1 4 2 1
BITMAP
80
00
00
80
ENDCHAR
STARTCHAR uni2237
ENCODING 8759
SWIDTH 640 0
DWIDTH 6 0
BBX 4 4 1 1
BITMAP
90
00
00
90
ENDCHAR
STARTCHAR uni2238
ENCODING 8760
SWIDTH 640 0
DWIDTH 6 0
BBX 5 3 0 2
BITMAP
20
00
F8
ENDCHAR
STARTCHAR uni2239
ENCODING 8761
SWIDTH 640 0
DWIDTH 6 0
BBX 5 5 0 0
BITMAP
08
00
E0
00
08
ENDCHAR
STARTCHAR uni223A
ENCODING 8762
SWIDTH 640 0
DWIDTH 6 0
BBX 5 5 0 0
BITMAP
88
00
F8
00
88
ENDCHAR
STARTCHAR uni223B
ENCODING 8763
SWIDTH 640 0
DWIDTH 6 0
BBX 4 6 1 -1
BITMAP
20
00
50
A0
00
40
ENDCHAR
STARTCHAR similar
ENCODING 8764
SWIDTH 640 0
DWIDTH 6 0
BBX 4 2 1 1
BITMAP
50
A0
ENDCHAR
STARTCHAR uni223D
ENCODING 8765
SWIDTH 640 0
DWIDTH 6 0
BBX 4 2 1 1
BITMAP
A0
50
ENDCHAR
STARTCHAR uni2243
ENCODING 8771
SWIDTH 640 0
DWIDTH 6 0
BBX 4 4 1 0
BITMAP
50
A0
00
F0
ENDCHAR
STARTCHAR congruent
ENCODING 8773
SWIDTH 640 0
DWIDTH 6 0
BBX 4 6 1 -1
BITMAP
50
A0
00
F0
00
F0
ENDCHAR
STARTCHAR approxequal
ENCODING 8776
SWIDTH 640 0
DWIDTH 6 0
BBX 5 5 0 0
BITMAP
40
A8
50
A8
10
ENDCHAR
STARTCHAR uni2249
ENCODING 8777
SWIDTH 640 0
DWIDTH 6 0
BBX 5 7 0 -1
BITMAP
10
50
A8
70
A8
50
40
ENDCHAR
STARTCHAR uni2259
ENCODING 8793
SWIDTH 640 0
DWIDTH 6 0
BBX 5 6 0 1
BITMAP
20
50
00
F8
00
F8
ENDCHAR
STARTCHAR uni225F
ENCODING 8799
SWIDTH 640 0
DWIDTH 6 0
BBX 5 9 0 -2
BITMAP
60
10
20
00
20
00
F8
00
F8
ENDCHAR
STARTCHAR notequal
ENCODING 8800
SWIDTH 640 0
DWIDTH 6 0
BBX 5 5 0 0
BITMAP
10
F8
20
F8
40
ENDCHAR
STARTCHAR equivalence
ENCODING 8801
SWIDTH 640 0
DWIDTH 6 0
BBX 5 5 0 0
BITMAP
F8
00
F8
00
F8
ENDCHAR
STARTCHAR uni2262
ENCODING 8802
SWIDTH 640 0
DWIDTH 6 0
BBX 5 7 0 -1
BITMAP
10
F8
20
F8
20
F8
40
ENDCHAR
STARTCHAR uni2263
ENCODING 8803
SWIDTH 640 0
DWIDTH 6 0
BBX 5 7 0 -1
BITMAP
F8
00
F8
00
F8
00
F8
ENDCHAR
STARTCHAR lessequal
ENCODING 8804
SWIDTH 640 0
DWIDTH 6 0
BBX 5 7 0 -1
BITMAP
18
60
80
60
98
60
18
ENDCHAR
STARTCHAR greaterequal
ENCODING 8805
SWIDTH 640 0
DWIDTH 6 0
BBX 5 7 0 -1
BITMAP
C0
30
08
30
C8
30
C0
ENDCHAR
STARTCHAR uni226A
ENCODING 8810
SWIDTH 640 0
DWIDTH 6 0
BBX 5 5 0 0
BITMAP
28
50
A0
50
28
ENDCHAR
STARTCHAR uni226B
ENCODING 8811
SWIDTH 640 0
DWIDTH 6 0
BBX 5 5 0 0
BITMAP
A0
50
28
50
A0
ENDCHAR
STARTCHAR propersubset
ENCODING 8834
SWIDTH 640 0
DWIDTH 6 0
BBX 4 4 1 1
BITMAP
70
80
80
70
ENDCHAR
STARTCHAR propersuperset
ENCODING 8835
SWIDTH 640 0
DWIDTH 6 0
BBX 4 4 1 1
BITMAP
E0
10
10
E0
ENDCHAR
STARTCHAR notsubset
ENCODING 8836
SWIDTH 640 0
DWIDTH 6 0
BBX 4 6 1 0
BITMAP
20
70
A0
A0
70
20
ENDCHAR
STARTCHAR uni2285
ENCODING 8837
SWIDTH 640 0
DWIDTH 6 0
BBX 4 6 1 0
BITMAP
40
E0
50
50
E0
40
ENDCHAR
STARTCHAR reflexsubset
ENCODING 8838
SWIDTH 640 0
DWIDTH 6 0
BBX 4 6 1 0
BITMAP
70
80
80
70
00
F0
ENDCHAR
STARTCHAR reflexsuperset
ENCODING 8839
SWIDTH 640 0
DWIDTH 6 0
BBX 4 6 1 0
BITMAP
E0
10
10
E0
00
F0
ENDCHAR
STARTCHAR uni2288
ENCODING 8840
SWIDTH 640 0
DWIDTH 6 0
BBX 4 8 1 -1
BITMAP
20
70
A0
A0
70
20
F0
20
ENDCHAR
STARTCHAR uni2289
ENCODING 8841
SWIDTH 640 0
DWIDTH 6 0
BBX 4 8 1 -1
BITMAP
40
E0
50
50
E0
40
F0
40
ENDCHAR
STARTCHAR uni228A
ENCODING 8842
SWIDTH 640 0
DWIDTH 6 0
BBX 4 7 1 -1
BITMAP
70
80
80
70
20
F0
40
ENDCHAR
STARTCHAR uni228B
ENCODING 8843
SWIDTH 640 0
DWIDTH 6 0
BBX 4 7 1 -1
BITMAP
E0
10
10
E0
20
F0
40
ENDCHAR
STARTCHAR circleplus
ENCODING 8853
SWIDTH 640 0
DWIDTH 6 0
BBX 5 5 0 0
BITMAP
70
A8
F8
A8
70
ENDCHAR
STARTCHAR uni2296
ENCODING 8854
SWIDTH 640 0
DWIDTH 6 0
BBX 5 5 0 0
BITMAP
70
88
F8
88
70
ENDCHAR
STARTCHAR circlemultiply
ENCODING 8855
SWIDTH 640 0
DWIDTH 6 0
BBX 5 5 0 0
BITMAP
70
D8
A8
D8
70
ENDCHAR
STARTCHAR uni2298
ENCODING 8856
SWIDTH 640 0
DWIDTH 6 0
BBX 5 5 0 0
BITMAP
70
98
A8
C8
70
ENDCHAR
STARTCHAR uni2299
ENCODING 8857
SWIDTH 640 0
DWIDTH 6 0
BBX 5 5 0 0
BITMAP
70
88
A8
88
70
ENDCHAR
STARTCHAR uni22A2
ENCODING 8866
SWIDTH 640 0
DWIDTH 6 0
BBX 5 5 0 0
BITMAP
80
80
F8
80
80
ENDCHAR
STARTCHAR uni22A3
ENCODING 8867
SWIDTH 640 0
DWIDTH 6 0
BBX 5 5 0 0
BITMAP
08
08
F8
08
08
ENDCHAR
STARTCHAR uni22A4
ENCODING 8868
SWIDTH 640 0
DWIDTH 6 0
BBX 5 6 0 0
BITMAP
F8
20
20
20
20
20
ENDCHAR
STARTCHAR perpendicular
ENCODING 8869
SWIDTH 640 0
DWIDTH 6 0
BBX 5 6 0 0
BITMAP
20
20
20
20
20
F8
ENDCHAR
STARTCHAR uni22A6
ENCODING 8870
SWIDTH 640 0
DWIDTH 6 0
BBX 3 5 1 0
BITMAP
80
80
E0
80
80
ENDCHAR
STARTCHAR uni22A7
ENCODING 8871
SWIDTH 640 0
DWIDTH 6 0
BBX 3 5 1 0
BITMAP
80
E0
80
E0
80
ENDCHAR
STARTCHAR uni22A8
ENCODING 8872
SWIDTH 640 0
DWIDTH 6 0
BBX 5 5 0 0
BITMAP
80
F8
80
F8
80
ENDCHAR
STARTCHAR uni22C0
ENCODING 8896
SWIDTH 640 0
DWIDTH 6 0
BBX 5 8 0 -1
BITMAP
20
20
50
50
50
88
88
88
ENDCHAR
STARTCHAR uni22C1
ENCODING 8897
SWIDTH 640 0
DWIDTH 6 0
BBX 5 8 0 -1
BITMAP
88
88
88
50
50
50
20
20
ENDCHAR
STARTCHAR uni22C2
ENCODING 8898
SWIDTH 640 0
DWIDTH 6 0
BBX 5 8 0 -1
BITMAP
70
88
88
88
88
88
88
88
ENDCHAR
STARTCHAR uni22C3
ENCODING 8899
SWIDTH 640 0
DWIDTH 6 0
BBX 5 8 0 -1
BITMAP
88
88
88
88
88
88
88
70
ENDCHAR
STARTCHAR dotmath
ENCODING 8901
SWIDTH 640 0
DWIDTH 6 0
BBX 1 1 2 2
BITMAP
80
ENDCHAR
STARTCHAR uni22EE
ENCODING 8942
SWIDTH 640 0
DWIDTH 6 0
BBX 1 7 2 -1
BITMAP
80
00
00
80
00
00
80
ENDCHAR
STARTCHAR uni22EF
ENCODING 8943
SWIDTH 640 0
DWIDTH 6 0
BBX 5 1 0 2
BITMAP
A8
ENDCHAR
STARTCHAR uni22F0
ENCODING 8944
SWIDTH 640 0
DWIDTH 6 0
BBX 5 7 0 -1
BITMAP
08
00
00
20
00
00
80
ENDCHAR
STARTCHAR uni22F1
ENCODING 8945
SWIDTH 640 0
DWIDTH 6 0
BBX 5 7 0 -1
BITMAP
80
00
00
20
00
00
08
ENDCHAR
STARTCHAR uni2300
ENCODING 8960
SWIDTH 640 0
DWIDTH 6 0
BBX 5 5 0 0
BITMAP
78
98
A8
C8
F0
ENDCHAR
STARTCHAR house
ENCODING 8962
SWIDTH 640 0
DWIDTH 6 0
BBX 5 6 0 0
BITMAP
20
50
88
88
88
F8
ENDCHAR
STARTCHAR uni2308
ENCODING 8968
SWIDTH 640 0
DWIDTH 6 0
BBX 3 6 1 0
BITMAP
E0
80
80
80
80
80
ENDCHAR
STARTCHAR uni2309
ENCODING 8969
SWIDTH 640 0
DWIDTH 6 0
BBX 3 6 1 0
BITMAP
E0
20
20
20
20
20
ENDCHAR
STARTCHAR uni230A
ENCODING 8970
SWIDTH 640 0
DWIDTH 6 0
BBX 3 6 1 0
BITMAP
80
80
80
80
80
E0
ENDCHAR
STARTCHAR uni230B
ENCODING 8971
SWIDTH 640 0
DWIDTH 6 0
BBX 3 6 1 0
BITMAP
20
20
20
20
20
E0
ENDCHAR
STARTCHAR revlogicalnot
ENCODING 8976
SWIDTH 640 0
DWIDTH 6 0
BBX 4 3 1 0
BITMAP
F0
80
80
ENDCHAR
STARTCHAR integraltp
ENCODING 8992
SWIDTH 640 0
DWIDTH 6 0
BBX 3 8 3 -2
BITMAP
40
A0
80
80
80
80
80
80
ENDCHAR
STARTCHAR integralbt
ENCODING 8993
SWIDTH 640 0
DWIDTH 6 0
BBX 3 8 1 -1
BITMAP
20
20
20
20
20
20
A0
40
ENDCHAR
STARTCHAR uni23BA
ENCODING 9146
SWIDTH 640 0
DWIDTH 6 0
BBX 6 1 0 6
BITMAP
FC
ENDCHAR
STARTCHAR uni23BB
ENCODING 9147
SWIDTH 640 0
DWIDTH 6 0
BBX 6 1 0 4
BITMAP
FC
ENDCHAR
STARTCHAR uni23BC
ENCODING 9148
SWIDTH 640 0
DWIDTH 6 0
BBX 6 1 0 0
BITMAP
FC
ENDCHAR
STARTCHAR uni23BD
ENCODING 9149
SWIDTH 640 0
DWIDTH 6 0
BBX 6 1 0 -2
BITMAP
FC
ENDCHAR
STARTCHAR uni2409
ENCODING 9225
SWIDTH 640 0
DWIDTH 6 0
BBX 5 7 0 -1
BITMAP
A0
E0
A0
00
38
10
10
ENDCHAR
STARTCHAR uni240A
ENCODING 9226
SWIDTH 640 0
DWIDTH 6 0
BBX 5 8 0 -2
BITMAP
80
80
80
C0
38
20
30
20
ENDCHAR
STARTCHAR uni240B
ENCODING 9227
SWIDTH 640 0
DWIDTH 6 0
BBX 5 8 0 -2
BITMAP
A0
A0
40
40
38
10
10
10
ENDCHAR
STARTCHAR uni240C
ENCODING 9228
SWIDTH 640 0
DWIDTH 6 0
BBX 5 8 0 -2
BITMAP
E0
80
C0
80
38
20
30
20
ENDCHAR
STARTCHAR uni240D
ENCODING 9229
SWIDTH 640 0
DWIDTH 6 0
BBX 5 8 0 -2
BITMAP
60
80
60
00
30
28
30
28
ENDCHAR
STARTCHAR uni2424
ENCODING 9252
SWIDTH 640 0
DWIDTH 6 0
BBX 5 8 0 -2
BITMAP
90
D0
B0
90
20
20
20
38
ENDCHAR
STARTCHAR SF100000
ENCODING 9472
SWIDTH 640 0
DWIDTH 6 0
BBX 6 1 0 2
BITMAP
FC
ENDCHAR
STARTCHAR uni2501
ENCODING 9473
SWIDTH 640 0
DWIDTH 6 0
BBX 6 2 0 2
BITMAP
FC
FC
ENDCHAR
STARTCHAR SF110000
ENCODING 9474
SWIDTH 640 0
DWIDTH 6 0
BBX 1 9 3 -2
BITMAP
80
80
80
80
80
80
80
80
80
ENDCHAR
STARTCHAR uni2503
ENCODING 9475
SWIDTH 640 0
DWIDTH 6 0
BBX 2 9 2 -2
BITMAP
C0
C0
C0
C0
C0
C0
C0
C0
C0
ENDCHAR
STARTCHAR SF010000
ENCODING 9484
SWIDTH 640 0
DWIDTH 6 0
BBX 3 5 3 -2
BITMAP
E0
80
80
80
80
ENDCHAR
STARTCHAR SF030000
ENCODING 9488
SWIDTH 640 0
DWIDTH 6 0
BBX 4 5 0 -2
BITMAP
F0
10
10
10
10
ENDCHAR
STARTCHAR SF020000
ENCODING 9492
SWIDTH 640 0
DWIDTH 6 0
BBX 3 5 3 2
BITMAP
80
80
80
80
E0
ENDCHAR
STARTCHAR SF040000
ENCODING 9496
SWIDTH 640 0
DWIDTH 6 0
BBX 4 5 0 2
BITMAP
10
10
10
10
F0
ENDCHAR
STARTCHAR SF080000
ENCODING 9500
SWIDTH 640 0
DWIDTH 6 0
BBX 3 9 3 -2
BITMAP
80
80
80
80
E0
80
80
80
80
ENDCHAR
STARTCHAR SF090000
ENCODING 9508
SWIDTH 640 0
DWIDTH 6 0
BBX 4 9 0 -2
BITMAP
10
10
10
10
F0
10
10
10
10
ENDCHAR
STARTCHAR SF060000
ENCODING 9516
SWIDTH 640 0
DWIDTH 6 0
BBX 6 5 0 -2
BITMAP
FC
10
10
10
10
ENDCHAR
STARTCHAR SF070000
ENCODING 9524
SWIDTH 640 0
DWIDTH 6 0
BBX 6 5 0 2
BITMAP
10
10
10
10
FC
ENDCHAR
STARTCHAR SF050000
ENCODING 9532
SWIDTH 640 0
DWIDTH 6 0
BBX 6 9 0 -2
BITMAP
10
10
10
10
FC
10
10
10
10
ENDCHAR
STARTCHAR uni254C
ENCODING 9548
SWIDTH 640 0
DWIDTH 6 0
BBX 5 1 0 2
BITMAP
D8
ENDCHAR
STARTCHAR uni254D
ENCODING 9549
SWIDTH 640 0
DWIDTH 6 0
BBX 5 2 0 2
BITMAP
D8
D8
ENDCHAR
STARTCHAR uni254E
ENCODING 9550
SWIDTH 640 0
DWIDTH 6 0
BBX 1 8 3 -1
BITMAP
80
80
80
80
00
80
80
80
ENDCHAR
STARTCHAR uni254F
ENCODING 9551
SWIDTH 640 0
DWIDTH 6 0
BBX 2 8 2 -1
BITMAP
C0
C0
C0
C0
00
C0
C0
C0
ENDCHAR
STARTCHAR SF430000
ENCODING 9552
SWIDTH 640 0
DWIDTH 6 0
BBX 6 3 0 1
BITMAP
FC
00
FC
ENDCHAR
STARTCHAR SF240000
ENCODING 9553
SWIDTH 640 0
DWIDTH 6 0
BBX 3 9 2 -2
BITMAP
A0
A0
A0
A0
A0
A0
A0
A0
A0
ENDCHAR
STARTCHAR SF510000
ENCODING 9554
SWIDTH 640 0
DWIDTH 6 0
BBX 3 6 3 -2
BITMAP
E0
80
E0
80
80
80
ENDCHAR
STARTCHAR SF520000
ENCODING 9555
SWIDTH 640 0
DWIDTH 6 0
BBX 4 5 2 -2
BITMAP
F0
A0
A0
A0
A0
ENDCHAR
STARTCHAR SF390000
ENCODING 9556
SWIDTH 640 0
DWIDTH 6 0
BBX 4 6 2 -2
BITMAP
F0
80
B0
A0
A0
A0
ENDCHAR
STARTCHAR SF220000
ENCODING 9557
SWIDTH 640 0
DWIDTH 6 0
BBX 4 6 0 -2
BITMAP
F0
10
F0
10
10
10
ENDCHAR
STARTCHAR SF210000
ENCODING 9558
SWIDTH 640 0
DWIDTH 6 0
BBX 5 5 0 -2
BITMAP
F8
28
28
28
28
ENDCHAR
STARTCHAR SF250000
ENCODING 9559
SWIDTH 640 0
DWIDTH 6 0
BBX 5 6 0 -2
BITMAP
F8
08
E8
28
28
28
ENDCHAR
STARTCHAR SF500000
ENCODING 9560
SWIDTH 640 0
DWIDTH 6 0
BBX 3 6 3 1
BITMAP
80
80
80
E0
80
E0
ENDCHAR
STARTCHAR SF490000
ENCODING 9561
SWIDTH 640 0
DWIDTH 6 0
BBX 4 5 2 2
BITMAP
A0
A0
A0
A0
F0
ENDCHAR
STARTCHAR SF380000
ENCODING 9562
SWIDTH 640 0
DWIDTH 6 0
BBX 4 6 2 1
BITMAP
A0
A0
A0
B0
80
F0
ENDCHAR
STARTCHAR SF280000
ENCODING 9563
SWIDTH 640 0
DWIDTH 6 0
BBX 4 6 0 1
BITMAP
10
10
10
F0
10
F0
ENDCHAR
STARTCHAR SF270000
ENCODING 9564
SWIDTH 640 0
DWIDTH 6 0
BBX 5 5 0 2
BITMAP
28
28
28
28
F8
ENDCHAR
STARTCHAR SF260000
ENCODING 9565
SWIDTH 640 0
DWIDTH 6 0
BBX 5 6 0 1
BITMAP
28
28
28
E8
08
F8
ENDCHAR
STARTCHAR SF360000
ENCODING 9566
SWIDTH 640 0
DWIDTH 6 0
BBX 3 9 3 -2
BITMAP
80
80
80
E0
80
E0
80
80
80
ENDCHAR
STARTCHAR SF370000
ENCODING 9567
SWIDTH 640 0
DWIDTH 6 0
BBX 4 9 2 -2
BITMAP
A0
A0
A0
A0
B0
A0
A0
A0
A0
ENDCHAR
STARTCHAR SF420000
ENCODING 9568
SWIDTH 640 0
DWIDTH 6 0
BBX 4 9 2 -2
BITMAP
A0
A0
A0
B0
80
B0
A0
A0
A0
ENDCHAR
STARTCHAR SF190000
ENCODING 9569
SWIDTH 640 0
DWIDTH 6 0
BBX 4 9 0 -2
BITMAP
10
10
10
F0
10
F0
10
10
10
ENDCHAR
STARTCHAR SF200000
ENCODING 9570
SWIDTH 640 0
DWIDTH 6 0
BBX 5 9 0 -2
BITMAP
28
28
28
28
E8
28
28
28
28
ENDCHAR
STARTCHAR SF230000
ENCODING 9571
SWIDTH 640 0
DWIDTH 6 0
BBX 5 9 0 -2
BITMAP
28
28
28
E8
08
E8
28
28
28
ENDCHAR
STARTCHAR SF470000
ENCODING 9572
SWIDTH 640 0
DWIDTH 6 0
BBX 6 6 0 -2
BITMAP
FC
00
FC
10
10
10
ENDCHAR
STARTCHAR SF480000
ENCODING 9573
SWIDTH 640 0
DWIDTH 6 0
BBX 6 5 0 -2
BITMAP
FC
28
28
28
28
ENDCHAR
STARTCHAR SF410000
ENCODING 9574
SWIDTH 640 0
DWIDTH 6 0
BBX 6 6 0 -2
BITMAP
FC
00
EC
28
28
28
ENDCHAR
STARTCHAR SF450000
ENCODING 9575
SWIDTH 640 0
DWIDTH 6 0
BBX 6 6 0 1
BITMAP
10
10
10
FC
00
FC
ENDCHAR
STARTCHAR SF460000
ENCODING 9576
SWIDTH 640 0
DWIDTH 6 0
BBX 6 5 0 2
BITMAP
28
28
28
28
FC
ENDCHAR
STARTCHAR SF400000
ENCODING 9577
SWIDTH 640 0
DWIDTH 6 0
BBX 6 6 0 1
BITMAP
28
28
28
EC
00
FC
ENDCHAR
STARTCHAR SF540000
ENCODING 9578
SWIDTH 640 0
DWIDTH 6 0
BBX 6 9 0 -2
BITMAP
10
10
10
FC
10
FC
10
10
10
ENDCHAR
STARTCHAR SF530000
ENCODING 9579
SWIDTH 640 0
DWIDTH 6 0
BBX 6 9 0 -2
BITMAP
28
28
28
28
FC
28
28
28
28
ENDCHAR
STARTCHAR SF440000
ENCODING 9580
SWIDTH 640 0
DWIDTH 6 0
BBX 6 9 0 -2
BITMAP
28
28
28
EC
00
EC
28
28
28
ENDCHAR
STARTCHAR uni256D
ENCODING 9581
SWIDTH 640 0
DWIDTH 6 0
BBX 3 5 3 -2
BITMAP
20
40
80
80
80
ENDCHAR
STARTCHAR uni256E
ENCODING 9582
SWIDTH 640 0
DWIDTH 6 0
BBX 4 5 0 -2
BITMAP
C0
20
10
10
10
ENDCHAR
STARTCHAR uni256F
ENCODING 9583
SWIDTH 640 0
DWIDTH 6 0
BBX 4 5 0 2
BITMAP
10
10
10
20
C0
ENDCHAR
STARTCHAR uni2570
ENCODING 9584
SWIDTH 640 0
DWIDTH 6 0
BBX 3 5 3 2
BITMAP
80
80
80
40
20
ENDCHAR
STARTCHAR uni2571
ENCODING 9585
SWIDTH 640 0
DWIDTH 6 0
BBX 6 9 0 -2
BITMAP
04
04
08
10
10
20
40
40
80
ENDCHAR
STARTCHAR uni2572
ENCODING 9586
SWIDTH 640 0
DWIDTH 6 0
BBX 6 9 0 -2
BITMAP
80
80
40
20
20
10
08
08
04
ENDCHAR
STARTCHAR uni2573
ENCODING 9587
SWIDTH 640 0
DWIDTH 6 0
BBX 6 9 0 -2
BITMAP
84
84
48
30
30
30
48
48
84
ENDCHAR
STARTCHAR upblock
ENCODING 9600
SWIDTH 640 0
DWIDTH 6 0
BBX 6 4 0 3
BITMAP
FC
FC
FC
FC
ENDCHAR
STARTCHAR uni2581
ENCODING 9601
SWIDTH 640 0
DWIDTH 6 0
BBX 6 1 0 -2
BITMAP
FC
ENDCHAR
STARTCHAR uni2582
ENCODING 9602
SWIDTH 640 0
DWIDTH 6 0
BBX 6 2 0 -2
BITMAP
FC
FC
ENDCHAR
STARTCHAR uni2583
ENCODING 9603
SWIDTH 640 0
DWIDTH 6 0
BBX 6 4 0 -2
BITMAP
FC
FC
FC
FC
ENDCHAR
STARTCHAR dnblock
ENCODING 9604
SWIDTH 640 0
DWIDTH 6 0
BBX 6 5 0 -2
BITMAP
FC
FC
FC
FC
FC
ENDCHAR
STARTCHAR uni2585
ENCODING 9605
SWIDTH 640 0
DWIDTH 6 0
BBX 6 6 0 -2
BITMAP
FC
FC
FC
FC
FC
FC
ENDCHAR
STARTCHAR uni2586
ENCODING 9606
SWIDTH 640 0
DWIDTH 6 0
BBX 6 7 0 -2
BITMAP
FC
FC
FC
FC
FC
FC
FC
ENDCHAR
STARTCHAR uni2587
ENCODING 9607
SWIDTH 640 0
DWIDTH 6 0
BBX 6 8 0 -2
BITMAP
FC
FC
FC
FC
FC
FC
FC
FC
ENDCHAR
STARTCHAR block
ENCODING 9608
SWIDTH 640 0
DWIDTH 6 0
BBX 6 9 0 -2
BITMAP
FC
FC
FC
FC
FC
FC
FC
FC
FC
ENDCHAR
STARTCHAR uni2589
ENCODING 9609
SWIDTH 640 0
DWIDTH 6 0
BBX 5 9 0 -2
BITMAP
F8
F8
F8
F8
F8
F8
F8
F8
F8
ENDCHAR
STARTCHAR uni258A
ENCODING 9610
SWIDTH 640 0
DWIDTH 6 0
BBX 4 9 0 -2
BITMAP
F0
F0
F0
F0
F0
F0
F0
F0
F0
ENDCHAR
STARTCHAR uni258B
ENCODING 9611
SWIDTH 640 0
DWIDTH 6 0
BBX 4 9 0 -2
BITMAP
F0
F0
F0
F0
F0
F0
F0
F0
F0
ENDCHAR
STARTCHAR lfblock
ENCODING 9612
SWIDTH 640 0
DWIDTH 6 0
BBX 3 9 0 -2
BITMAP
E0
E0
E0
E0
E0
E0
E0
E0
E0
ENDCHAR
STARTCHAR uni258D
ENCODING 9613
SWIDTH 640 0
DWIDTH 6 0
BBX 2 9 0 -2
BITMAP
C0
C0
C0
C0
C0
C0
C0
C0
C0
ENDCHAR
STARTCHAR uni258E
ENCODING 9614
SWIDTH 640 0
DWIDTH 6 0
BBX 2 9 0 -2
BITMAP
C0
C0
C0
C0
C0
C0
C0
C0
C0
ENDCHAR
STARTCHAR uni258F
ENCODING 9615
SWIDTH 640 0
DWIDTH 6 0
BBX 1 9 0 -2
BITMAP
80
80
80
80
80
80
80
80
80
ENDCHAR
STARTCHAR rtblock
ENCODING 9616
SWIDTH 640 0
DWIDTH 6 0
BBX 3 9 3 -2
BITMAP
E0
E0
E0
E0
E0
E0
E0
E0
E0
ENDCHAR
STARTCHAR ltshade
ENCODING 9617
SWIDTH 640 0
DWIDTH 6 0
BBX 6 9 0 -2
BITMAP
A8
00
54
00
A8
00
54
00
A8
ENDCHAR
STARTCHAR shade
ENCODING 9618
SWIDTH 640 0
DWIDTH 6 0
BBX 6 9 0 -2
BITMAP
54
A8
54
A8
54
A8
54
A8
54
ENDCHAR
STARTCHAR dkshade
ENCODING 9619
SWIDTH 640 0
DWIDTH 6 0
BBX 6 9 0 -2
BITMAP
FC
A8
FC
54
FC
A8
FC
54
FC
ENDCHAR
STARTCHAR uni2594
ENCODING 9620
SWIDTH 640 0
DWIDTH 6 0
BBX 6 1 0 6
BITMAP
FC
ENDCHAR
STARTCHAR uni2595
ENCODING 9621
SWIDTH 640 0
DWIDTH 6 0
BBX 1 9 5 -2
BITMAP
80
80
80
80
80
80
80
80
80
ENDCHAR
STARTCHAR uni2596
ENCODING 9622
SWIDTH 640 0
DWIDTH 6 0
BBX 3 5 0 -2
BITMAP
E0
E0
E0
E0
E0
ENDCHAR
STARTCHAR uni2597
ENCODING 9623
SWIDTH 640 0
DWIDTH 6 0
BBX 3 5 3 -2
BITMAP
E0
E0
E0
E0
E0
ENDCHAR
STARTCHAR uni2598
ENCODING 9624
SWIDTH 640 0
DWIDTH 6 0
BBX 3 4 0 3
BITMAP
E0
E0
E0
E0
ENDCHAR
STARTCHAR uni2599
ENCODING 9625
SWIDTH 640 0
DWIDTH 6 0
BBX 6 9 0 -2
BITMAP
E0
E0
E0
E0
FC
FC
FC
FC
FC
ENDCHAR
STARTCHAR uni259A
ENCODING 9626
SWIDTH 640 0
DWIDTH 6 0
BBX 6 9 0 -2
BITMAP
E0
E0
E0
E0
1C
1C
1C
1C
1C
ENDCHAR
STARTCHAR uni259B
ENCODING 9627
SWIDTH 640 0
DWIDTH 6 0
BBX 6 9 0 -2
BITMAP
FC
FC
FC
FC
E0
E0
E0
E0
E0
ENDCHAR
STARTCHAR uni259C
ENCODING 9628
SWIDTH 640 0
DWIDTH 6 0
BBX 6 9 0 -2
BITMAP
FC
FC
FC
FC
1C
1C
1C
1C
1C
ENDCHAR
STARTCHAR uni259D
ENCODING 9629
SWIDTH 640 0
DWIDTH 6 0
BBX 3 4 3 3
BITMAP
E0
E0
E0
E0
ENDCHAR
STARTCHAR uni259E
ENCODING 9630
SWIDTH 640 0
DWIDTH 6 0
BBX 6 9 0 -2
BITMAP
1C
1C
1C
1C
E0
E0
E0
E0
E0
ENDCHAR
STARTCHAR uni259F
ENCODING 9631
SWIDTH 640 0
DWIDTH 6 0
BBX 6 9 0 -2
BITMAP
1C
1C
1C
1C
FC
FC
FC
FC
FC
ENDCHAR
STARTCHAR filledbox
ENCODING 9632
SWIDTH 640 0
DWIDTH 6 0
BBX 5 5 0 0
BITMAP
F8
F8
F8
F8
F8
ENDCHAR
STARTCHAR H22073
ENCODING 9633
SWIDTH 640 0
DWIDTH 6 0
BBX 5 5 0 0
BITMAP
F8
88
88
88
F8
ENDCHAR
STARTCHAR uni25A2
ENCODING 9634
SWIDTH 640 0
DWIDTH 6 0
BBX 5 5 0 0
BITMAP
70
88
88
88
70
ENDCHAR
STARTCHAR uni25A3
ENCODING 9635
SWIDTH 640 0
DWIDTH 6 0
BBX 5 5 0 0
BITMAP
F8
88
A8
88
F8
ENDCHAR
STARTCHAR H18543
ENCODING 9642
SWIDTH 640 0
DWIDTH 6 0
BBX 3 3 1 1
BITMAP
E0
E0
E0
ENDCHAR
STARTCHAR H18551
ENCODING 9643
SWIDTH 640 0
DWIDTH 6 0
BBX 3 3 1 1
BITMAP
E0
A0
E0
ENDCHAR
STARTCHAR filledrect
ENCODING 9644
SWIDTH 640 0
DWIDTH 6 0
BBX 5 3 0 1
BITMAP
F8
F8
F8
ENDCHAR
STARTCHAR uni25AD
ENCODING 9645
SWIDTH 640 0
DWIDTH 6 0
BBX 5 3 0 1
BITMAP
F8
88
F8
ENDCHAR
STARTCHAR uni25AE
ENCODING 9646
SWIDTH 640 0
DWIDTH 6 0
BBX 4 6 1 0
BITMAP
F0
F0
F0
F0
F0
F0
ENDCHAR
STARTCHAR uni25AF
ENCODING 9647
SWIDTH 640 0
DWIDTH 6 0
BBX 4 6 1 0
BITMAP
F0
90
90
90
90
F0
ENDCHAR
STARTCHAR uni25B0
ENCODING 9648
SWIDTH 640 0
DWIDTH 6 0
BBX 5 3 0 1
BITMAP
78
F8
F0
ENDCHAR
STARTCHAR uni25B1
ENCODING 9649
SWIDTH 640 0
DWIDTH 6 0
BBX 5 3 0 1
BITMAP
78
88
F0
ENDCHAR
STARTCHAR triagup
ENCODING 9650
SWIDTH 640 0
DWIDTH 6 0
BBX 5 6 0 0
BITMAP
20
20
70
70
F8
F8
ENDCHAR
STARTCHAR uni25B3
ENCODING 9651
SWIDTH 640 0
DWIDTH 6 0
BBX 5 6 0 0
BITMAP
20
20
50
50
88
F8
ENDCHAR
STARTCHAR uni25B4
ENCODING 9652
SWIDTH 640 0
DWIDTH 6 0
BBX 3 4 1 1
BITMAP
40
40
E0
E0
ENDCHAR
STARTCHAR uni25B5
ENCODING 9653
SWIDTH 640 0
DWIDTH 6 0
BBX 3 4 1 1
BITMAP
40
40
A0
E0
ENDCHAR
STARTCHAR uni25B6
ENCODING 9654
SWIDTH 640 0
DWIDTH 6 0
BBX 5 5 0 0
BITMAP
C0
F0
F8
F0
C0
ENDCHAR
STARTCHAR uni25B7
ENCODING 9655
SWIDTH 640 0
DWIDTH 6 0
BBX 5 5 0 0
BITMAP
C0
B0
88
B0
C0
ENDCHAR
STARTCHAR uni25B8
ENCODING 9656
SWIDTH 640 0
DWIDTH 6 0
BBX 4 3 1 1
BITMAP
C0
F0
C0
ENDCHAR
STARTCHAR uni25B9
ENCODING 9657
SWIDTH 640 0
DWIDTH 6 0
BBX 4 3 1 1
BITMAP
C0
B0
C0
ENDCHAR
STARTCHAR triagrt
ENCODING 9658
SWIDTH 640 0
DWIDTH 6 0
BBX 5 3 0 1
BITMAP
E0
F8
E0
ENDCHAR
STARTCHAR uni25BB
ENCODING 9659
SWIDTH 640 0
DWIDTH 6 0
BBX 5 3 0 1
BITMAP
E0
98
E0
ENDCHAR
STARTCHAR triagdn
ENCODING 9660
SWIDTH 640 0
DWIDTH 6 0
BBX 5 6 0 0
BITMAP
F8
F8
70
70
20
20
ENDCHAR
STARTCHAR uni25BD
ENCODING 9661
SWIDTH 640 0
DWIDTH 6 0
BBX 5 6 0 0
BITMAP
F8
88
50
50
20
20
ENDCHAR
STARTCHAR uni25BE
ENCODING 9662
SWIDTH 640 0
DWIDTH 6 0
BBX 3 4 1 1
BITMAP
E0
E0
40
40
ENDCHAR
STARTCHAR uni25BF
ENCODING 9663
SWIDTH 640 0
DWIDTH 6 0
BBX 3 4 1 1
BITMAP
E0
A0
40
40
ENDCHAR
STARTCHAR uni25C0
ENCODING 9664
SWIDTH 640 0
DWIDTH 6 0
BBX 5 5 0 0
BITMAP
18
78
F8
78
18
ENDCHAR
STARTCHAR uni25C1
ENCODING 9665
SWIDTH 640 0
DWIDTH 6 0
BBX 5 5 0 0
BITMAP
18
68
88
68
18
ENDCHAR
STARTCHAR uni25C2
ENCODING 9666
SWIDTH 640 0
DWIDTH 6 0
BBX 4 3 1 1
BITMAP
30
F0
30
ENDCHAR
STARTCHAR uni25C3
ENCODING 9667
SWIDTH 640 0
DWIDTH 6 0
BBX 4 3 1 1
BITMAP
30
D0
30
ENDCHAR
STARTCHAR triaglf
ENCODING 9668
SWIDTH 640 0
DWIDTH 6 0
BBX 5 3 0 1
BITMAP
38
F8
38
ENDCHAR
STARTCHAR uni25C5
ENCODING 9669
SWIDTH 640 0
DWIDTH 6 0
BBX 5 3 0 1
BITMAP
38
C8
38
ENDCHAR
STARTCHAR uni25C6
ENCODING 9670
SWIDTH 640 0
DWIDTH 6 0
BBX 6 5 0 0
BITMAP
30
78
FC
78
30
ENDCHAR
STARTCHAR lozenge
ENCODING 9674
SWIDTH 640 0
DWIDTH 6 0
BBX 5 7 0 -1
BITMAP
20
50
50
88
50
50
20
ENDCHAR
STARTCHAR circle
ENCODING 9675
SWIDTH 640 0
DWIDTH 6 0
BBX 5 5 0 0
BITMAP
70
88
88
88
70
ENDCHAR
STARTCHAR H18533
ENCODING 9679
SWIDTH 640 0
DWIDTH 6 0
BBX 5 5 0 0
BITMAP
70
F8
F8
F8
70
ENDCHAR
STARTCHAR invbullet
ENCODING 9688
SWIDTH 640 0
DWIDTH 6 0
BBX 6 9 0 -2
BITMAP
FC
FC
CC
84
84
CC
FC
FC
FC
ENDCHAR
STARTCHAR invcircle
ENCODING 9689
SWIDTH 640 0
DWIDTH 6 0
BBX 6 9 0 -2
BITMAP
FC
FC
CC
B4
B4
CC
FC
FC
FC
ENDCHAR
STARTCHAR openbullet
ENCODING 9702
SWIDTH 640 0
DWIDTH 6 0
BBX 4 4 1 1
BITMAP
60
90
90
60
ENDCHAR
STARTCHAR uni2600
ENCODING 9728
SWIDTH 640 0
DWIDTH 6 0
BBX 5 7 0 -1
BITMAP
20
A8
70
F8
70
A8
20
ENDCHAR
STARTCHAR uni2639
ENCODING 9785
SWIDTH 640 0
DWIDTH 6 0
BBX 6 8 0 -1
BITMAP
78
84
CC
84
B4
CC
84
78
ENDCHAR
STARTCHAR smileface
ENCODING 9786
SWIDTH 640 0
DWIDTH 6 0
BBX 6 8 0 -1
BITMAP
78
84
CC
84
CC
B4
84
78
ENDCHAR
STARTCHAR invsmileface
ENCODING 9787
SWIDTH 640 0
DWIDTH 6 0
BBX 6 8 0 -1
BITMAP
78
FC
B4
FC
B4
CC
FC
78
ENDCHAR
STARTCHAR sun
ENCODING 9788
SWIDTH 640 0
DWIDTH 6 0
BBX 5 7 0 -1
BITMAP
20
A8
70
D8
70
A8
20
ENDCHAR
STARTCHAR uni263F
ENCODING 9791
SWIDTH 640 0
DWIDTH 6 0
BBX 5 8 0 -1
BITMAP
88
70
88
88
70
20
F8
20
ENDCHAR
STARTCHAR female
ENCODING 9792
SWIDTH 640 0
DWIDTH 6 0
BBX 5 7 0 -1
BITMAP
70
88
88
70
20
F8
20
ENDCHAR
STARTCHAR uni2641
ENCODING 9793
SWIDTH 640 0
DWIDTH 6 0
BBX 5 7 0 -1
BITMAP
20
F8
20
70
88
88
70
ENDCHAR
STARTCHAR male
ENCODING 9794
SWIDTH 640 0
DWIDTH 6 0
BBX 6 7 0 -1
BITMAP
1C
0C
14
70
88
88
70
ENDCHAR
STARTCHAR spade
ENCODING 9824
SWIDTH 640 0
DWIDTH 6 0
BBX 5 6 0 0
BITMAP
20
70
F8
F8
20
70
ENDCHAR
STARTCHAR uni2661
ENCODING 9825
SWIDTH 640 0
DWIDTH 6 0
BBX 5 6 0 0
BITMAP
50
A8
88
88
50
20
ENDCHAR
STARTCHAR uni2662
ENCODING 9826
SWIDTH 640 0
DWIDTH 6 0
BBX 5 5 0 0
BITMAP
20
50
88
50
20
ENDCHAR
STARTCHAR club
ENCODING 9827
SWIDTH 640 0
DWIDTH 6 0
BBX 5 7 0 0
BITMAP
20
70
A8
F8
A8
20
70
ENDCHAR
STARTCHAR uni2664
ENCODING 9828
SWIDTH 640 0
DWIDTH 6 0
BBX 5 6 0 0
BITMAP
20
50
88
F8
20
70
ENDCHAR
STARTCHAR heart
ENCODING 9829
SWIDTH 640 0
DWIDTH 6 0
BBX 5 6 0 0
BITMAP
50
F8
F8
F8
70
20
ENDCHAR
STARTCHAR diamond
ENCODING 9830
SWIDTH 640 0
DWIDTH 6 0
BBX 5 5 0 0
BITMAP
20
70
F8
70
20
ENDCHAR
STARTCHAR uni2669
ENCODING 9833
SWIDTH 640 0
DWIDTH 6 0
BBX 3 6 1 0
BITMAP
20
20
20
20
E0
C0
ENDCHAR
STARTCHAR musicalnote
ENCODING 9834
SWIDTH 640 0
DWIDTH 6 0
BBX 5 6 0 0
BITMAP
30
28
20
20
E0
C0
ENDCHAR
STARTCHAR musicalnotedbl
ENCODING 9835
SWIDTH 640 0
DWIDTH 6 0
BBX 5 6 0 0
BITMAP
60
58
48
C8
D8
18
ENDCHAR
STARTCHAR uni27E8
ENCODING 10216
SWIDTH 640 0
DWIDTH 6 0
BBX 2 7 2 -1
BITMAP
40
40
80
80
80
40
40
ENDCHAR
STARTCHAR uni27E9
ENCODING 10217
SWIDTH 640 0
DWIDTH 6 0
BBX 2 7 2 -1
BITMAP
80
80
40
40
40
80
80
ENDCHAR
STARTCHAR uni2800
ENCODING 10240
SWIDTH 640 0
DWIDTH 6 0
BBX 1 1 5 -2
BITMAP
00
ENDCHAR
STARTCHAR uni2801
ENCODING 10241
SWIDTH 640 0
DWIDTH 6 0
BBX 1 1 1 5
BITMAP
80
ENDCHAR
STARTCHAR uni2802
ENCODING 10242
SWIDTH 640 0
DWIDTH 6 0
BBX 1 1 1 3
BITMAP
80
ENDCHAR
STARTCHAR uni2803
ENCODING 10243
SWIDTH 640 0
DWIDTH 6 0
BBX 1 3 1 3
BITMAP
80
00
80
ENDCHAR
STARTCHAR uni2804
ENCODING 10244
SWIDTH 640 0
DWIDTH 6 0
BBX 1 1 1 1
BITMAP
80
ENDCHAR
STARTCHAR uni2805
ENCODING 10245
SWIDTH 640 0
DWIDTH 6 0
BBX 1 5 1 1
BITMAP
80
00
00
00
80
ENDCHAR
STARTCHAR uni2806
ENCODING 10246
SWIDTH 640 0
DWIDTH 6 0
BBX 1 3 1 1
BITMAP
80
00
80
ENDCHAR
STARTCHAR uni2807
ENCODING 10247
SWIDTH 640 0
DWIDTH 6 0
BBX 1 5 1 1
BITMAP
80
00
80
00
80
ENDCHAR
STARTCHAR uni2808
ENCODING 10248
SWIDTH 640 0
DWIDTH 6 0
BBX 1 1 3 5
BITMAP
80
ENDCHAR
STARTCHAR uni2809
ENCODING 10249
SWIDTH 640 0
DWIDTH 6 0
BBX 3 1 1 5
BITMAP
A0
ENDCHAR
STARTCHAR uni280A
ENCODING 10250
SWIDTH 640 0
DWIDTH 6 0
BBX 3 3 1 3
BITMAP
20
00
80
ENDCHAR
STARTCHAR uni280B
ENCODING 10251
SWIDTH 640 0
DWIDTH 6 0
BBX 3 3 1 3
BITMAP
A0
00
80
ENDCHAR
STARTCHAR uni280C
ENCODING 10252
SWIDTH 640 0
DWIDTH 6 0
BBX 3 5 1 1
BITMAP
20
00
00
00
80
ENDCHAR
STARTCHAR uni280D
ENCODING 10253
SWIDTH 640 0
DWIDTH 6 0
BBX 3 5 1 1
BITMAP
A0
00
00
00
80
ENDCHAR
STARTCHAR uni280E
ENCODING 10254
SWIDTH 640 0
DWIDTH 6 0
BBX 3 5 1 1
BITMAP
20
00
80
00
80
ENDCHAR
STARTCHAR uni280F
ENCODING 10255
SWIDTH 640 0
DWIDTH 6 0
BBX 3 5 1 1
BITMAP
A0
00
80
00
80
ENDCHAR
STARTCHAR uni2810
ENCODING 10256
SWIDTH 640 0
DWIDTH 6 0
BBX 1 1 3 3
BITMAP
80
ENDCHAR
STARTCHAR uni2811
ENCODING 10257
SWIDTH 640 0
DWIDTH 6 0
BBX 3 3 1 3
BITMAP
80
00
20
ENDCHAR
STARTCHAR uni2812
ENCODING 10258
SWIDTH 640 0
DWIDTH 6 0
BBX 3 1 1 3
BITMAP
A0
ENDCHAR
STARTCHAR uni2813
ENCODING 10259
SWIDTH 640 0
DWIDTH 6 0
BBX 3 3 1 3
BITMAP
80
00
A0
ENDCHAR
STARTCHAR uni2814
ENCODING 10260
SWIDTH 640 0
DWIDTH 6 0
BBX 3 3 1 1
BITMAP
20
00
80
ENDCHAR
STARTCHAR uni2815
ENCODING 10261
SWIDTH 640 0
DWIDTH 6 0
BBX 3 5 1 1
BITMAP
80
00
20
00
80
ENDCHAR
STARTCHAR uni2816
ENCODING 10262
SWIDTH 640 0
DWIDTH 6 0
BBX 3 3 1 1
BITMAP
A0
00
80
ENDCHAR
STARTCHAR uni2817
ENCODING 10263
SWIDTH 640 0
DWIDTH 6 0
BBX 3 5 1 1
BITMAP
80
00
A0
00
80
ENDCHAR
STARTCHAR uni2818
ENCODING 10264
SWIDTH 640 0
DWIDTH 6 0
BBX 1 3 3 3
BITMAP
80
00
80
ENDCHAR
STARTCHAR uni2819
ENCODING 10265
SWIDTH 640 0
DWIDTH 6 0
BBX 3 3 1 3
BITMAP
A0
00
20
ENDCHAR
STARTCHAR uni281A
ENCODING 10266
SWIDTH 640 0
DWIDTH 6 0
BBX 3 3 1 3
BITMAP
20
00
A0
ENDCHAR
STARTCHAR uni281B
ENCODING 10267
SWIDTH 640 0
DWIDTH 6 0
BBX 3 3 1 3
BITMAP
A0
00
A0
ENDCHAR
STARTCHAR uni281C
ENCODING 10268
SWIDTH 640 0
DWIDTH 6 0
BBX 3 5 1 1
BITMAP
20
00
20
00
80
ENDCHAR
STARTCHAR uni281D
ENCODING 10269
SWIDTH 640 0
DWIDTH 6 0
BBX 3 5 1 1
BITMAP
A0
00
20
00
80
ENDCHAR
STARTCHAR uni281E
ENCODING 10270
SWIDTH 640 0
DWIDTH 6 0
BBX 3 5 1 1
BITMAP
20
00
A0
00
80
ENDCHAR
STARTCHAR uni281F
ENCODING 10271
SWIDTH 640 0
DWIDTH 6 0
BBX 3 5 1 1
BITMAP
A0
00
A0
00
80
ENDCHAR
STARTCHAR uni2820
ENCODING 10272
SWIDTH 640 0
DWIDTH 6 0
BBX 1 1 3 1
BITMAP
80
ENDCHAR
STARTCHAR uni2821
ENCODING 10273
SWIDTH 640 0
DWIDTH 6 0
BBX 3 5 1 1
BITMAP
80
00
00
00
20
ENDCHAR
STARTCHAR uni2822
ENCODING 10274
SWIDTH 640 0
DWIDTH 6 0
BBX 3 3 1 1
BITMAP
80
00
20
ENDCHAR
STARTCHAR uni2823
ENCODING 10275
SWIDTH 640 0
DWIDTH 6 0
BBX 3 5 1 1
BITMAP
80
00
80
00
20
ENDCHAR
STARTCHAR uni2824
ENCODING 10276
SWIDTH 640 0
DWIDTH 6 0
BBX 3 1 1 1
BITMAP
A0
ENDCHAR
STARTCHAR uni2825
ENCODING 10277
SWIDTH 640 0
DWIDTH 6 0
BBX 3 5 1 1
BITMAP
80
00
00
00
A0
ENDCHAR
STARTCHAR uni2826
ENCODING 10278
SWIDTH 640 0
DWIDTH 6 0
BBX 3 3 1 1
BITMAP
80
00
A0
ENDCHAR
STARTCHAR uni2827
ENCODING 10279
SWIDTH 640 0
DWIDTH 6 0
BBX 3 5 1 1
BITMAP
80
00
80
00
A0
ENDCHAR
STARTCHAR uni2828
ENCODING 10280
SWIDTH 640 0
DWIDTH 6 0
BBX 1 5 3 1
BITMAP
80
00
00
00
80
ENDCHAR
STARTCHAR uni2829
ENCODING 10281
SWIDTH 640 0
DWIDTH 6 0
BBX 3 5 1 1
BITMAP
A0
00
00
00
20
ENDCHAR
STARTCHAR uni282A
ENCODING 10282
SWIDTH 640 0
DWIDTH 6 0
BBX 3 5 1 1
BITMAP
20
00
80
00
20
ENDCHAR
STARTCHAR uni282B
ENCODING 10283
SWIDTH 640 0
DWIDTH 6 0
BBX 3 5 1 1
BITMAP
A0
00
80
00
20
ENDCHAR
STARTCHAR uni282C
ENCODING 10284
SWIDTH 640 0
DWIDTH 6 0
BBX 3 5 1 1
BITMAP
20
00
00
00
A0
ENDCHAR
STARTCHAR uni282D
ENCODING 10285
SWIDTH 640 0
DWIDTH 6 0
BBX 3 5 1 1
BITMAP
A0
00
00
00
A0
ENDCHAR
STARTCHAR uni282E
ENCODING 10286
SWIDTH 640 0
DWIDTH 6 0
BBX 3 5 1 1
BITMAP
20
00
80
00
A0
ENDCHAR
STARTCHAR uni282F
ENCODING 10287
SWIDTH 640 0
DWIDTH 6 0
BBX 3 5 1 1
BITMAP
A0
00
80
00
A0
ENDCHAR
STARTCHAR uni2830
ENCODING 10288
SWIDTH 640 0
DWIDTH 6 0
BBX 1 3 3 1
BITMAP
80
00
80
ENDCHAR
STARTCHAR uni2831
ENCODING 10289
SWIDTH 640 0
DWIDTH 6 0
BBX 3 5 1 1
BITMAP
80
00
20
00
20
ENDCHAR
STARTCHAR uni2832
ENCODING 10290
SWIDTH 640 0
DWIDTH 6 0
BBX 3 3 1 1
BITMAP
A0
00
20
ENDCHAR
STARTCHAR uni2833
ENCODING 10291
SWIDTH 640 0
DWIDTH 6 0
BBX 3 5 1 1
BITMAP
80
00
A0
00
20
ENDCHAR
STARTCHAR uni2834
ENCODING 10292
SWIDTH 640 0
DWIDTH 6 0
BBX 3 3 1 1
BITMAP
20
00
A0
ENDCHAR
STARTCHAR uni2835
ENCODING 10293
SWIDTH 640 0
DWIDTH 6 0
BBX 3 5 1 1
BITMAP
80
00
20
00
A0
ENDCHAR
STARTCHAR uni2836
ENCODING 10294
SWIDTH 640 0
DWIDTH 6 0
BBX 3 3 1 1
BITMAP
A0
00
A0
ENDCHAR
STARTCHAR uni2837
ENCODING 10295
SWIDTH 640 0
DWIDTH 6 0
BBX 3 5 1 1
BITMAP
80
00
A0
00
A0
ENDCHAR
STARTCHAR uni2838
ENCODING 10296
SWIDTH 640 0
DWIDTH 6 0
BBX 1 5 3 1
BITMAP
80
00
80
00
80
ENDCHAR
STARTCHAR uni2839
ENCODING 10297
SWIDTH 640 0
DWIDTH 6 0
BBX 3 5 1 1
BITMAP
A0
00
20
00
20
ENDCHAR
STARTCHAR uni283A
ENCODING 10298
SWIDTH 640 0
DWIDTH 6 0
BBX 3 5 1 1
BITMAP
20
00
A0
00
20
ENDCHAR
STARTCHAR uni283B
ENCODING 10299
SWIDTH 640 0
DWIDTH 6 0
BBX 3 5 1 1
BITMAP
A0
00
A0
00
20
ENDCHAR
STARTCHAR uni283C
ENCODING 10300
SWIDTH 640 0
DWIDTH 6 0
BBX 3 5 1 1
BITMAP
20
00
20
00
A0
ENDCHAR
STARTCHAR uni283D
ENCODING 10301
SWIDTH 640 0
DWIDTH 6 0
BBX 3 5 1 1
BITMAP
A0
00
20
00
A0
ENDCHAR
STARTCHAR uni283E
ENCODING 10302
SWIDTH 640 0
DWIDTH 6 0
BBX 3 5 1 1
BITMAP
20
00
A0
00
A0
ENDCHAR
STARTCHAR uni283F
ENCODING 10303
SWIDTH 640 0
DWIDTH 6 0
BBX 3 5 1 1
BITMAP
A0
00
A0
00
A0
ENDCHAR
STARTCHAR uni2840
ENCODING 10304
SWIDTH 640 0
DWIDTH 6 0
BBX 1 1 1 -1
BITMAP
80
ENDCHAR
STARTCHAR uni2841
ENCODING 10305
SWIDTH 640 0
DWIDTH 6 0
BBX 1 7 1 -1
BITMAP
80
00
00
00
00
00
80
ENDCHAR
STARTCHAR uni2842
ENCODING 10306
SWIDTH 640 0
DWIDTH 6 0
BBX 1 5 1 -1
BITMAP
80
00
00
00
80
ENDCHAR
STARTCHAR uni2843
ENCODING 10307
SWIDTH 640 0
DWIDTH 6 0
BBX 1 7 1 -1
BITMAP
80
00
80
00
00
00
80
ENDCHAR
STARTCHAR uni2844
ENCODING 10308
SWIDTH 640 0
DWIDTH 6 0
BBX 1 3 1 -1
BITMAP
80
00
80
ENDCHAR
STARTCHAR uni2845
ENCODING 10309
SWIDTH 640 0
DWIDTH 6 0
BBX 1 7 1 -1
BITMAP
80
00
00
00
80
00
80
ENDCHAR
STARTCHAR uni2846
ENCODING 10310
SWIDTH 640 0
DWIDTH 6 0
BBX 1 5 1 -1
BITMAP
80
00
80
00
80
ENDCHAR
STARTCHAR uni2847
ENCODING 10311
SWIDTH 640 0
DWIDTH 6 0
BBX 1 7 1 -1
BITMAP
80
00
80
00
80
00
80
ENDCHAR
STARTCHAR uni2848
ENCODING 10312
SWIDTH 640 0
DWIDTH 6 0
BBX 3 7 1 -1
BITMAP
20
00
00
00
00
00
80
ENDCHAR
STARTCHAR uni2849
ENCODING 10313
SWIDTH 640 0
DWIDTH 6 0
BBX 3 7 1 -1
BITMAP
A0
00
00
00
00
00
80
ENDCHAR
STARTCHAR uni284A
ENCODING 10314
SWIDTH 640 0
DWIDTH 6 0
BBX 3 7 1 -1
BITMAP
20
00
80
00
00
00
80
ENDCHAR
STARTCHAR uni284B
ENCODING 10315
SWIDTH 640 0
DWIDTH 6 0
BBX 3 7 1 -1
BITMAP
A0
00
80
00
00
00
80
ENDCHAR
STARTCHAR uni284C
ENCODING 10316
SWIDTH 640 0
DWIDTH 6 0
BBX 3 7 1 -1
BITMAP
20
00
00
00
80
00
80
ENDCHAR
STARTCHAR uni284D
ENCODING 10317
SWIDTH 640 0
DWIDTH 6 0
BBX 3 7 1 -1
BITMAP
A0
00
00
00
80
00
80
ENDCHAR
STARTCHAR uni284E
ENCODING 10318
SWIDTH 640 0
DWIDTH 6 0
BBX 3 7 1 -1
BITMAP
20
00
80
00
80
00
80
ENDCHAR
STARTCHAR uni284F
ENCODING 10319
SWIDTH 640 0
DWIDTH 6 0
BBX 3 7 1 -1
BITMAP
A0
00
80
00
80
00
80
ENDCHAR
STARTCHAR uni2850
ENCODING 10320
SWIDTH 640 0
DWIDTH 6 0
BBX 3 5 1 -1
BITMAP
20
00
00
00
80
ENDCHAR
STARTCHAR uni2851
ENCODING 10321
SWIDTH 640 0
DWIDTH 6 0
BBX 3 7 1 -1
BITMAP
80
00
20
00
00
00
80
ENDCHAR
STARTCHAR uni2852
ENCODING 10322
SWIDTH 640 0
DWIDTH 6 0
BBX 3 5 1 -1
BITMAP
A0
00
00
00
80
ENDCHAR
STARTCHAR uni2853
ENCODING 10323
SWIDTH 640 0
DWIDTH 6 0
BBX 3 7 1 -1
BITMAP
80
00
A0
00
00
00
80
ENDCHAR
STARTCHAR uni2854
ENCODING 10324
SWIDTH 640 0
DWIDTH 6 0
BBX 3 5 1 -1
BITMAP
20
00
80
00
80
ENDCHAR
STARTCHAR uni2855
ENCODING 10325
SWIDTH 640 0
DWIDTH 6 0
BBX 3 7 1 -1
BITMAP
80
00
20
00
80
00
80
ENDCHAR
STARTCHAR uni2856
ENCODING 10326
SWIDTH 640 0
DWIDTH 6 0
BBX 3 5 1 -1
BITMAP
A0
00
80
00
80
ENDCHAR
STARTCHAR uni2857
ENCODING 10327
SWIDTH 640 0
DWIDTH 6 0
BBX 3 7 1 -1
BITMAP
80
00
A0
00
80
00
80
ENDCHAR
STARTCHAR uni2858
ENCODING 10328
SWIDTH 640 0
DWIDTH 6 0
BBX 3 7 1 -1
BITMAP
20
00
20
00
00
00
80
ENDCHAR
STARTCHAR uni2859
ENCODING 10329
SWIDTH 640 0
DWIDTH 6 0
BBX 3 7 1 -1
BITMAP
A0
00
20
00
00
00
80
ENDCHAR
STARTCHAR uni285A
ENCODING 10330
SWIDTH 640 0
DWIDTH 6 0
BBX 3 7 1 -1
BITMAP
20
00
A0
00
00
00
80
ENDCHAR
STARTCHAR uni285B
ENCODING 10331
SWIDTH 640 0
DWIDTH 6 0
BBX 3 7 1 -1
BITMAP
A0
00
A0
00
00
00
80
ENDCHAR
STARTCHAR uni285C
ENCODING 10332
SWIDTH 640 0
DWIDTH 6 0
BBX 3 7 1 -1
BITMAP
20
00
20
00
80
00
80
ENDCHAR
STARTCHAR uni285D
ENCODING 10333
SWIDTH 640 0
DWIDTH 6 0
BBX 3 7 1 -1
BITMAP
A0
00
20
00
80
00
80
ENDCHAR
STARTCHAR uni285E
ENCODING 10334
SWIDTH 640 0
DWIDTH 6 0
BBX 3 7 1 -1
BITMAP
20
00
A0
00
80
00
80
ENDCHAR
STARTCHAR uni285F
ENCODING 10335
SWIDTH 640 0
DWIDTH 6 0
BBX 3 7 1 -1
BITMAP
A0
00
A0
00
80
00
80
ENDCHAR
STARTCHAR uni2860
ENCODING 10336
SWIDTH 640 0
DWIDTH 6 0
BBX 3 3 1 -1
BITMAP
20
00
80
ENDCHAR
STARTCHAR uni2861
ENCODING 10337
SWIDTH 640 0
DWIDTH 6 0
BBX 3 7 1 -1
BITMAP
80
00
00
00
20
00
80
ENDCHAR
STARTCHAR uni2862
ENCODING 10338
SWIDTH 640 0
DWIDTH 6 0
BBX 3 5 1 -1
BITMAP
80
00
20
00
80
ENDCHAR
STARTCHAR uni2863
ENCODING 10339
SWIDTH 640 0
DWIDTH 6 0
BBX 3 7 1 -1
BITMAP
80
00
80
00
20
00
80
ENDCHAR
STARTCHAR uni2864
ENCODING 10340
SWIDTH 640 0
DWIDTH 6 0
BBX 3 3 1 -1
BITMAP
A0
00
80
ENDCHAR
STARTCHAR uni2865
ENCODING 10341
SWIDTH 640 0
DWIDTH 6 0
BBX 3 7 1 -1
BITMAP
80
00
00
00
A0
00
80
ENDCHAR
STARTCHAR uni2866
ENCODING 10342
SWIDTH 640 0
DWIDTH 6 0
BBX 3 5 1 -1
BITMAP
80
00
A0
00
80
ENDCHAR
STARTCHAR uni2867
ENCODING 10343
SWIDTH 640 0
DWIDTH 6 0
BBX 3 7 1 -1
BITMAP
80
00
80
00
A0
00
80
ENDCHAR
STARTCHAR uni2868
ENCODING 10344
SWIDTH 640 0
DWIDTH 6 0
BBX 3 7 1 -1
BITMAP
20
00
00
00
20
00
80
ENDCHAR
STARTCHAR uni2869
ENCODING 10345
SWIDTH 640 0
DWIDTH 6 0
BBX 3 7 1 -1
BITMAP
A0
00
00
00
20
00
80
ENDCHAR
STARTCHAR uni286A
ENCODING 10346
SWIDTH 640 0
DWIDTH 6 0
BBX 3 7 1 -1
BITMAP
20
00
80
00
20
00
80
ENDCHAR
STARTCHAR uni286B
ENCODING 10347
SWIDTH 640 0
DWIDTH 6 0
BBX 3 7 1 -1
BITMAP
A0
00
80
00
20
00
80
ENDCHAR
STARTCHAR uni286C
ENCODING 10348
SWIDTH 640 0
DWIDTH 6 0
BBX 3 7 1 -1
BITMAP
20
00
00
00
A0
00
80
ENDCHAR
STARTCHAR uni286D
ENCODING 10349
SWIDTH 640 0
DWIDTH 6 0
BBX 3 7 1 -1
BITMAP
A0
00
00
00
A0
00
80
ENDCHAR
STARTCHAR uni286E
ENCODING 10350
SWIDTH 640 0
DWIDTH 6 0
BBX 3 7 1 -1
BITMAP
20
00
80
00
A0
00
80
ENDCHAR
STARTCHAR uni286F
ENCODING 10351
SWIDTH 640 0
DWIDTH 6 0
BBX 3 7 1 -1
BITMAP
A0
00
80
00
A0
00
80
ENDCHAR
STARTCHAR uni2870
ENCODING 10352
SWIDTH 640 0
DWIDTH 6 0
BBX 3 5 1 -1
BITMAP
20
00
20
00
80
ENDCHAR
STARTCHAR uni2871
ENCODING 10353
SWIDTH 640 0
DWIDTH 6 0
BBX 3 7 1 -1
BITMAP
80
00
20
00
20
00
80
ENDCHAR
STARTCHAR uni2872
ENCODING 10354
SWIDTH 640 0
DWIDTH 6 0
BBX 3 5 1 -1
BITMAP
A0
00
20
00
80
ENDCHAR
STARTCHAR uni2873
ENCODING 10355
SWIDTH 640 0
DWIDTH 6 0
BBX 3 7 1 -1
BITMAP
80
00
A0
00
20
00
80
ENDCHAR
STARTCHAR uni2874
ENCODING 10356
SWIDTH 640 0
DWIDTH 6 0
BBX 3 5 1 -1
BITMAP
20
00
A0
00
80
ENDCHAR
STARTCHAR uni2875
ENCODING 10357
SWIDTH 640 0
DWIDTH 6 0
BBX 3 7 1 -1
BITMAP
80
00
20
00
A0
00
80
ENDCHAR
STARTCHAR uni2876
ENCODING 10358
SWIDTH 640 0
DWIDTH 6 0
BBX 3 5 1 -1
BITMAP
A0
00
A0
00
80
ENDCHAR
STARTCHAR uni2877
ENCODING 10359
SWIDTH 640 0
DWIDTH 6 0
BBX 3 7 1 -1
BITMAP
80
00
A0
00
A0
00
80
ENDCHAR
STARTCHAR uni2878
ENCODING 10360
SWIDTH 640 0
DWIDTH 6 0
BBX 3 7 1 -1
BITMAP
20
00
20
00
20
00
80
ENDCHAR
STARTCHAR uni2879
ENCODING 10361
SWIDTH 640 0
DWIDTH 6 0
BBX 3 7 1 -1
BITMAP
A0
00
20
00
20
00
80
ENDCHAR
STARTCHAR uni287A
ENCODING 10362
SWIDTH 640 0
DWIDTH 6 0
BBX 3 7 1 -1
BITMAP
20
00
A0
00
20
00
80
ENDCHAR
STARTCHAR uni287B
ENCODING 10363
SWIDTH 640 0
DWIDTH 6 0
BBX 3 7 1 -1
BITMAP
A0
00
A0
00
20
00
80
ENDCHAR
STARTCHAR uni287C
ENCODING 10364
SWIDTH 640 0
DWIDTH 6 0
BBX 3 7 1 -1
BITMAP
20
00
20
00
A0
00
80
ENDCHAR
STARTCHAR uni287D
ENCODING 10365
SWIDTH 640 0
DWIDTH 6 0
BBX 3 7 1 -1
BITMAP
A0
00
20
00
A0
00
80
ENDCHAR
STARTCHAR uni287E
ENCODING 10366
SWIDTH 640 0
DWIDTH 6 0
BBX 3 7 1 -1
BITMAP
20
00
A0
00
A0
00
80
ENDCHAR
STARTCHAR uni287F
ENCODING 10367
SWIDTH 640 0
DWIDTH 6 0
BBX 3 7 1 -1
BITMAP
A0
00
A0
00
A0
00
80
ENDCHAR
STARTCHAR uni2880
ENCODING 10368
SWIDTH 640 0
DWIDTH 6 0
BBX 1 1 3 -1
BITMAP
80
ENDCHAR
STARTCHAR uni2881
ENCODING 10369
SWIDTH 640 0
DWIDTH 6 0
BBX 3 7 1 -1
BITMAP
80
00
00
00
00
00
20
ENDCHAR
STARTCHAR uni2882
ENCODING 10370
SWIDTH 640 0
DWIDTH 6 0
BBX 3 5 1 -1
BITMAP
80
00
00
00
20
ENDCHAR
STARTCHAR uni2883
ENCODING 10371
SWIDTH 640 0
DWIDTH 6 0
BBX 3 7 1 -1
BITMAP
80
00
80
00
00
00
20
ENDCHAR
STARTCHAR uni2884
ENCODING 10372
SWIDTH 640 0
DWIDTH 6 0
BBX 3 3 1 -1
BITMAP
80
00
20
ENDCHAR
STARTCHAR uni2885
ENCODING 10373
SWIDTH 640 0
DWIDTH 6 0
BBX 3 7 1 -1
BITMAP
80
00
00
00
80
00
20
ENDCHAR
STARTCHAR uni2886
ENCODING 10374
SWIDTH 640 0
DWIDTH 6 0
BBX 3 5 1 -1
BITMAP
80
00
80
00
20
ENDCHAR
STARTCHAR uni2887
ENCODING 10375
SWIDTH 640 0
DWIDTH 6 0
BBX 3 7 1 -1
BITMAP
80
00
80
00
80
00
20
ENDCHAR
STARTCHAR uni2888
ENCODING 10376
SWIDTH 640 0
DWIDTH 6 0
BBX 1 7 3 -1
BITMAP
80
00
00
00
00
00
80
ENDCHAR
STARTCHAR uni2889
ENCODING 10377
SWIDTH 640 0
DWIDTH 6 0
BBX 3 7 1 -1
BITMAP
A0
00
00
00
00
00
20
ENDCHAR
STARTCHAR uni288A
ENCODING 10378
SWIDTH 640 0
DWIDTH 6 0
BBX 3 7 1 -1
BITMAP
20
00
80
00
00
00
20
ENDCHAR
STARTCHAR uni288B
ENCODING 10379
SWIDTH 640 0
DWIDTH 6 0
BBX 3 7 1 -1
BITMAP
A0
00
80
00
00
00
20
ENDCHAR
STARTCHAR uni288C
ENCODING 10380
SWIDTH 640 0
DWIDTH 6 0
BBX 3 7 1 -1
BITMAP
20
00
00
00
80
00
20
ENDCHAR
STARTCHAR uni288D
ENCODING 10381
SWIDTH 640 0
DWIDTH 6 0
BBX 3 7 1 -1
BITMAP
A0
00
00
00
80
00
20
ENDCHAR
STARTCHAR uni288E
ENCODING 10382
SWIDTH 640 0
DWIDTH 6 0
BBX 3 7 1 -1
BITMAP
20
00
80
00
80
00
20
ENDCHAR
STARTCHAR uni288F
ENCODING 10383
SWIDTH 640 0
DWIDTH 6 0
BBX 3 7 1 -1
BITMAP
A0
00
80
00
80
00
20
ENDCHAR
STARTCHAR uni2890
ENCODING 10384
SWIDTH 640 0
DWIDTH 6 0
BBX 1 5 3 -1
BITMAP
80
00
00
00
80
ENDCHAR
STARTCHAR uni2891
ENCODING 10385
SWIDTH 640 0
DWIDTH 6 0
BBX 3 7 1 -1
BITMAP
80
00
20
00
00
00
20
ENDCHAR
STARTCHAR uni2892
ENCODING 10386
SWIDTH 640 0
DWIDTH 6 0
BBX 3 5 1 -1
BITMAP
A0
00
00
00
20
ENDCHAR
STARTCHAR uni2893
ENCODING 10387
SWIDTH 640 0
DWIDTH 6 0
BBX 3 7 1 -1
BITMAP
80
00
A0
00
00
00
20
ENDCHAR
STARTCHAR uni2894
ENCODING 10388
SWIDTH 640 0
DWIDTH 6 0
BBX 3 5 1 -1
BITMAP
20
00
80
00
20
ENDCHAR
STARTCHAR uni2895
ENCODING 10389
SWIDTH 640 0
DWIDTH 6 0
BBX 3 7 1 -1
BITMAP
80
00
20
00
80
00
20
ENDCHAR
STARTCHAR uni2896
ENCODING 10390
SWIDTH 640 0
DWIDTH 6 0
BBX 3 5 1 -1
BITMAP
A0
00
80
00
20
ENDCHAR
STARTCHAR uni2897
ENCODING 10391
SWIDTH 640 0
DWIDTH 6 0
BBX 3 7 1 -1
BITMAP
80
00
A0
00
80
00
20
ENDCHAR
STARTCHAR uni2898
ENCODING 10392
SWIDTH 640 0
DWIDTH 6 0
BBX 1 7 3 -1
BITMAP
80
00
80
00
00
00
80
ENDCHAR
STARTCHAR uni2899
ENCODING 10393
SWIDTH 640 0
DWIDTH 6 0
BBX 3 7 1 -1
BITMAP
A0
00
20
00
00
00
20
ENDCHAR
STARTCHAR uni289A
ENCODING 10394
SWIDTH 640 0
DWIDTH 6 0
BBX 3 7 1 -1
BITMAP
20
00
A0
00
00
00
20
ENDCHAR
STARTCHAR uni289B
ENCODING 10395
SWIDTH 640 0
DWIDTH 6 0
BBX 3 7 1 -1
BITMAP
A0
00
A0
00
00
00
20
ENDCHAR
STARTCHAR uni289C
ENCODING 10396
SWIDTH 640 0
DWIDTH 6 0
BBX 3 7 1 -1
BITMAP
20
00
20
00
80
00
20
ENDCHAR
STARTCHAR uni289D
ENCODING 10397
SWIDTH 640 0
DWIDTH 6 0
BBX 3 7 1 -1
BITMAP
A0
00
20
00
80
00
20
ENDCHAR
STARTCHAR uni289E
ENCODING 10398
SWIDTH 640 0
DWIDTH 6 0
BBX 3 7 1 -1
BITMAP
20
00
A0
00
80
00
20
ENDCHAR
STARTCHAR uni289F
ENCODING 10399
SWIDTH 640 0
DWIDTH 6 0
BBX 3 7 1 -1
BITMAP
A0
00
A0
00
80
00
20
ENDCHAR
STARTCHAR uni28A0
ENCODING 10400
SWIDTH 640 0
DWIDTH 6 0
BBX 1 3 3 -1
BITMAP
80
00
80
ENDCHAR
STARTCHAR uni28A1
ENCODING 10401
SWIDTH 640 0
DWIDTH 6 0
BBX 3 7 1 -1
BITMAP
80
00
00
00
20
00
20
ENDCHAR
STARTCHAR uni28A2
ENCODING 10402
SWIDTH 640 0
DWIDTH 6 0
BBX 3 5 1 -1
BITMAP
80
00
20
00
20
ENDCHAR
STARTCHAR uni28A3
ENCODING 10403
SWIDTH 640 0
DWIDTH 6 0
BBX 3 7 1 -1
BITMAP
80
00
80
00
20
00
20
ENDCHAR
STARTCHAR uni28A4
ENCODING 10404
SWIDTH 640 0
DWIDTH 6 0
BBX 3 3 1 -1
BITMAP
A0
00
20
ENDCHAR
STARTCHAR uni28A5
ENCODING 10405
SWIDTH 640 0
DWIDTH 6 0
BBX 3 7 1 -1
BITMAP
80
00
00
00
A0
00
20
ENDCHAR
STARTCHAR uni28A6
ENCODING 10406
SWIDTH 640 0
DWIDTH 6 0
BBX 3 5 1 -1
BITMAP
80
00
A0
00
20
ENDCHAR
STARTCHAR uni28A7
ENCODING 10407
SWIDTH 640 0
DWIDTH 6 0
BBX 3 7 1 -1
BITMAP
80
00
80
00
A0
00
20
ENDCHAR
STARTCHAR uni28A8
ENCODING 10408
SWIDTH 640 0
DWIDTH 6 0
BBX 1 7 3 -1
BITMAP
80
00
00
00
80
00
80
ENDCHAR
STARTCHAR uni28A9
ENCODING 10409
SWIDTH 640 0
DWIDTH 6 0
BBX 3 7 1 -1
BITMAP
A0
00
00
00
20
00
20
ENDCHAR
STARTCHAR uni28AA
ENCODING 10410
SWIDTH 640 0
DWIDTH 6 0
BBX 3 7 1 -1
BITMAP
20
00
80
00
20
00
20
ENDCHAR
STARTCHAR uni28AB
ENCODING 10411
SWIDTH 640 0
DWIDTH 6 0
BBX 3 7 1 -1
BITMAP
A0
00
80
00
20
00
20
ENDCHAR
STARTCHAR uni28AC
ENCODING 10412
SWIDTH 640 0
DWIDTH 6 0
BBX 3 7 1 -1
BITMAP
20
00
00
00
A0
00
20
ENDCHAR
STARTCHAR uni28AD
ENCODING 10413
SWIDTH 640 0
DWIDTH 6 0
BBX 3 7 1 -1
BITMAP
A0
00
00
00
A0
00
20
ENDCHAR
STARTCHAR uni28AE
ENCODING 10414
SWIDTH 640 0
DWIDTH 6 0
BBX 3 7 1 -1
BITMAP
20
00
80
00
A0
00
20
ENDCHAR
STARTCHAR uni28AF
ENCODING 10415
SWIDTH 640 0
DWIDTH 6 0
BBX 3 7 1 -1
BITMAP
A0
00
80
00
A0
00
20
ENDCHAR
STARTCHAR uni28B0
ENCODING 10416
SWIDTH 640 0
DWIDTH 6 0
BBX 1 5 3 -1
BITMAP
80
00
80
00
80
ENDCHAR
STARTCHAR uni28B1
ENCODING 10417
SWIDTH 640 0
DWIDTH 6 0
BBX 3 7 1 -1
BITMAP
80
00
20
00
20
00
20
ENDCHAR
STARTCHAR uni28B2
ENCODING 10418
SWIDTH 640 0
DWIDTH 6 0
BBX 3 5 1 -1
BITMAP
A0
00
20
00
20
ENDCHAR
STARTCHAR uni28B3
ENCODING 10419
SWIDTH 640 0
DWIDTH 6 0
BBX 3 7 1 -1
BITMAP
80
00
A0
00
20
00
20
ENDCHAR
STARTCHAR uni28B4
ENCODING 10420
SWIDTH 640 0
DWIDTH 6 0
BBX 3 5 1 -1
BITMAP
20
00
A0
00
20
ENDCHAR
STARTCHAR uni28B5
ENCODING 10421
SWIDTH 640 0
DWIDTH 6 0
BBX 3 7 1 -1
BITMAP
80
00
20
00
A0
00
20
ENDCHAR
STARTCHAR uni28B6
ENCODING 10422
SWIDTH 640 0
DWIDTH 6 0
BBX 3 5 1 -1
BITMAP
A0
00
A0
00
20
ENDCHAR
STARTCHAR uni28B7
ENCODING 10423
SWIDTH 640 0
DWIDTH 6 0
BBX 3 7 1 -1
BITMAP
80
00
A0
00
A0
00
20
ENDCHAR
STARTCHAR uni28B8
ENCODING 10424
SWIDTH 640 0
DWIDTH 6 0
BBX 1 7 3 -1
BITMAP
80
00
80
00
80
00
80
ENDCHAR
STARTCHAR uni28B9
ENCODING 10425
SWIDTH 640 0
DWIDTH 6 0
BBX 3 7 1 -1
BITMAP
A0
00
20
00
20
00
20
ENDCHAR
STARTCHAR uni28BA
ENCODING 10426
SWIDTH 640 0
DWIDTH 6 0
BBX 3 7 1 -1
BITMAP
20
00
A0
00
20
00
20
ENDCHAR
STARTCHAR uni28BB
ENCODING 10427
SWIDTH 640 0
DWIDTH 6 0
BBX 3 7 1 -1
BITMAP
A0
00
A0
00
20
00
20
ENDCHAR
STARTCHAR uni28BC
ENCODING 10428
SWIDTH 640 0
DWIDTH 6 0
BBX 3 7 1 -1
BITMAP
20
00
20
00
A0
00
20
ENDCHAR
STARTCHAR uni28BD
ENCODING 10429
SWIDTH 640 0
DWIDTH 6 0
BBX 3 7 1 -1
BITMAP
A0
00
20
00
A0
00
20
ENDCHAR
STARTCHAR uni28BE
ENCODING 10430
SWIDTH 640 0
DWIDTH 6 0
BBX 3 7 1 -1
BITMAP
20
00
A0
00
A0
00
20
ENDCHAR
STARTCHAR uni28BF
ENCODING 10431
SWIDTH 640 0
DWIDTH 6 0
BBX 3 7 1 -1
BITMAP
A0
00
A0
00
A0
00
20
ENDCHAR
STARTCHAR uni28C0
ENCODING 10432
SWIDTH 640 0
DWIDTH 6 0
BBX 3 1 1 -1
BITMAP
A0
ENDCHAR
STARTCHAR uni28C1
ENCODING 10433
SWIDTH 640 0
DWIDTH 6 0
BBX 3 7 1 -1
BITMAP
80
00
00
00
00
00
A0
ENDCHAR
STARTCHAR uni28C2
ENCODING 10434
SWIDTH 640 0
DWIDTH 6 0
BBX 3 5 1 -1
BITMAP
80
00
00
00
A0
ENDCHAR
STARTCHAR uni28C3
ENCODING 10435
SWIDTH 640 0
DWIDTH 6 0
BBX 3 7 1 -1
BITMAP
80
00
80
00
00
00
A0
ENDCHAR
STARTCHAR uni28C4
ENCODING 10436
SWIDTH 640 0
DWIDTH 6 0
BBX 3 3 1 -1
BITMAP
80
00
A0
ENDCHAR
STARTCHAR uni28C5
ENCODING 10437
SWIDTH 640 0
DWIDTH 6 0
BBX 3 7 1 -1
BITMAP
80
00
00
00
80
00
A0
ENDCHAR
STARTCHAR uni28C6
ENCODING 10438
SWIDTH 640 0
DWIDTH 6 0
BBX 3 5 1 -1
BITMAP
80
00
80
00
A0
ENDCHAR
STARTCHAR uni28C7
ENCODING 10439
SWIDTH 640 0
DWIDTH 6 0
BBX 3 7 1 -1
BITMAP
80
00
80
00
80
00
A0
ENDCHAR
STARTCHAR uni28C8
ENCODING 10440
SWIDTH 640 0
DWIDTH 6 0
BBX 3 7 1 -1
BITMAP
20
00
00
00
00
00
A0
ENDCHAR
STARTCHAR uni28C9
ENCODING 10441
SWIDTH 640 0
DWIDTH 6 0
BBX 3 7 1 -1
BITMAP
A0
00
00
00
00
00
A0
ENDCHAR
STARTCHAR uni28CA
ENCODING 10442
SWIDTH 640 0
DWIDTH 6 0
BBX 3 7 1 -1
BITMAP
20
00
80
00
00
00
A0
ENDCHAR
STARTCHAR uni28CB
ENCODING 10443
SWIDTH 640 0
DWIDTH 6 0
BBX 3 7 1 -1
BITMAP
A0
00
80
00
00
00
A0
ENDCHAR
STARTCHAR uni28CC
ENCODING 10444
SWIDTH 640 0
DWIDTH 6 0
BBX 3 7 1 -1
BITMAP
20
00
00
00
80
00
A0
ENDCHAR
STARTCHAR uni28CD
ENCODING 10445
SWIDTH 640 0
DWIDTH 6 0
BBX 3 7 1 -1
BITMAP
A0
00
00
00
80
00
A0
ENDCHAR
STARTCHAR uni28CE
ENCODING 10446
SWIDTH 640 0
DWIDTH 6 0
BBX 3 7 1 -1
BITMAP
20
00
80
00
80
00
A0
ENDCHAR
STARTCHAR uni28CF
ENCODING 10447
SWIDTH 640 0
DWIDTH 6 0
BBX 3 7 1 -1
BITMAP
A0
00
80
00
80
00
A0
ENDCHAR
STARTCHAR uni28D0
ENCODING 10448
SWIDTH 640 0
DWIDTH 6 0
BBX 3 5 1 -1
BITMAP
20
00
00
00
A0
ENDCHAR
STARTCHAR uni28D1
ENCODING 10449
SWIDTH 640 0
DWIDTH 6 0
BBX 3 7 1 -1
BITMAP
80
00
20
00
00
00
A0
ENDCHAR
STARTCHAR uni28D2
ENCODING 10450
SWIDTH 640 0
DWIDTH 6 0
BBX 3 5 1 -1
BITMAP
A0
00
00
00
A0
ENDCHAR
STARTCHAR uni28D3
ENCODING 10451
SWIDTH 640 0
DWIDTH 6 0
BBX 3 7 1 -1
BITMAP
80
00
A0
00
00
00
A0
ENDCHAR
STARTCHAR uni28D4
ENCODING 10452
SWIDTH 640 0
DWIDTH 6 0
BBX 3 5 1 -1
BITMAP
20
00
80
00
A0
ENDCHAR
STARTCHAR uni28D5
ENCODING 10453
SWIDTH 640 0
DWIDTH 6 0
BBX 3 7 1 -1
BITMAP
80
00
20
00
80
00
A0
ENDCHAR
STARTCHAR uni28D6
ENCODING 10454
SWIDTH 640 0
DWIDTH 6 0
BBX 3 5 1 -1
BITMAP
A0
00
80
00
A0
ENDCHAR
STARTCHAR uni28D7
ENCODING 10455
SWIDTH 640 0
DWIDTH 6 0
BBX 3 7 1 -1
BITMAP
80
00
A0
00
80
00
A0
ENDCHAR
STARTCHAR uni28D8
ENCODING 10456
SWIDTH 640 0
DWIDTH 6 0
BBX 3 7 1 -1
BITMAP
20
00
20
00
00
00
A0
ENDCHAR
STARTCHAR uni28D9
ENCODING 10457
SWIDTH 640 0
DWIDTH 6 0
BBX 3 7 1 -1
BITMAP
A0
00
20
00
00
00
A0
ENDCHAR
STARTCHAR uni28DA
ENCODING 10458
SWIDTH 640 0
DWIDTH 6 0
BBX 3 7 1 -1
BITMAP
20
00
A0
00
00
00
A0
ENDCHAR
STARTCHAR uni28DB
ENCODING 10459
SWIDTH 640 0
DWIDTH 6 0
BBX 3 7 1 -1
BITMAP
A0
00
A0
00
00
00
A0
ENDCHAR
STARTCHAR uni28DC
ENCODING 10460
SWIDTH 640 0
DWIDTH 6 0
BBX 3 7 1 -1
BITMAP
20
00
20
00
80
00
A0
ENDCHAR
STARTCHAR uni28DD
ENCODING 10461
SWIDTH 640 0
DWIDTH 6 0
BBX 3 7 1 -1
BITMAP
A0
00
20
00
80
00
A0
ENDCHAR
STARTCHAR uni28DE
ENCODING 10462
SWIDTH 640 0
DWIDTH 6 0
BBX 3 7 1 -1
BITMAP
20
00
A0
00
80
00
A0
ENDCHAR
STARTCHAR uni28DF
ENCODING 10463
SWIDTH 640 0
DWIDTH 6 0
BBX 3 7 1 -1
BITMAP
A0
00
A0
00
80
00
A0
ENDCHAR
STARTCHAR uni28E0
ENCODING 10464
SWIDTH 640 0
DWIDTH 6 0
BBX 3 3 1 -1
BITMAP
20
00
A0
ENDCHAR
STARTCHAR uni28E1
ENCODING 10465
SWIDTH 640 0
DWIDTH 6 0
BBX 3 7 1 -1
BITMAP
80
00
00
00
20
00
A0
ENDCHAR
STARTCHAR uni28E2
ENCODING 10466
SWIDTH 640 0
DWIDTH 6 0
BBX 3 5 1 -1
BITMAP
80
00
20
00
A0
ENDCHAR
STARTCHAR uni28E3
ENCODING 10467
SWIDTH 640 0
DWIDTH 6 0
BBX 3 7 1 -1
BITMAP
80
00
80
00
20
00
A0
ENDCHAR
STARTCHAR uni28E4
ENCODING 10468
SWIDTH 640 0
DWIDTH 6 0
BBX 3 3 1 -1
BITMAP
A0
00
A0
ENDCHAR
STARTCHAR uni28E5
ENCODING 10469
SWIDTH 640 0
DWIDTH 6 0
BBX 3 7 1 -1
BITMAP
80
00
00
00
A0
00
A0
ENDCHAR
STARTCHAR uni28E6
ENCODING 10470
SWIDTH 640 0
DWIDTH 6 0
BBX 3 5 1 -1
BITMAP
80
00
A0
00
A0
ENDCHAR
STARTCHAR uni28E7
ENCODING 10471
SWIDTH 640 0
DWIDTH 6 0
BBX 3 7 1 -1
BITMAP
80
00
80
00
A0
00
A0
ENDCHAR
STARTCHAR uni28E8
ENCODING 10472
SWIDTH 640 0
DWIDTH 6 0
BBX 3 7 1 -1
BITMAP
20
00
00
00
20
00
A0
ENDCHAR
STARTCHAR uni28E9
ENCODING 10473
SWIDTH 640 0
DWIDTH 6 0
BBX 3 7 1 -1
BITMAP
A0
00
00
00
20
00
A0
ENDCHAR
STARTCHAR uni28EA
ENCODING 10474
SWIDTH 640 0
DWIDTH 6 0
BBX 3 7 1 -1
BITMAP
20
00
80
00
20
00
A0
ENDCHAR
STARTCHAR uni28EB
ENCODING 10475
SWIDTH 640 0
DWIDTH 6 0
BBX 3 7 1 -1
BITMAP
A0
00
80
00
20
00
A0
ENDCHAR
STARTCHAR uni28EC
ENCODING 10476
SWIDTH 640 0
DWIDTH 6 0
BBX 3 7 1 -1
BITMAP
20
00
00
00
A0
00
A0
ENDCHAR
STARTCHAR uni28ED
ENCODING 10477
SWIDTH 640 0
DWIDTH 6 0
BBX 3 7 1 -1
BITMAP
A0
00
00
00
A0
00
A0
ENDCHAR
STARTCHAR uni28EE
ENCODING 10478
SWIDTH 640 0
DWIDTH 6 0
BBX 3 7 1 -1
BITMAP
20
00
80
00
A0
00
A0
ENDCHAR
STARTCHAR uni28EF
ENCODING 10479
SWIDTH 640 0
DWIDTH 6 0
BBX 3 7 1 -1
BITMAP
A0
00
80
00
A0
00
A0
ENDCHAR
STARTCHAR uni28F0
ENCODING 10480
SWIDTH 640 0
DWIDTH 6 0
BBX 3 5 1 -1
BITMAP
20
00
20
00
A0
ENDCHAR
STARTCHAR uni28F1
ENCODING 10481
SWIDTH 640 0
DWIDTH 6 0
BBX 3 7 1 -1
BITMAP
80
00
20
00
20
00
A0
ENDCHAR
STARTCHAR uni28F2
ENCODING 10482
SWIDTH 640 0
DWIDTH 6 0
BBX 3 5 1 -1
BITMAP
A0
00
20
00
A0
ENDCHAR
STARTCHAR uni28F3
ENCODING 10483
SWIDTH 640 0
DWIDTH 6 0
BBX 3 7 1 -1
BITMAP
80
00
A0
00
20
00
A0
ENDCHAR
STARTCHAR uni28F4
ENCODING 10484
SWIDTH 640 0
DWIDTH 6 0
BBX 3 5 1 -1
BITMAP
20
00
A0
00
A0
ENDCHAR
STARTCHAR uni28F5
ENCODING 10485
SWIDTH 640 0
DWIDTH 6 0
BBX 3 7 1 -1
BITMAP
80
00
20
00
A0
00
A0
ENDCHAR
STARTCHAR uni28F6
ENCODING 10486
SWIDTH 640 0
DWIDTH 6 0
BBX 3 5 1 -1
BITMAP
A0
00
A0
00
A0
ENDCHAR
STARTCHAR uni28F7
ENCODING 10487
SWIDTH 640 0
DWIDTH 6 0
BBX 3 7 1 -1
BITMAP
80
00
A0
00
A0
00
A0
ENDCHAR
STARTCHAR uni28F8
ENCODING 10488
SWIDTH 640 0
DWIDTH 6 0
BBX 3 7 1 -1
BITMAP
20
00
20
00
20
00
A0
ENDCHAR
STARTCHAR uni28F9
ENCODING 10489
SWIDTH 640 0
DWIDTH 6 0
BBX 3 7 1 -1
BITMAP
A0
00
20
00
20
00
A0
ENDCHAR
STARTCHAR uni28FA
ENCODING 10490
SWIDTH 640 0
DWIDTH 6 0
BBX 3 7 1 -1
BITMAP
20
00
A0
00
20
00
A0
ENDCHAR
STARTCHAR uni28FB
ENCODING 10491
SWIDTH 640 0
DWIDTH 6 0
BBX 3 7 1 -1
BITMAP
A0
00
A0
00
20
00
A0
ENDCHAR
STARTCHAR uni28FC
ENCODING 10492
SWIDTH 640 0
DWIDTH 6 0
BBX 3 7 1 -1
BITMAP
20
00
20
00
A0
00
A0
ENDCHAR
STARTCHAR uni28FD
ENCODING 10493
SWIDTH 640 0
DWIDTH 6 0
BBX 3 7 1 -1
BITMAP
A0
00
20
00
A0
00
A0
ENDCHAR
STARTCHAR uni28FE
ENCODING 10494
SWIDTH 640 0
DWIDTH 6 0
BBX 3 7 1 -1
BITMAP
20
00
A0
00
A0
00
A0
ENDCHAR
STARTCHAR uni28FF
ENCODING 10495
SWIDTH 640 0
DWIDTH 6 0
BBX 3 7 1 -1
BITMAP
A0
00
A0
00
A0
00
A0
ENDCHAR
STARTCHAR fi
ENCODING 64257
SWIDTH 640 0
DWIDTH 6 0
BBX 4 6 1 0
BITMAP
20
50
40
F0
50
50
ENDCHAR
STARTCHAR fl
ENCODING 64258
SWIDTH 640 0
DWIDTH 6 0
BBX 4 6 1 0
BITMAP
30
50
50
F0
50
50
ENDCHAR
STARTCHAR uniFFFD
ENCODING 65533
SWIDTH 640 0
DWIDTH 6 0
BBX 5 9 0 -2
BITMAP
70
D8
A8
E8
D8
D8
F8
D8
70
ENDCHAR
ENDFONT
